<?xml version="1.0" standalone="no"?>
<!DOCTYPE svg PUBLIC "-//W3C//DTD SVG 1.1//EN" "http://www.w3.org/Graphics/SVG/1.1/DTD/svg11.dtd" >
<svg xmlns="http://www.w3.org/2000/svg" xmlns:xlink="http://www.w3.org/1999/xlink" version="1.1">
<metadata></metadata>
<defs>
<font id="baqroundedregularoutline" horiz-adv-x="1601" >
<font-face units-per-em="2048" ascent="1536" descent="-512" />
<missing-glyph horiz-adv-x="782" />
<glyph horiz-adv-x="0" />
<glyph horiz-adv-x="682" />
<glyph unicode=" "  horiz-adv-x="782" />
<glyph unicode="&#x09;" horiz-adv-x="782" />
<glyph unicode="&#xa0;" horiz-adv-x="782" />
<glyph unicode="!" horiz-adv-x="632" d="M72 233q0 104 80 191q-80 74 -80 207v569q0 106 73 186t191 80q98 0 166.5 -81.5t68.5 -184.5v-569q0 -128 -79 -207q35 -40 57 -91.5t22 -99.5q0 -103 -68.5 -184.5t-166.5 -81.5q-118 0 -191 80t-73 186zM113 233q0 -90 61.5 -157.5t161.5 -67.5q81 0 137.5 68.5 t56.5 156.5q0 49 -27 102t-73 93q100 77 100 203v569q0 88 -56.5 156.5t-137.5 68.5q-100 0 -161.5 -67.5t-61.5 -157.5v-569q0 -132 106 -203q-50 -39 -78 -91t-28 -104z" />
<glyph unicode="&#x22;" horiz-adv-x="1075" d="M47 1071v256q0 89 76 165.5t164 76.5q107 0 174 -73.5t67 -168.5v-256q0 -95 -67 -168.5t-174 -73.5q-88 0 -164 76.5t-76 165.5zM88 1071q0 -73 63.5 -137t135.5 -64q89 0 144.5 61t55.5 140v256q0 79 -55.5 140t-144.5 61q-72 0 -135.5 -64t-63.5 -137v-256zM547 1071 v256q0 89 75.5 165.5t163.5 76.5q107 0 174.5 -73.5t67.5 -168.5v-256q0 -95 -67.5 -168.5t-174.5 -73.5q-88 0 -163.5 76.5t-75.5 165.5zM588 1071q0 -73 63 -137t135 -64q89 0 145 61.5t56 139.5v256q0 78 -56 139.5t-145 61.5q-72 0 -135 -64t-63 -137v-256z" />
<glyph unicode="#" horiz-adv-x="1642" d="M14 446q0 108 78 187.5t187 79.5q0 34 1 66t1 34l-2 14q-108 0 -186.5 73t-78.5 165q0 106 76.5 174t188.5 68l2 20q0 93 73.5 167.5t163.5 74.5q104 0 173 -72.5t69 -169.5v-20h133v20q0 97 68 169.5t172 72.5t170.5 -72t66.5 -170v-20h27q93 0 166 -69t73 -173 q0 -89 -75 -163.5t-164 -74.5h-27v-114h27q91 0 165 -80.5t74 -186.5q0 -89 -75 -163t-164 -74h-27q0 -108 -65 -175t-172 -67t-173.5 67.5t-66.5 174.5h-133q0 -107 -67.5 -174.5t-174.5 -67.5q-94 0 -165 69t-74 173q-108 0 -186.5 73t-78.5 164zM55 446q0 -75 67 -135.5 t157 -60.5h43v-41q0 -86 59.5 -143.5t136.5 -57.5q89 0 145 56t56 145v41h215v-41q0 -89 55 -145t144 -56t142.5 55.5t53.5 145.5v41h68q74 0 136 61.5t62 134.5q0 90 -61.5 158t-136.5 68h-68v196h68q74 0 136 62t62 135q0 86 -60.5 143.5t-137.5 57.5h-68v61q0 81 -55 141 t-141 60q-87 0 -143 -60t-56 -141v-61h-215v61q0 81 -57 141t-144 60q-74 0 -135 -62t-61 -139v-61h-43q-94 0 -159 -56.5t-65 -144.5q0 -75 67 -136t157 -61h43v-196h-43q-92 0 -158 -67t-66 -159zM719 672v196h215v-196h-215zM760 713h133v114h-133v-114z" />
<glyph unicode="$" horiz-adv-x="1110" d="M61 293q0 180 125 246q-58 32 -91.5 91t-33.5 124v489q0 92 62.5 162.5t157.5 99.5q28 72 97 114t163 42t163 -41.5t97 -112.5q111 -7 180.5 -85t69.5 -179q0 -77 -41 -146t-105 -100q64 -32 105 -100t41 -143v-461q0 -102 -70 -181t-182 -83q-28 -70 -97 -112t-161 -42 q-94 0 -163 41.5t-97 112.5q-93 6 -156.5 85.5t-63.5 178.5zM102 293q0 -87 60.5 -155t146.5 -68q24 -70 85.5 -112t146.5 -42t145 37.5t82 101.5q0 17 10 17q1 0 3.5 -1t4.5 -1q100 0 162 67t62 156v461q0 82 -54.5 150.5t-130.5 72.5h-8v39q80 1 136.5 70.5t56.5 156.5 q0 89 -66 156t-172 67q-24 70 -85 112t-146 42t-146.5 -41.5t-85.5 -110.5q-91 -24 -149 -84t-58 -141v-489q0 -64 54.5 -125t140.5 -90q-89 -30 -142 -95.5t-53 -150.5z" />
<glyph unicode="%" horiz-adv-x="1095" d="M31 223q0 77 32 137l312 586q-35 -12 -70 -12q-118 0 -191 80t-73 186t73 186t191 80q85 0 149.5 -63.5t82.5 -151.5l26 52q5 12 18.5 31.5t42.5 51t78 53t107 21.5q110 0 182 -72.5t72 -185.5q0 -26 -11 -67.5t-24 -67.5l-307 -594q49 21 106 21q97 0 165.5 -81.5 t68.5 -183.5q0 -103 -68.5 -184.5t-165.5 -81.5q-102 0 -172 60.5t-88 148.5q-34 -63 -66.5 -103.5t-89.5 -70t-130 -29.5q-115 0 -182.5 76.5t-67.5 177.5zM72 223q0 -87 57 -150t152 -63q35 0 66 8.5t54 20t45.5 34.5t36.5 39.5t32 49t26.5 49.5t25.5 53l35 -8v-27 q0 -90 62 -157.5t163 -67.5q80 0 136.5 69t56.5 156q0 86 -56.5 155t-136.5 69t-151 -58l-29 25l344 667q31 64 31 115q0 95 -61 156t-152 61q-42 0 -79 -14t-60 -34.5t-39.5 -40.5t-23.5 -34l-7 -14l-65 -123l-39 15q4 16 4 26q0 87 -57 156t-138 69q-100 0 -161.5 -67.5 t-61.5 -157.5t61.5 -157.5t161.5 -67.5q58 0 115 45l29 -25l-349 -655q-24 -47 -28 -117z" />
<glyph unicode="&#x26;" horiz-adv-x="1519" d="M61 498q0 57 10 103.5t30.5 82.5t35.5 54.5t41 47.5q2 2 6 5.5t6.5 6t4.5 5.5l32 37q-75 136 -75 235q0 92 36 181t100.5 159.5t162.5 114t213 43.5q157 0 288.5 -76t207 -207.5t75.5 -288.5q0 -60 -21 -157h15q108 0 169.5 -67.5t61.5 -153.5q0 -95 -65 -160l-56 -55 l56 -54q30 -30 47.5 -74t17.5 -87q0 -86 -61.5 -154t-169.5 -68q-94 0 -158 64l-53 53q-167 -127 -354 -127q-121 0 -227.5 33t-191.5 96.5t-134.5 168.5t-49.5 239zM102 498q0 -123 46 -220t125 -156t178.5 -89.5t212.5 -30.5q190 0 358 139l78 -78q51 -51 123 -51 q91 0 143.5 54.5t52.5 126.5q0 80 -53 133l-84 82l84 84q53 53 53 131q0 69 -51 124.5t-139 55.5q-16 0 -74 -8q0 1 1 3t1 3q37 126 37 200q0 145 -70.5 267.5t-192.5 193t-267 70.5q-106 0 -196.5 -40t-149.5 -105t-92 -146.5t-33 -165.5q0 -41 20.5 -99t40.5 -96l20 -38 q-10 -21 -33 -45t-45.5 -48t-44.5 -56.5t-35.5 -82t-13.5 -112.5z" />
<glyph unicode="'" horiz-adv-x="579" d="M47 1071v256q0 89 76 165.5t164 76.5q107 0 174 -73.5t67 -168.5v-256q0 -95 -67 -168.5t-174 -73.5q-88 0 -164 76.5t-76 165.5zM88 1071q0 -73 63.5 -137t135.5 -64q89 0 144.5 61t55.5 140v256q0 79 -55.5 140t-144.5 61q-72 0 -135.5 -64t-63.5 -137v-256z" />
<glyph unicode="(" horiz-adv-x="1075" d="M41 758q0 236 82 419t244 289.5t381 106.5q114 0 195 -86.5t81 -216.5q0 -128 -80.5 -204.5t-198.5 -76.5q-145 -3 -145 -231q0 -104 34.5 -157.5t115.5 -53.5q116 0 197 -86.5t81 -216.5q0 -128 -80 -204.5t-198 -76.5q-165 0 -300 61t-224 168t-137 252t-48 314z M82 758q0 -159 45 -296.5t128.5 -239.5t211 -160t283.5 -58q102 0 169.5 64.5t67.5 175.5q0 113 -69 187.5t-168 74.5q-104 0 -147.5 64t-43.5 188q0 269 186 272q102 0 170 64.5t68 175.5q0 113 -68.5 187.5t-166.5 74.5q-207 0 -359.5 -101.5t-229.5 -275t-77 -397.5z" />
<glyph unicode=")" horiz-adv-x="1054" d="M41 244q0 130 81 216.5t197 86.5q81 0 115.5 53.5t34.5 157.5q0 228 -145 231q-118 0 -198.5 76.5t-80.5 204.5q0 130 81.5 216.5t195.5 86.5q165 0 299 -61.5t223 -170.5t136.5 -258t47.5 -325q0 -169 -48 -314t-137 -252t-224 -168t-300 -61q-118 0 -198 76.5 t-80 204.5zM82 244q0 -111 67.5 -175.5t169.5 -64.5q156 0 283.5 58t211 160t128.5 239.5t45 296.5q0 167 -45 308.5t-128 245t-209.5 162t-282.5 58.5q-98 0 -167 -75t-69 -187q0 -111 68 -175.5t170 -64.5q186 -3 186 -272q0 -124 -43.5 -188t-147.5 -64q-99 0 -168 -74.5 t-69 -187.5z" />
<glyph unicode="*" horiz-adv-x="761" d="M39 1231q0 72 65 104q-4 20 -4 33q0 44 35 84.5t82 40.5q25 0 41 -8q15 37 45.5 60.5t73.5 23.5q33 0 60.5 -23.5t43.5 -58.5q28 14 60 14q51 0 86 -34t35 -85q0 -22 -9 -43q33 -14 53.5 -43t20.5 -65q0 -42 -23.5 -75.5t-58.5 -45.5q14 -28 14 -55q0 -56 -37.5 -87.5 t-84.5 -31.5q-30 0 -54 12q-15 -30 -44 -48.5t-62 -18.5q-90 0 -119 73q-18 -6 -39 -6q-48 0 -81.5 34t-33.5 85q0 22 9 43q-74 30 -74 121zM80 1231q0 -34 25 -57.5t67 -34.5q-27 -46 -27 -72q0 -32 19 -54t49 -22q31 0 72 25q11 -43 34.5 -68.5t57.5 -25.5q27 0 50 29.5 t34 74.5q43 -49 76 -49q32 0 61 20q20 23 20 58q0 32 -20 55l14 35q28 0 51 25.5t23 60.5q0 26 -25.5 47.5t-66.5 32.5q27 46 27 71q0 35 -22.5 56.5t-57.5 21.5q-37 0 -80 -49q-14 48 -36 82.5t-48 34.5q-33 0 -57.5 -32t-36.5 -77q-42 27 -74 27t-49 -25t-17 -57 q0 -22 11 -51q-30 -11 -52 -33.5t-22 -48.5z" />
<glyph unicode="+" horiz-adv-x="1308" d="M33 770q0 98 83 181t183 83h90v90q0 100 83 183.5t181 83.5q119 0 193 -80.5t74 -186.5v-90h90q100 0 183 -83t83 -181q0 -119 -80 -192.5t-186 -73.5h-90v-90q0 -106 -74 -186.5t-193 -80.5q-98 0 -181 83.5t-83 183.5v90h-90q-106 0 -186 73.5t-80 192.5zM74 770 q0 -101 67.5 -163t157.5 -62h131v-131q0 -85 70 -155.5t153 -70.5q101 0 163.5 68t62.5 158v131h131q90 0 157.5 62t67.5 163q0 83 -70 153t-155 70h-131v131q0 90 -62.5 158t-163.5 68q-83 0 -153 -70.5t-70 -155.5v-131h-131q-85 0 -155 -70t-70 -153z" />
<glyph unicode="," horiz-adv-x="608" d="M55 203q0 123 76.5 194.5t202.5 71.5q104 0 176 -72.5t72 -193.5q0 -100 -73.5 -168t-174.5 -68h-86q-48 0 -76 2t-52 12t-35 23t-19 42.5t-9.5 63.5t-1.5 93zM96 203q0 -49 1.5 -77t7.5 -52.5t14.5 -35.5t27.5 -19t41 -9.5t60 -1.5h86q86 0 146.5 56.5t60.5 138.5 q0 103 -59.5 164t-147.5 61q-107 0 -172.5 -60.5t-65.5 -164.5z" />
<glyph unicode="-" horiz-adv-x="1097" d="M33 770q0 98 83 181t183 83h489q100 0 183.5 -83t83.5 -181q0 -119 -80.5 -192.5t-186.5 -73.5h-489q-106 0 -186 73.5t-80 192.5zM74 770q0 -101 67.5 -163t157.5 -62h489q90 0 158 62t68 163q0 83 -70.5 153t-155.5 70h-489q-85 0 -155 -70t-70 -153z" />
<glyph unicode="." horiz-adv-x="555" d="M12 203q0 124 71 195t196 71t195.5 -70.5t70.5 -195.5q0 -236 -266 -236q-267 0 -267 236zM53 203q0 -195 226 -195q225 0 225 195q0 106 -59.5 165.5t-165.5 59.5t-166 -59.5t-60 -165.5z" />
<glyph unicode="/" horiz-adv-x="1042" d="M8 242q0 64 27 116q387 732 504 951q37 73 101.5 115t143.5 42q125 0 185.5 -74t60.5 -186q0 -73 -35 -145l-495 -967q-30 -57 -100.5 -92t-147.5 -35q-104 0 -174 79.5t-70 195.5zM49 242q0 -97 58.5 -165.5t144.5 -68.5q64 0 125 29.5t86 77.5l495 964q31 69 31 127 q0 95 -50 157t-155 62q-67 0 -122.5 -36.5t-86.5 -100.5l-503 -950q-23 -45 -23 -96z" />
<glyph unicode="0" horiz-adv-x="1331" d="M29 784q0 163 50.5 309.5t136 251.5t203 166.5t247.5 61.5q102 0 198.5 -39t174.5 -111.5t137 -169t91.5 -218t32.5 -251.5q0 -218 -85.5 -407t-232 -301.5t-316.5 -112.5q-172 0 -319.5 112.5t-232.5 301.5t-85 407zM70 784q0 -208 80 -387.5t217.5 -286t298.5 -106.5 q160 0 297 106.5t217 286t80 387.5q0 205 -80 377.5t-216.5 271.5t-297.5 99q-121 0 -231 -58.5t-190 -158t-127.5 -238.5t-47.5 -293z" />
<glyph unicode="1" horiz-adv-x="1331" d="M92 1065q0 72 33.5 133t97.5 100l381 234q58 37 150 37q107 0 185.5 -62t78.5 -166v-1110q0 -105 -72.5 -184.5t-191.5 -79.5q-100 0 -183.5 83t-83.5 181v600q-50 -47 -125 -47q-112 0 -191 85t-79 196zM133 1065q0 -95 67.5 -167.5t161.5 -72.5q62 0 101 39l65 66v-699 q0 -83 70.5 -153t155.5 -70q101 0 162 67t61 156v1110q0 87 -65.5 137t-157.5 50q-57 0 -129 -33q-63 -39 -190.5 -116.5t-190.5 -116.5q-54 -33 -82.5 -85t-28.5 -112z" />
<glyph unicode="2" horiz-adv-x="1331" d="M61 1047q0 107 53 206t136 168t186.5 110.5t202.5 41.5q157 0 288.5 -76.5t207 -208.5t75.5 -289q0 -138 -65 -225l-219 -295h82q123 0 193.5 -70.5t70.5 -193.5q0 -101 -67.5 -168t-168.5 -67h-702q-101 0 -168 67q-80 80 -80 189q0 48 16.5 103t47.5 89l346 379 q-65 -41 -162 -41q-105 0 -189 89t-84 192zM102 1047q0 -88 71 -164t161 -76q97 0 161.5 55.5t92.5 143.5q15 45 61 45q51 0 51 -47q0 -25 -12 -43l-510 -562q-25 -28 -38 -75.5t-13 -87.5q0 -92 68 -160q56 -56 139 -56h702q83 0 139 56t56 139q0 104 -59.5 163.5 t-163.5 59.5h-164l268 361q57 76 57 200q0 145 -70.5 268t-192.5 194t-267 71q-92 0 -187.5 -38.5t-173 -102t-127 -155t-49.5 -189.5zM600 922l51 57q8 16 8 25q0 6 -10 6q-15 0 -20 -17q-13 -40 -29 -71z" />
<glyph unicode="3" horiz-adv-x="1331" d="M68 410q0 57 18 110.5t43.5 90t51 64.5t43.5 41l18 13q-25 45 -25 74q0 12 6.5 28.5t12.5 27.5l6 11q-67 47 -105.5 115.5t-38.5 138.5q0 41 15 93.5t56.5 116.5t102.5 116t165 87.5t233 35.5q145 0 267.5 -58t197.5 -169t75 -252q0 -63 -16.5 -138t-38.5 -110 q125 -136 125 -311q0 -151 -74 -282t-210 -211.5t-302 -80.5q-97 0 -186 15.5t-170 50t-140.5 86t-94.5 127.5t-35 170zM109 410q0 -85 32.5 -154.5t88 -116t131 -78t159 -45.5t174.5 -14q116 0 218.5 43.5t173.5 116.5t112 170.5t41 202.5q0 163 -139 309q25 25 47 104.5 t22 145.5q0 129 -69 230.5t-182 154.5t-248 53q-119 0 -215.5 -32.5t-153.5 -79.5t-95.5 -105.5t-52.5 -106t-14 -84.5q0 -64 45.5 -132t120.5 -115q-47 -41 -47 -74q0 -15 12 -37.5t24 -37.5l13 -15q-8 -3 -21.5 -9.5t-47.5 -32.5t-60 -57t-47.5 -86t-21.5 -118z" />
<glyph unicode="4" horiz-adv-x="1331" d="M18 516q0 108 58 186l559 738q49 65 111 97t153 32q87 0 144 -55.5t57 -145.5v-594q94 -10 154.5 -85t60.5 -171q0 -100 -59.5 -170t-155.5 -74v-41q0 -106 -73 -186t-191 -80q-98 0 -167 81.5t-69 184.5v41h-346q-115 0 -175.5 69t-60.5 173zM59 516q0 -87 50 -144 t145 -57h387v-82q0 -87 57 -156t138 -69q100 0 161.5 67.5t61.5 157.5v82q91 0 153 59.5t62 143.5q0 88 -59.5 151.5t-155.5 63.5v635q0 71 -45.5 115.5t-114.5 44.5q-145 0 -231 -113l-559 -737q-50 -72 -50 -162z" />
<glyph unicode="5" horiz-adv-x="1331" d="M39 471q0 46 18.5 110t44.5 113v-18q-36 65 -36 133q0 29 8 61l88 457q22 116 103.5 172.5t191.5 56.5h491q99 0 181.5 -82.5t82.5 -181.5q0 -78 -46.5 -145.5t-112.5 -104.5q106 -75 163.5 -199t57.5 -280q0 -125 -47.5 -236.5t-130.5 -191.5t-201 -127t-254 -47 q-156 0 -294.5 67t-223 185t-84.5 258zM80 471q0 -128 78.5 -236.5t207.5 -170.5t275 -62q127 0 237.5 44t188 119t122 178.5t44.5 219.5q0 155 -72.5 283t-202.5 205q86 28 149.5 94.5t63.5 146.5q0 84 -69.5 154t-153.5 70h-491q-95 0 -165 -49t-89 -148l-88 -457 q-9 -40 -9 -53q0 -45 33 -113v-18q-24 -46 -41.5 -105t-17.5 -102z" />
<glyph unicode="6" horiz-adv-x="1331" d="M39 705q0 91 19 190t55 196t92.5 184t125 153.5t159 105.5t190.5 39q115 0 217 -31t171 -82t109 -117.5t40 -136.5q0 -74 -20.5 -149t-63.5 -125q145 -148 145 -367q0 -116 -50 -226.5t-132.5 -193t-193 -132.5t-226.5 -50q-120 0 -224 42t-178.5 114t-128.5 167t-80 202 t-26 217zM80 705q0 -131 39.5 -255t112.5 -224t188.5 -161t255.5 -61q108 0 211.5 46.5t180 123t123 180t46.5 211.5q0 212 -162 367q50 50 75.5 126t25.5 148q0 130 -141.5 228t-354.5 98q-112 0 -210.5 -52.5t-168.5 -139t-121 -195t-75.5 -221.5t-24.5 -219z" />
<glyph unicode="7" horiz-adv-x="1331" d="M59 1292q0 105 74 184.5t193 79.5h641q73 0 140 -32t112 -93.5t45 -138.5q0 -53 -29 -118l-2 -9l-461 -1032q-32 -71 -96.5 -118.5t-136.5 -47.5q-119 0 -192 80t-73 186q0 54 33 129l293 664h-274q-125 0 -196 71t-71 195zM100 1292q0 -106 60 -165.5t166 -59.5h336 l-318 -721q-29 -63 -29 -113q0 -90 61.5 -157.5t162.5 -67.5q62 0 115 39.5t81 102.5l457 1024q0 1 8.5 20t11.5 28.5t7 29.5t4 40q0 97 -79 160.5t-177 63.5h-641q-101 0 -163.5 -67t-62.5 -157z" />
<glyph unicode="8" horiz-adv-x="1331" d="M61 563q0 124 60 246q-29 87 -29 192q0 157 76.5 288.5t208 207.5t287.5 76q157 0 288.5 -76t207 -207.5t75.5 -288.5q0 -39 -7.5 -87t-14.5 -76l-7 -29q60 -122 60 -246q0 -116 -50 -226.5t-132 -193t-193 -132.5t-227 -50q-154 0 -294 84t-224.5 224t-84.5 294z M102 563q0 -145 78.5 -275t208.5 -208t275 -78q109 0 212.5 46.5t179.5 123t122.5 180t46.5 211.5q0 116 -64 246q33 100 33 192q0 145 -70.5 267.5t-192.5 193t-267 70.5q-108 0 -206.5 -42t-169.5 -112.5t-113 -169t-42 -207.5q0 -41 8.5 -89t16.5 -76l8 -27 q-64 -122 -64 -246z" />
<glyph unicode="9" horiz-adv-x="1331" d="M39 971q0 116 50 226.5t132.5 193t193 132.5t226.5 50q120 0 224 -42t178.5 -114t128.5 -167t80 -202t26 -217q0 -91 -19 -190t-55 -196t-92.5 -184t-125 -153.5t-159 -105.5t-190.5 -39q-115 0 -217 31t-171 82t-109 117.5t-40 136.5q0 74 20.5 149t63.5 125 q-145 148 -145 367zM80 971q0 -212 162 -367q-50 -50 -75.5 -126t-25.5 -148q0 -130 141.5 -228t354.5 -98q112 0 210.5 52.5t168.5 139t121 195t75.5 221.5t24.5 219q0 131 -39.5 255t-112.5 224t-188.5 161t-255.5 61q-108 0 -211.5 -46.5t-180 -123t-123 -180 t-46.5 -211.5z" />
<glyph unicode=":" horiz-adv-x="626" d="M51 203q0 125 70.5 195.5t195.5 70.5t196 -71t71 -195q0 -236 -267 -236q-266 0 -266 236zM51 780q0 125 71 196t195 71q125 0 196 -71.5t71 -195.5q0 -235 -267 -235q-266 0 -266 235zM92 203q0 -195 225 -195q226 0 226 195q0 106 -60 165.5t-166 59.5t-165.5 -59.5 t-59.5 -165.5zM92 780q0 -194 225 -194q226 0 226 194q0 106 -60 166t-166 60t-165.5 -60t-59.5 -166z" />
<glyph unicode=";" horiz-adv-x="614" d="M51 780q0 125 71 196t195 71q125 0 196 -71.5t71 -195.5q0 -235 -267 -235q-266 0 -266 235zM55 203q0 123 76.5 194.5t202.5 71.5q104 0 176 -72.5t72 -193.5q0 -100 -73.5 -168t-174.5 -68h-86q-48 0 -76 2t-52 12t-35 23t-19 42.5t-9.5 63.5t-1.5 93zM92 780 q0 -194 225 -194q226 0 226 194q0 106 -60 166t-166 60t-165.5 -60t-59.5 -166zM96 203q0 -49 1.5 -77t7.5 -52.5t14.5 -35.5t27.5 -19t41 -9.5t60 -1.5h86q86 0 146.5 56.5t60.5 138.5q0 103 -59.5 164t-147.5 61q-107 0 -172.5 -60.5t-65.5 -164.5z" />
<glyph unicode="&#x3c;" horiz-adv-x="1103" d="M53 762q0 50 24.5 111.5t63.5 99.5l469 452q76 76 183 76q104 0 181 -77t77 -181q0 -47 -22.5 -97t-67 -101.5t-85 -91.5t-101 -96t-91.5 -87l291 -262q76 -68 76 -199q0 -46 -17.5 -94t-49.5 -88.5t-82 -66t-109 -25.5q-107 0 -183 76l-469 473q-88 88 -88 178zM94 768 q0 -38 21 -80t55 -76l469 -473q69 -63 154 -63q97 0 157 73.5t60 159.5q0 111 -64 170l-319 289l319 322q64 64 64 153t-64 153t-153 64q-91 0 -154 -63l-469 -453q-33 -32 -54.5 -82.5t-21.5 -93.5z" />
<glyph unicode="=" horiz-adv-x="1304" d="M33 489q0 99 83.5 182t182.5 83h711q100 0 183 -83t83 -182q0 -119 -80 -192.5t-186 -73.5h-711q-106 0 -186 73.5t-80 192.5zM33 1051q0 98 83 181t183 83h711q100 0 183 -83t83 -181q0 -119 -80 -193t-186 -74h-711q-106 0 -186 74t-80 193zM74 489q0 -101 67.5 -163 t157.5 -62h711q90 0 157.5 62t67.5 163q0 83 -70.5 153.5t-154.5 70.5h-711q-85 0 -155 -70.5t-70 -153.5zM74 1051q0 -101 67.5 -163.5t157.5 -62.5h711q90 0 157.5 62.5t67.5 163.5q0 83 -70 153t-155 70h-711q-85 0 -155 -70t-70 -153z" />
<glyph unicode="&#x3e;" horiz-adv-x="1087" d="M53 309q0 131 76 199l291 262q-26 26 -78 74t-85 79.5t-75.5 78t-67.5 82.5t-43 78.5t-18 80.5q0 104 77 181t181 77t183 -76l469 -452q37 -36 62.5 -97t25.5 -108q0 -96 -88 -184l-469 -473q-76 -76 -183 -76q-59 0 -109 25.5t-82 66t-49.5 88.5t-17.5 94zM94 309 q0 -86 60 -159.5t157 -73.5q85 0 154 63l469 473q34 34 55 76t21 80q0 43 -21.5 93.5t-54.5 82.5l-469 453q-63 63 -154 63q-89 0 -153 -64t-64 -153t64 -153l319 -322l-319 -289q-64 -57 -64 -170z" />
<glyph unicode="?" horiz-adv-x="1167" d="M61 238q0 56 22.5 109t44.5 79l22 25q-89 103 -89 229q0 112 78.5 197.5t204.5 85.5h209v30h-209q-132 0 -207.5 76.5t-75.5 208.5q0 112 78.5 198.5t204.5 86.5h494q126 0 204 -86.5t78 -198.5v-500q0 -196 -69.5 -289.5t-247.5 -93.5h-254q45 -70 45 -149 q0 -127 -69.5 -202t-205.5 -75q-113 0 -185.5 79.5t-72.5 189.5zM102 238q0 -94 60.5 -161t156.5 -67q116 0 175 64.5t59 171.5q0 43 -23 90.5t-46 73.5l-23 26h342q154 0 215 83.5t61 258.5v500q0 97 -66 170.5t-175 73.5h-494q-109 0 -175.5 -73.5t-66.5 -170.5 q0 -114 64 -179t178 -65h250v-112h-250q-109 0 -175.5 -73t-66.5 -169q0 -66 26.5 -120.5t84.5 -115.5q-5 -3 -12 -8t-26.5 -24.5t-34 -41t-26.5 -57.5t-12 -75z" />
<glyph unicode="@" horiz-adv-x="1705" d="M41 758q0 229 111 417t298 293t408 105q152 0 299 -59.5t260.5 -160.5t183.5 -247.5t70 -308.5q0 -69 -14 -141t-46.5 -146t-80 -131.5t-122.5 -94t-165 -36.5q-225 0 -299 137q-92 -43 -168 -43q-83 0 -150 26.5t-109 69.5t-70.5 99.5t-40 113.5t-11.5 115q0 106 42 202 t129 161t200 65q157 0 231 -82q38 55 111 55q19 0 47 -8q-135 98 -297 98q-135 0 -249 -63.5t-181.5 -178t-67.5 -253.5q0 -102 38 -189t111.5 -152.5t190 -102.5t263.5 -37q67 0 114 -47t47 -115q0 -66 -46 -111t-113 -45q-224 0 -401.5 61t-291 168.5t-172.5 251.5 t-59 314zM82 758q0 -161 56.5 -297t165 -238.5t278 -160.5t383.5 -58q49 0 83.5 34t34.5 81q0 50 -35.5 85.5t-84.5 35.5q-158 0 -282 40t-202.5 111t-119 165t-40.5 206q0 151 73.5 275t197 192.5t268.5 68.5q144 0 268.5 -70t199.5 -195.5t75 -276.5q0 -30 -18.5 -81.5 t-58 -99t-85.5 -47.5q-24 0 -41 7t-25.5 16.5t-13 27.5t-5.5 31t-1 35l49 356q-5 125 -94 125q-36 0 -64 -28t-45 -64q-30 49 -88.5 84t-144.5 35q-101 0 -178.5 -59t-114.5 -146t-37 -182q0 -68 18 -131.5t55.5 -122t106.5 -94t160 -35.5q44 0 95.5 18t89.5 45 q68 -157 282 -157q82 0 150 34t111 87t72 121.5t41.5 135t12.5 130.5q0 154 -66.5 292.5t-174.5 234t-247.5 152t-283.5 56.5q-211 0 -388.5 -100t-282.5 -278.5t-105 -395.5zM1194 651q0 -16 0.5 -24.5t2.5 -21.5t6.5 -19.5t13.5 -11.5t22 -5q35 0 64.5 38.5t43 81 t13.5 67.5q0 197 -135 342q18 -40 18 -101z" />
<glyph unicode="A" d="M63 287q0 29 5.5 59t10.5 45l5 15l377 942q19 47 44 83.5t65 70t100.5 51.5t138.5 18q66 0 116.5 -12t81.5 -29t57 -49.5t39.5 -59.5t31.5 -73l376 -942q25 -64 25 -136q0 -56 -18 -104.5t-44 -77t-52 -49.5t-44 -29l-18 -8q-82 -33 -150 -33q-61 0 -114 30t-85.5 72 t-56.5 84.5t-34 72.5l-9 30h-202q-88 -291 -320 -291q-39 0 -78 8.5t-59 17.5l-19 9q-170 100 -170 285zM104 287q0 -26 7 -58t27 -72t50 -72.5t82.5 -54.5t118.5 -22q40 0 76.5 12.5t76.5 43t75 90.5t59 145h270q1 -6 3 -16.5t11.5 -40.5t21.5 -57t34 -60.5t47.5 -57.5 t64 -40.5t82.5 -16.5q54 0 133 29q10 4 22 10.5t37 26.5t44 43.5t34 64t15 86.5q0 65 -20 119q-67 171 -199 499t-178 443q-19 49 -36.5 79t-49.5 61t-82 45t-121 14q-72 0 -126 -15.5t-89.5 -45.5t-57 -62t-38.5 -76l-377 -942q-17 -34 -17 -102z" />
<glyph unicode="B" horiz-adv-x="1523" d="M61 283v944q0 7 1 19.5t8 46t19.5 65t38.5 69t62 65t93.5 46t128.5 18.5h540q70 0 138.5 -16t131.5 -51t111 -85.5t76.5 -124t28.5 -161.5q0 -67 -20.5 -142t-41.5 -117l-20 -42q14 -14 28 -32t37 -57t37.5 -95.5t14.5 -120.5q0 -127 -28 -222.5t-88.5 -166t-162 -107 t-242.5 -36.5h-518q-11 0 -25 0.5t-53.5 6.5t-74 16.5t-77 33t-72.5 53.5t-50.5 81t-20.5 112zM102 283q0 -53 18 -96t45 -70t64 -46.5t68 -29t65.5 -15t48.5 -6t23 -0.5h518q255 0 367.5 126.5t112.5 365.5q0 52 -13.5 101.5t-33 83t-39 60.5t-32.5 39l-14 13q4 5 10.5 15 t23 42t29.5 66t23.5 85t10.5 101q0 79 -26.5 146t-70 112.5t-101.5 77.5t-120.5 47t-126.5 15h-540q-63 0 -114 -16.5t-82.5 -42t-55 -56t-34 -61.5t-17 -56t-7.5 -41v-16v-944z" />
<glyph unicode="C" horiz-adv-x="1546" d="M41 774q0 32 4 71.5t15.5 96t30 113.5t50.5 120.5t72.5 119.5t101 107.5t132 89t168.5 59.5t208 22q189 0 339 -67t236.5 -193t86.5 -291q0 -148 -127 -246q30 -19 56.5 -45t51.5 -80.5t25 -120.5q0 -176 -88.5 -306.5t-238.5 -196.5t-341 -66q-142 0 -260.5 37 t-197.5 95t-140 136.5t-94.5 154.5t-55 156.5t-28 135.5t-6.5 98zM82 774q0 -41 6 -93t26.5 -128.5t52.5 -149t90 -147t132.5 -129.5t186.5 -90t247 -35q179 0 319.5 61t224 182t83.5 285q0 47 -14 87.5t-34 65t-40.5 42t-34.5 24.5l-14 7l-4 35q135 89 135 231 q0 152 -81.5 269t-222 179t-317.5 62q-134 0 -245.5 -34t-186.5 -88t-132.5 -127t-90 -144t-53 -146t-27 -127t-6.5 -92z" />
<glyph unicode="D" horiz-adv-x="1531" d="M61 285v944q0 135 86 231t218 96h399q52 0 102.5 -4.5t126.5 -23t140 -50t132.5 -91.5t116 -140t78.5 -203.5t31 -275.5q0 -148 -29 -269t-74.5 -201t-110.5 -140t-127.5 -92.5t-136 -52.5t-126 -25.5t-105.5 -5.5h-417q-129 0 -216.5 92.5t-87.5 210.5zM102 285 q0 -103 75.5 -184t187.5 -81h409q50 0 98 5t118.5 23t130 48.5t122.5 88t107 133.5t72 192t28 258q0 144 -29 261.5t-74.5 193.5t-110 133t-125 86.5t-132.5 47t-119 22t-96 4.5h-399q-115 0 -189 -83.5t-74 -203.5v-944z" />
<glyph unicode="E" horiz-adv-x="1411" d="M61 281v954q0 7 0.5 18.5t7 44.5t17.5 63.5t35 67.5t57 63.5t86 45t119 18.5h700q115 0 196 -84.5t81 -214.5q0 -74 -42 -136.5t-106 -96.5q68 -33 108 -103.5t40 -150.5q0 -78 -41 -151t-107 -109q64 -34 106 -104.5t42 -147.5q0 -128 -80 -203t-197 -75h-700 q-7 0 -18.5 0.5t-45 6.5t-64 16.5t-67.5 33t-63.5 53t-45 80.5t-18.5 111zM102 281q0 -53 15.5 -96t40.5 -69.5t54.5 -46t59.5 -28.5t55 -14.5t41 -6.5h15h700q101 0 168.5 64t67.5 174q0 77 -55 147t-125 89l2 36q82 17 130 86t48 154q0 84 -46.5 150.5t-123.5 83.5l-2 40 q69 18 120.5 77.5t51.5 135.5q0 112 -69 185.5t-167 73.5h-700q-57 0 -103.5 -15.5t-75 -40.5t-49.5 -54.5t-31 -59.5t-15.5 -55t-6.5 -41v-15v-954z" />
<glyph unicode="F" horiz-adv-x="1302" d="M61 270v961q0 67 18 120.5t46.5 86.5t63.5 57.5t70 35.5t63.5 17.5t46.5 7.5h18h612q113 0 197 -82.5t84 -195.5q0 -103 -61 -174.5t-156 -95.5q58 -34 90.5 -93t32.5 -133q0 -117 -71.5 -197.5t-184.5 -80.5h-262v-234q0 -128 -92.5 -215.5t-210.5 -87.5 q-132 0 -218 85.5t-86 217.5zM102 270q0 -114 74.5 -188t188.5 -74q102 0 182 76t80 186v275h303q95 0 155 68.5t60 168.5q0 82 -47 140t-129 75l4 41q109 0 187.5 65.5t78.5 174.5q0 98 -71.5 168t-168.5 70h-612q-6 0 -16 -0.5t-40 -6t-57 -15.5t-59.5 -31.5t-56.5 -50.5 t-40 -76t-16 -105v-961z" />
<glyph unicode="G" horiz-adv-x="1613" d="M43 776q0 116 23.5 219t65 182.5t99.5 145.5t126 112t144.5 77.5t155 46t158.5 14.5q125 0 230.5 -21t177 -54.5t128 -79.5t89 -92t53.5 -96.5t28 -88.5t7 -72q0 -118 -90 -197q131 -118 131 -237v-223q0 -96 -46 -174t-120.5 -128.5t-174.5 -85t-203 -49t-210 -14.5 q-112 0 -221 30.5t-209 96.5t-176 160t-121 230t-45 298zM84 776q0 -153 43 -282.5t114.5 -218.5t166.5 -152t198 -92t209 -29q101 0 198 13t191.5 44.5t165.5 77t114.5 116.5t43.5 159v223q0 34 -13.5 69.5t-33 61.5t-39.5 47t-34 32l-13 11l2 33q4 2 10 6.5t21.5 21 t27.5 36t21.5 51t9.5 65.5q0 31 -7 66t-27 81t-50.5 88.5t-83.5 85t-120.5 73.5t-166.5 50t-217 19q-107 0 -209 -27.5t-197.5 -87.5t-167 -146.5t-114.5 -214t-43 -280.5z" />
<glyph unicode="H" horiz-adv-x="1509" d="M63 340v854q0 8 0.5 21.5t7 52.5t17.5 74.5t35.5 78.5t58 74t88 52.5t121.5 21.5q82 0 146.5 -25.5t101 -61t62 -83.5t35 -83.5t14.5 -70.5q5 37 15 72.5t37 83.5t64.5 83t103 60t148.5 25q67 0 121 -20.5t87.5 -50.5t58 -72t36.5 -77t18.5 -74t7.5 -54.5t1 -26.5v-854 q0 -8 -0.5 -21.5t-7 -52t-18 -74t-36.5 -78.5t-58 -74t-88 -52t-122 -21q-71 0 -130.5 23t-97 55.5t-66.5 77t-43 78.5t-23 69q-6 -37 -18.5 -72t-40 -79t-65.5 -76t-101.5 -54t-141.5 -22q-67 0 -121.5 20.5t-88 53.5t-58 72.5t-35.5 79.5t-17.5 73t-6.5 54zM104 340 q0 -7 0.5 -19t6 -46.5t15 -66t31 -69.5t51 -65.5t77 -46.5t106.5 -19q68 0 123 19.5t88.5 50.5t58.5 68.5t36 75t18 68.5t7 50l1 20h65v-20t7 -49.5t18 -69.5t36 -74t58.5 -70t88 -49t122.5 -20q59 0 107 18.5t77 47.5t51 64.5t31.5 71t15.5 64.5t6 48l1 18v854q0 8 -0.5 21 t-6.5 47.5t-15.5 66t-31.5 69.5t-51 65.5t-77 46t-107 18.5q-68 0 -122.5 -19.5t-88 -50.5t-58.5 -69t-36 -76t-17.5 -69t-7.5 -50v-20h-65q0 7 -0.5 20t-7.5 49.5t-18 70t-36 74.5t-58.5 70.5t-88.5 49.5t-123 20q-59 0 -106.5 -18.5t-77 -48t-51 -65t-31 -71t-15 -65 t-6.5 -48.5v-18v-854z" />
<glyph unicode="I" horiz-adv-x="821" d="M61 317v902q0 151 100 250.5t251 99.5t250.5 -99.5t99.5 -250.5v-902q0 -151 -99.5 -250.5t-250.5 -99.5t-251 99.5t-100 250.5zM102 317q0 -132 89 -220.5t221 -88.5t220.5 88.5t88.5 220.5v902q0 132 -88.5 220.5t-220.5 88.5t-221 -88.5t-89 -220.5v-902z" />
<glyph unicode="J" horiz-adv-x="1286" d="M51 547q0 116 86 197t217 81q158 0 238 -96v512q0 134 89 231t220 97t226.5 -92.5t95.5 -210.5v-719q0 -108 -30.5 -201.5t-85 -163.5t-128 -120t-161 -75.5t-181.5 -25.5q-271 0 -428.5 162.5t-157.5 423.5zM92 547q0 -242 146.5 -393.5t398.5 -151.5q111 0 209.5 37.5 t173.5 106t118.5 172.5t43.5 229v719q0 102 -83.5 182t-197.5 80t-191 -84t-77 -203v-586l-35 -8q-70 137 -244 137q-114 0 -188 -68.5t-74 -168.5z" />
<glyph unicode="K" horiz-adv-x="1413" d="M61 326v919q0 87 38 167t109 131.5t157 51.5q105 0 193 -74t108 -186l155 135q129 115 246 115t207 -90t90 -207q0 -121 -115 -246l-245 -268l245 -246q115 -115 115 -258q0 -122 -87.5 -211.5t-207.5 -89.5q-141 0 -248 107l-155 137q-17 -104 -105 -171t-196 -67 q-133 0 -218.5 99.5t-85.5 251.5zM102 326q0 -133 74 -221.5t189 -88.5q102 0 182 81.5t80 203.5l223 -197q44 -44 102 -69t117 -25q104 0 179 77t75 183q0 128 -102 230l-273 274l273 297q102 114 102 217q0 101 -77.5 178.5t-178.5 77.5q-98 0 -217 -104l-223 -195 q0 134 -79.5 221.5t-182.5 87.5q-112 0 -187.5 -94.5t-75.5 -214.5v-919z" />
<glyph unicode="L" horiz-adv-x="1300" d="M61 260v1028q0 114 95.5 197.5t212.5 83.5q137 0 220 -86.5t83 -216.5v-703h305q116 0 197 -86.5t81 -216.5q0 -128 -80 -204t-198 -76h-637q-114 0 -196.5 83t-82.5 197zM102 260q0 -98 70 -169t168 -71h637q102 0 169.5 64.5t67.5 175.5q0 113 -69 187.5t-168 74.5 h-346v762q0 102 -73.5 173t-188.5 71q-101 0 -184 -72t-83 -168v-1028z" />
<glyph unicode="M" horiz-adv-x="1648" d="M61 246v925q0 168 115 283t283 115q113 0 214.5 -62.5t143.5 -154.5q47 99 145 158t228 59q168 0 282.5 -114.5t114.5 -283.5v-925q0 -116 -86.5 -197.5t-216.5 -81.5q-67 0 -131 28.5t-104 74.5q-39 -47 -99.5 -75t-126.5 -28t-125 28t-98 75q-40 -46 -104 -74.5 t-131 -28.5q-130 0 -217 81.5t-87 197.5zM102 246q0 -99 75 -168.5t188 -69.5q66 0 130.5 36.5t104.5 96.5q41 -61 99.5 -97t123.5 -36t125.5 36t100.5 97q40 -60 104.5 -96.5t130.5 -36.5q113 0 187.5 69.5t74.5 168.5v925q0 151 -103 254t-253 103q-129 0 -227.5 -72.5 t-133.5 -179.5h-34q-17 103 -117 177.5t-219 74.5q-150 0 -253.5 -103.5t-103.5 -253.5v-925z" />
<glyph unicode="N" horiz-adv-x="1460" d="M61 246v1044q0 112 94 195.5t210 83.5q73 0 142 -34.5t109 -90.5l177 -252v74q0 134 84.5 218.5t218.5 84.5q132 0 217.5 -85t85.5 -218v-1016q0 -118 -86 -200.5t-217 -82.5q-72 0 -143.5 36t-108.5 91q-38 56 -176 271v-119q0 -112 -93.5 -195.5t-209.5 -83.5 q-130 0 -217 81.5t-87 197.5zM102 246q0 -99 75 -168.5t188 -69.5q101 0 181.5 71t80.5 167v256l250 -387q30 -49 91 -78t128 -29q114 0 188 70.5t74 171.5v1016q0 115 -74 188.5t-188 73.5q-116 0 -189 -73t-73 -189v-209l-250 362q-34 48 -94.5 78.5t-124.5 30.5 q-101 0 -182 -71t-81 -167v-1044z" />
<glyph unicode="O" horiz-adv-x="1714" d="M41 758q0 229 111 417t298 293t408 105q164 0 314 -62t261.5 -169t177.5 -259.5t66 -324.5q0 -165 -66 -313t-177 -253.5t-262 -167t-314 -61.5q-165 0 -315.5 61.5t-260.5 167t-175.5 253.5t-65.5 313zM82 758q0 -156 61.5 -296t166 -240.5t248 -159t300.5 -58.5 q156 0 299 58.5t248.5 158.5t168 240.5t62.5 296.5q0 163 -62.5 307.5t-168 246.5t-248.5 161t-299 59q-211 0 -388.5 -100t-282.5 -278.5t-105 -395.5z" />
<glyph unicode="P" horiz-adv-x="1400" d="M61 270v983q0 132 85.5 217.5t218.5 85.5h423q116 0 221 -43t179.5 -115.5t118 -172t43.5 -207.5q0 -120 -36.5 -222.5t-106 -178.5t-177.5 -119t-242 -43h-98v-185q0 -130 -96 -216.5t-229 -86.5q-118 0 -211 87.5t-93 215.5zM102 270q0 -110 80.5 -186t182.5 -76 q117 0 200.5 75t83.5 187v226h139q124 0 223.5 40t164 110.5t99 165.5t34.5 206q0 205 -151.5 351.5t-369.5 146.5h-423q-115 0 -189 -74.5t-74 -188.5v-983z" />
<glyph unicode="Q" horiz-adv-x="1722" d="M41 758q0 172 65.5 324.5t176.5 259.5t261.5 169t315.5 62q173 0 324.5 -62t259.5 -169.5t170.5 -259t62.5 -324.5q0 -118 -19.5 -208t-72.5 -175q117 -81 117 -221q0 -117 -86 -203t-203 -86q-79 0 -143 36.5t-86 104.5q-202 -43 -324 -43q-165 0 -316 61.5t-261.5 167 t-176 253.5t-65.5 313zM82 758q0 -156 62 -296t167 -240.5t248.5 -159t300.5 -58.5q138 0 354 51q17 -70 73 -109.5t126 -39.5q101 0 174.5 73.5t73.5 174.5q0 129 -129 208q104 165 104 396q0 164 -59.5 308t-162.5 246t-247 161t-307 59q-211 0 -389 -100t-283.5 -278.5 t-105.5 -395.5z" />
<glyph unicode="R" horiz-adv-x="1480" d="M61 270v961q0 7 0.5 18.5t7 45.5t18 64.5t36 68t57.5 64.5t86.5 45.5t120.5 18.5h496q31 0 66 -3t90 -15t104 -32.5t101.5 -58.5t90 -89t62 -129t24.5 -174q0 -68 -16.5 -133t-39.5 -109t-46.5 -78.5t-40.5 -50.5l-16 -16l149 -254q33 -60 33 -144q0 -132 -92.5 -217.5 t-233.5 -85.5q-64 0 -119 29t-86 74l-198 299v-99q0 -116 -99 -209.5t-229 -93.5q-129 0 -227.5 93.5t-98.5 209.5zM102 270q0 -100 85.5 -181t199.5 -81q115 0 201 81t86 181v234l272 -410q26 -38 71.5 -62t100.5 -24q123 0 204 74t81 188q0 67 -29 123l-166 285 q7 5 18.5 15t41 45t52.5 75.5t41.5 105.5t18.5 136q0 88 -22.5 160t-57.5 119t-83.5 82t-94 53.5t-96 29.5t-82.5 14t-61 3h-496q-58 0 -105 -15.5t-76 -41t-50.5 -55.5t-31.5 -60.5t-15.5 -56t-6.5 -41.5v-15v-961z" />
<glyph unicode="S" horiz-adv-x="1419" d="M33 479q0 92 34.5 175.5t100.5 140.5q-111 155 -111 282q0 132 88 247t235.5 182t315.5 67q170 0 318 -67t235.5 -182t87.5 -247q0 -144 -110 -264q159 -169 159 -334q0 -146 -89.5 -265t-247.5 -186t-353 -67q-183 0 -334.5 67t-240 186t-88.5 265zM74 479 q0 -133 83.5 -243t226 -172t312.5 -62q183 0 332 62t233.5 171.5t84.5 243.5q0 153 -177 334q58 58 92.5 128t34.5 136q0 123 -81.5 228t-220 166t-298.5 61q-159 0 -296.5 -61t-219.5 -166t-82 -228q0 -119 127 -291q-74 -57 -112.5 -137.5t-38.5 -169.5z" />
<glyph unicode="T" horiz-adv-x="1495" d="M41 1253q0 119 87 211t216 92h801q114 0 208.5 -94.5t94.5 -208.5q0 -128 -92.5 -215.5t-210.5 -87.5h-98v-680q0 -132 -85.5 -217.5t-218.5 -85.5t-229 86.5t-96 216.5v680h-74q-133 0 -218 85.5t-85 217.5zM82 1253q0 -114 73.5 -188t188.5 -74h115v-721 q0 -112 83.5 -187t200.5 -75q115 0 189 74t74 188v721h139q102 0 182 75.5t80 186.5q0 98 -82 180.5t-180 82.5h-801q-112 0 -187 -80.5t-75 -182.5z" />
<glyph unicode="U" horiz-adv-x="1482" d="M61 641v578q0 148 97 249t231 101q128 0 222 -73.5t120 -192.5q30 117 128 191.5t212 74.5q151 0 250.5 -99.5t99.5 -250.5v-578q0 -190 -93.5 -347t-249.5 -245t-337 -88q-192 0 -347.5 88.5t-244 244t-88.5 347.5zM102 641q0 -135 49 -253.5t133.5 -203t203 -133.5 t253.5 -49q127 0 244.5 49t204.5 133t138.5 203.5t51.5 253.5v578q0 132 -88.5 220.5t-220.5 88.5q-119 0 -214 -96.5t-95 -233.5h-64q0 141 -88.5 235.5t-220.5 94.5q-118 0 -202.5 -89t-84.5 -220v-578z" />
<glyph unicode="V" horiz-adv-x="1513" d="M51 1260q0 117 94 210t224 93q99 0 188.5 -56t114.5 -147q6 -21 84 -326q16 60 43.5 170l38.5 154q25 96 112.5 150.5t192.5 54.5q130 0 223.5 -93t93.5 -210q0 -62 -16 -101l-359 -975q-36 -97 -121.5 -157t-209.5 -60q-122 0 -205 58t-119 153q-11 16 -362 979 q-17 44 -17 103zM92 1260q0 -54 12 -89l117 -323q143 -392 238 -643q33 -88 109 -142.5t186 -54.5q111 0 187.5 52.5t107.5 138.5l358 972q12 37 12 89q0 101 -81.5 181.5t-194.5 80.5q-92 0 -166.5 -46.5t-95.5 -127.5l-107 -412h-37l-106 412q-21 80 -97.5 127t-164.5 47 q-113 0 -195 -80.5t-82 -181.5z" />
<glyph unicode="W" horiz-adv-x="1886" d="M12 1280q0 113 104.5 201t227.5 88q94 0 171 -54t112 -135q39 87 127.5 138t189.5 51t191 -51t129 -138q35 81 111.5 135t170.5 54q123 0 227.5 -88t104.5 -201q0 -40 -14 -82l-228 -932q-32 -129 -128 -214t-222 -85q-110 0 -197.5 79.5t-125.5 193.5l-17 49l-18 -49 q-43 -115 -129.5 -194t-194.5 -79q-124 0 -220.5 85.5t-129.5 213.5q-42 164 -117.5 479.5t-109.5 450.5q-15 52 -15 84zM53 1280q0 -22 15 -74l227 -932q29 -117 112 -191.5t197 -74.5q94 0 173.5 72t111.5 172l53 166l57 -166q34 -102 112.5 -173t174.5 -71 q114 0 197 74.5t112 191.5l228 932q14 49 14 74q0 97 -92 172.5t-199 75.5q-95 0 -171.5 -68.5t-92.5 -156.5h-37q-17 98 -107 161.5t-194 63.5t-193 -63.5t-106 -161.5h-37q-16 88 -92.5 156.5t-171.5 68.5q-107 0 -199 -75.5t-92 -172.5z" />
<glyph unicode="X" horiz-adv-x="1370" d="M57 270q0 74 49 152l230 373l-227 342q-52 79 -52 153q0 116 86.5 197.5t216.5 81.5q141 0 230 -125l100 -141l98 141q39 57 98.5 91t131.5 34q130 0 216.5 -81.5t86.5 -197.5q0 -72 -51 -151l-228 -346l230 -371q49 -78 49 -152q0 -130 -82.5 -216.5t-198.5 -86.5 q-75 0 -149 36t-105 93l-98 174l-96 -174q-33 -60 -104.5 -94.5t-149.5 -34.5q-116 0 -198.5 86.5t-82.5 216.5zM98 270q0 -112 70 -187t170 -75q67 0 128 29t89 80q19 35 67 121.5t66 121.5l135 -243q28 -51 89 -80t128 -29q100 0 170 75t70 187q0 57 -45 131l-242 390 l244 368q43 62 43 131q0 99 -74.5 168.5t-187.5 69.5q-119 0 -197 -109l-133 -190l-131 190q-34 49 -85 79t-112 30q-113 0 -187.5 -69.5t-74.5 -168.5q0 -69 43 -131l244 -368l-242 -390q-45 -72 -45 -131z" />
<glyph unicode="Y" horiz-adv-x="1458" d="M51 1235q0 136 86.5 235t216.5 99q155 0 226 -84q28 -30 75.5 -86.5t75.5 -87.5l174 174q78 78 203 78q130 0 216.5 -96.5t86.5 -231.5q0 -81 -51 -154l-303 -442v-346q0 -131 -97.5 -228.5t-228.5 -97.5q-132 0 -230 97.5t-98 228.5v348q-38 54 -142.5 196.5 t-158.5 221.5q-23 31 -37 84t-14 92zM92 1235q0 -38 11.5 -81t31.5 -71l309 -430v-360q0 -116 85 -200.5t202 -84.5q115 0 200 85t85 200v360l311 453q43 64 43 129q0 119 -75 203t-187 84q-108 0 -174 -66l-203 -203l-182 203q-66 72 -195 72q-113 0 -187.5 -86.5 t-74.5 -206.5z" />
<glyph unicode="Z" horiz-adv-x="1562" d="M61 305q0 111 76 201l395 467h-96q-131 0 -217 82t-86 198q0 130 81.5 216.5t197.5 86.5h731q131 0 217 -93t86 -228q0 -78 -16 -133t-66 -113l-367 -428h240q114 0 196.5 -82t82.5 -196q0 -133 -85 -218t-219 -85h-823q-132 0 -230 97t-98 228zM102 305 q0 -116 85 -200.5t202 -84.5h823q116 0 189.5 74t73.5 189q0 98 -70 167.5t-168 69.5h-328l422 494q44 52 59 101.5t15 119.5q0 117 -74.5 199t-187.5 82h-731q-99 0 -168.5 -75t-69.5 -188q0 -100 74 -169.5t188 -69.5h187l-453 -533q-30 -35 -49 -82.5t-19 -93.5z" />
<glyph unicode="[" horiz-adv-x="741" d="M41 205v1126q0 103 68.5 184.5t166.5 81.5h152q119 0 192.5 -80t73.5 -186q0 -73 -42 -137.5t-111 -91.5v-670q69 -27 111 -91t42 -136q0 -106 -73.5 -186t-192.5 -80h-152q-98 0 -166.5 81.5t-68.5 184.5zM82 205q0 -88 56.5 -156.5t137.5 -68.5h152q101 0 163 67.5 t62 157.5q0 63 -42.5 119t-110.5 79v727q68 23 110.5 80t42.5 121q0 90 -62 157.5t-163 67.5h-152q-81 0 -137.5 -68.5t-56.5 -156.5v-1126z" />
<glyph unicode="\" horiz-adv-x="1044" d="M8 1206q0 112 60.5 186t185.5 74q77 0 142 -43t104 -116l504 -949q26 -50 26 -116q0 -116 -70 -195.5t-174 -79.5q-77 0 -148 35t-99 92l-496 967q-35 68 -35 145zM49 1206q0 -61 31 -125l495 -966q24 -48 84 -77.5t127 -29.5q86 0 144.5 68.5t58.5 165.5q0 53 -22 96 l-504 950q-34 64 -88.5 100.5t-120.5 36.5q-105 0 -155 -62t-50 -157z" />
<glyph unicode="]" horiz-adv-x="722" d="M33 205q0 72 42 136t111 91v670q-69 27 -111 91.5t-42 137.5q0 106 73.5 186t192.5 80h152q98 0 166.5 -81.5t68.5 -184.5v-1126q0 -103 -68.5 -184.5t-166.5 -81.5h-152q-119 0 -192.5 80t-73.5 186zM74 205q0 -90 62 -157.5t163 -67.5h152q81 0 137.5 68.5t56.5 156.5 v1126q0 88 -56.5 156.5t-137.5 68.5h-152q-101 0 -163 -67.5t-62 -157.5q0 -64 42.5 -121t110.5 -80v-727q-68 -23 -110.5 -79t-42.5 -119z" />
<glyph unicode="^" horiz-adv-x="1075" d="M23 723q0 45 10 68l280 628q30 66 93 108t129 42q79 0 136 -40.5t87 -105.5q46 -104 141 -316t141 -316q11 -25 11 -68q0 -79 -63 -142t-150 -63q-45 0 -82.5 17t-62 40.5t-49.5 65t-38.5 72.5t-35 83t-33.5 78l-99 -221q-28 -61 -83.5 -98t-118.5 -37q-88 0 -150.5 63 t-62.5 142zM63 723q0 -63 51.5 -113.5t121.5 -50.5q53 0 97.5 30t67.5 81l136 301l135 -301q24 -52 67 -81.5t99 -29.5q69 0 120.5 50.5t51.5 113.5q0 33 -6 51q-46 105 -141.5 317t-141.5 316q-54 121 -186 121q-55 0 -107.5 -35.5t-77.5 -89.5l-280 -629q-7 -21 -7 -51z " />
<glyph unicode="_" horiz-adv-x="1331" d="M-41 -162h1413v-112h-1413v112z" />
<glyph unicode="`" horiz-adv-x="802" d="M33 1892q0 63 50.5 111.5t123.5 48.5q29 0 47 -10l414 -150q47 -17 76.5 -62.5t29.5 -98.5q0 -74 -54.5 -114t-107.5 -40q-28 0 -55 12l-414 150q-46 20 -78 61t-32 92zM74 1892q0 -41 23.5 -72t58.5 -44l413 -150q28 -8 43 -8q41 0 81 29t40 84q0 42 -21.5 77t-56.5 47 l-422 152q-12 4 -26 4q-56 0 -94.5 -36t-38.5 -83z" />
<glyph unicode="a" d="M63 287q0 29 5.5 59t10.5 45l5 15l377 942q19 47 44 83.5t65 70t100.5 51.5t138.5 18q66 0 116.5 -12t81.5 -29t57 -49.5t39.5 -59.5t31.5 -73l376 -942q25 -64 25 -136q0 -56 -18 -104.5t-44 -77t-52 -49.5t-44 -29l-18 -8q-82 -33 -150 -33q-61 0 -114 30t-85.5 72 t-56.5 84.5t-34 72.5l-9 30h-202q-88 -291 -320 -291q-39 0 -78 8.5t-59 17.5l-19 9q-170 100 -170 285zM104 287q0 -26 7 -58t27 -72t50 -72.5t82.5 -54.5t118.5 -22q40 0 76.5 12.5t76.5 43t75 90.5t59 145h270q1 -6 3 -16.5t11.5 -40.5t21.5 -57t34 -60.5t47.5 -57.5 t64 -40.5t82.5 -16.5q54 0 133 29q10 4 22 10.5t37 26.5t44 43.5t34 64t15 86.5q0 65 -20 119q-67 171 -199 499t-178 443q-19 49 -36.5 79t-49.5 61t-82 45t-121 14q-72 0 -126 -15.5t-89.5 -45.5t-57 -62t-38.5 -76l-377 -942q-17 -34 -17 -102z" />
<glyph unicode="b" horiz-adv-x="1523" d="M61 283v944q0 7 1 19.5t8 46t19.5 65t38.5 69t62 65t93.5 46t128.5 18.5h540q70 0 138.5 -16t131.5 -51t111 -85.5t76.5 -124t28.5 -161.5q0 -67 -20.5 -142t-41.5 -117l-20 -42q14 -14 28 -32t37 -57t37.5 -95.5t14.5 -120.5q0 -127 -28 -222.5t-88.5 -166t-162 -107 t-242.5 -36.5h-518q-11 0 -25 0.5t-53.5 6.5t-74 16.5t-77 33t-72.5 53.5t-50.5 81t-20.5 112zM102 283q0 -53 18 -96t45 -70t64 -46.5t68 -29t65.5 -15t48.5 -6t23 -0.5h518q255 0 367.5 126.5t112.5 365.5q0 52 -13.5 101.5t-33 83t-39 60.5t-32.5 39l-14 13q4 5 10.5 15 t23 42t29.5 66t23.5 85t10.5 101q0 79 -26.5 146t-70 112.5t-101.5 77.5t-120.5 47t-126.5 15h-540q-63 0 -114 -16.5t-82.5 -42t-55 -56t-34 -61.5t-17 -56t-7.5 -41v-16v-944z" />
<glyph unicode="c" horiz-adv-x="1546" d="M41 774q0 32 4 71.5t15.5 96t30 113.5t50.5 120.5t72.5 119.5t101 107.5t132 89t168.5 59.5t208 22q189 0 339 -67t236.5 -193t86.5 -291q0 -148 -127 -246q30 -19 56.5 -45t51.5 -80.5t25 -120.5q0 -176 -88.5 -306.5t-238.5 -196.5t-341 -66q-142 0 -260.5 37 t-197.5 95t-140 136.5t-94.5 154.5t-55 156.5t-28 135.5t-6.5 98zM82 774q0 -41 6 -93t26.5 -128.5t52.5 -149t90 -147t132.5 -129.5t186.5 -90t247 -35q179 0 319.5 61t224 182t83.5 285q0 47 -14 87.5t-34 65t-40.5 42t-34.5 24.5l-14 7l-4 35q135 89 135 231 q0 152 -81.5 269t-222 179t-317.5 62q-134 0 -245.5 -34t-186.5 -88t-132.5 -127t-90 -144t-53 -146t-27 -127t-6.5 -92z" />
<glyph unicode="d" horiz-adv-x="1531" d="M61 285v944q0 135 86 231t218 96h399q52 0 102.5 -4.5t126.5 -23t140 -50t132.5 -91.5t116 -140t78.5 -203.5t31 -275.5q0 -147 -29 -268t-74.5 -201t-110.5 -140t-128 -93t-136.5 -53t-125.5 -25.5t-105 -5.5h-417q-129 0 -216.5 92.5t-87.5 210.5zM102 285 q0 -103 75.5 -184t187.5 -81h409q49 0 97.5 5t118.5 23.5t130 49t123 87.5t107 133t72 192t28 258q0 144 -29 261.5t-74.5 193.5t-110 133t-125 86.5t-132.5 47t-119 22t-96 4.5h-399q-115 0 -189 -83.5t-74 -203.5v-944z" />
<glyph unicode="e" horiz-adv-x="1411" d="M61 281v954q0 7 0.5 18.5t7 44.5t17.5 63.5t35 67.5t57 63.5t86 45t119 18.5h700q115 0 196 -84.5t81 -214.5q0 -74 -42 -136.5t-106 -96.5q68 -33 108 -103.5t40 -150.5q0 -78 -41 -151t-107 -109q64 -34 106 -104.5t42 -147.5q0 -128 -80 -203t-197 -75h-700 q-7 0 -18.5 0.5t-45 6.5t-64 16.5t-67.5 33t-63.5 53t-45 80.5t-18.5 111zM102 281q0 -53 15.5 -96t40.5 -69.5t54.5 -46t59.5 -28.5t55 -14.5t41 -6.5h15h700q101 0 168.5 64t67.5 174q0 77 -55 147t-125 89l2 36q82 17 130 86t48 154q0 84 -46.5 150.5t-123.5 83.5l-2 40 q69 18 120.5 77.5t51.5 135.5q0 112 -69 185.5t-167 73.5h-700q-57 0 -103.5 -15.5t-75 -40.5t-49.5 -54.5t-31 -59.5t-15.5 -55t-6.5 -41v-15v-954z" />
<glyph unicode="f" horiz-adv-x="1320" d="M61 270v961q0 67 18 120.5t46.5 86.5t63.5 57.5t70 35.5t63.5 17.5t46.5 7.5h18h612q113 0 197 -82.5t84 -195.5q0 -103 -61 -174.5t-156 -95.5q58 -34 90.5 -93t32.5 -133q0 -117 -71.5 -197.5t-184.5 -80.5h-262v-234q0 -128 -92.5 -215.5t-210.5 -87.5 q-132 0 -218 85.5t-86 217.5zM102 270q0 -114 74.5 -188t188.5 -74q102 0 182 76t80 186v275h303q95 0 155 68.5t60 168.5q0 82 -47 140t-129 75l4 41q109 0 187.5 65.5t78.5 174.5q0 98 -71.5 168t-168.5 70h-612q-6 0 -16 -0.5t-40 -6t-57 -15.5t-59.5 -31.5t-56.5 -50.5 t-40 -76t-16 -105v-961z" />
<glyph unicode="g" horiz-adv-x="1613" d="M43 776q0 116 23.5 219t65 182.5t99.5 145.5t126 112t144.5 77.5t155 46t158.5 14.5q125 0 230.5 -21t177 -54.5t128 -79.5t89 -92t53.5 -96.5t28 -88.5t7 -72q0 -118 -90 -197q131 -118 131 -237v-223q0 -96 -46 -174t-120.5 -128.5t-174.5 -85t-203 -49t-210 -14.5 q-112 0 -221 30.5t-209 96.5t-176 160t-121 230t-45 298zM84 776q0 -153 43 -282.5t114.5 -218.5t166.5 -152t198 -92t209 -29q101 0 198 13t191.5 44.5t165.5 77t114.5 116.5t43.5 159v223q0 34 -13.5 69.5t-33 61.5t-39.5 47t-34 32l-13 11l2 33q4 2 10 6.5t21.5 21 t27.5 36t21.5 51t9.5 65.5q0 31 -7 66t-27 81t-50.5 88.5t-83.5 85t-120.5 73.5t-166.5 50t-217 19q-107 0 -209 -27.5t-197.5 -87.5t-167 -146.5t-114.5 -214t-43 -280.5z" />
<glyph unicode="h" horiz-adv-x="1509" d="M63 340v854q0 8 0.5 21.5t7 52.5t17.5 74.5t35.5 78.5t58 74t88 52.5t121.5 21.5q82 0 146.5 -25.5t101 -61t62 -83.5t35 -83.5t14.5 -70.5q5 37 15 72.5t37 83.5t64.5 83t103 60t148.5 25q67 0 121 -20.5t87.5 -50.5t58 -72t36.5 -77t18.5 -74t7.5 -54.5t1 -26.5v-854 q0 -8 -0.5 -21.5t-7 -52t-18 -74t-36.5 -78.5t-58 -74t-88 -52t-122 -21q-71 0 -130.5 23t-97 55.5t-66.5 77t-43 78.5t-23 69q-6 -37 -18.5 -72t-40 -79t-65.5 -76t-101.5 -54t-141.5 -22q-67 0 -121.5 20.5t-88 53.5t-58 72.5t-35.5 79.5t-17.5 73t-6.5 54zM104 340 q0 -7 0.5 -19t6 -46.5t15 -66t31 -69.5t51 -65.5t77 -46.5t106.5 -19q68 0 123 19.5t88.5 50.5t58.5 68.5t36 75t18 68.5t7 50l1 20h65v-20t7 -49.5t18 -69.5t36 -74t58.5 -70t88 -49t122.5 -20q59 0 107 18.5t77 47.5t51 64.5t31.5 71t15.5 64.5t6 48l1 18v854q0 8 -0.5 21 t-6.5 47.5t-15.5 66t-31.5 69.5t-51 65.5t-77 46t-107 18.5q-68 0 -122.5 -19.5t-88 -50.5t-58.5 -69t-36 -76t-17.5 -69t-7.5 -50v-20h-65q0 7 -0.5 20t-7.5 49.5t-18 70t-36 74.5t-58.5 70.5t-88.5 49.5t-123 20q-59 0 -106.5 -18.5t-77 -48t-51 -65t-31 -71t-15 -65 t-6.5 -48.5v-18v-854z" />
<glyph unicode="i" horiz-adv-x="821" d="M61 317v902q0 151 100 250.5t251 99.5t250.5 -99.5t99.5 -250.5v-902q0 -151 -99.5 -250.5t-250.5 -99.5t-251 99.5t-100 250.5zM102 317q0 -132 89 -220.5t221 -88.5t220.5 88.5t88.5 220.5v902q0 132 -88.5 220.5t-220.5 88.5t-221 -88.5t-89 -220.5v-902z" />
<glyph unicode="j" horiz-adv-x="1286" d="M51 547q0 116 86 197t217 81q158 0 238 -96v512q0 134 89 231t220 97t226.5 -92.5t95.5 -210.5v-719q0 -108 -30.5 -201.5t-85 -163.5t-128 -120t-161 -75.5t-181.5 -25.5q-271 0 -428.5 162.5t-157.5 423.5zM92 547q0 -242 146.5 -393.5t398.5 -151.5q111 0 209.5 37.5 t173.5 106t118.5 172.5t43.5 229v719q0 102 -83.5 182t-197.5 80t-191 -84t-77 -203v-586l-35 -8q-70 137 -244 137q-114 0 -188 -68.5t-74 -168.5z" />
<glyph unicode="k" horiz-adv-x="1413" d="M61 326v919q0 87 38 167t109 131.5t157 51.5q105 0 193 -74t108 -186l155 135q129 115 246 115t207 -90t90 -207q0 -121 -115 -246l-245 -268l245 -246q115 -115 115 -258q0 -122 -87.5 -211.5t-207.5 -89.5q-141 0 -248 107l-155 137q-17 -104 -105 -171t-196 -67 q-133 0 -218.5 99.5t-85.5 251.5zM102 326q0 -133 74 -221.5t189 -88.5q102 0 182 81.5t80 203.5l223 -197q44 -44 102 -69t117 -25q104 0 179 77t75 183q0 128 -102 230l-273 274l273 297q102 114 102 217q0 101 -77.5 178.5t-178.5 77.5q-98 0 -217 -104l-223 -195 q0 134 -79.5 221.5t-182.5 87.5q-112 0 -187.5 -94.5t-75.5 -214.5v-919z" />
<glyph unicode="l" horiz-adv-x="1300" d="M61 260v1028q0 114 95.5 197.5t212.5 83.5q137 0 220 -86.5t83 -216.5v-703h305q116 0 197 -86.5t81 -216.5q0 -128 -80 -204t-198 -76h-637q-114 0 -196.5 83t-82.5 197zM102 260q0 -98 70 -169t168 -71h637q102 0 169.5 64.5t67.5 175.5q0 113 -69 187.5t-168 74.5 h-346v762q0 102 -73.5 173t-188.5 71q-101 0 -184 -72t-83 -168v-1028z" />
<glyph unicode="m" horiz-adv-x="1648" d="M61 246v925q0 168 115 283t283 115q113 0 214.5 -62.5t143.5 -154.5q47 99 145 158t228 59q168 0 282.5 -114.5t114.5 -283.5v-925q0 -116 -86.5 -197.5t-216.5 -81.5q-67 0 -131 28.5t-104 74.5q-39 -47 -99.5 -75t-126.5 -28t-125 28t-98 75q-40 -46 -104 -74.5 t-131 -28.5q-130 0 -217 81.5t-87 197.5zM102 246q0 -99 75 -168.5t188 -69.5q66 0 130.5 36.5t104.5 96.5q41 -61 99.5 -97t123.5 -36t125.5 36t100.5 97q40 -60 104.5 -96.5t130.5 -36.5q113 0 187.5 69.5t74.5 168.5v925q0 151 -103 254t-253 103q-129 0 -227.5 -72.5 t-133.5 -179.5h-34q-17 103 -117 177.5t-219 74.5q-150 0 -253.5 -103.5t-103.5 -253.5v-925z" />
<glyph unicode="n" horiz-adv-x="1460" d="M61 246v1044q0 112 94 195.5t210 83.5q73 0 142 -34.5t109 -90.5l177 -252v74q0 134 84.5 218.5t218.5 84.5q132 0 217.5 -85t85.5 -218v-1016q0 -118 -86 -200.5t-217 -82.5q-72 0 -143.5 36t-108.5 91q-38 56 -176 271v-119q0 -112 -93.5 -195.5t-209.5 -83.5 q-130 0 -217 81.5t-87 197.5zM102 246q0 -99 75 -168.5t188 -69.5q101 0 181.5 71t80.5 167v256l250 -387q30 -49 91 -78t128 -29q114 0 188 70.5t74 171.5v1016q0 115 -74 188.5t-188 73.5q-116 0 -189 -73t-73 -189v-209l-250 362q-34 48 -94.5 78.5t-124.5 30.5 q-101 0 -182 -71t-81 -167v-1044z" />
<glyph unicode="o" horiz-adv-x="1714" d="M41 758q0 229 111 417t298 293t408 105q164 0 314 -62t261.5 -169t177.5 -259.5t66 -324.5q0 -165 -66 -313t-177 -253.5t-262 -167t-314 -61.5q-165 0 -315.5 61.5t-260.5 167t-175.5 253.5t-65.5 313zM82 758q0 -156 61.5 -296t166 -240.5t248 -159t300.5 -58.5 q156 0 299 58.5t248.5 158.5t168 240.5t62.5 296.5q0 163 -62.5 307.5t-168 246.5t-248.5 161t-299 59q-211 0 -388.5 -100t-282.5 -278.5t-105 -395.5z" />
<glyph unicode="p" horiz-adv-x="1400" d="M61 270v983q0 132 85.5 217.5t218.5 85.5h423q116 0 221 -43t179.5 -115.5t118 -172t43.5 -207.5q0 -120 -36.5 -222.5t-106 -178.5t-177.5 -119t-242 -43h-98v-185q0 -130 -96 -216.5t-229 -86.5q-118 0 -211 87.5t-93 215.5zM102 270q0 -110 80.5 -186t182.5 -76 q117 0 200.5 75t83.5 187v226h139q124 0 223.5 40t164 110.5t99 165.5t34.5 206q0 205 -151.5 351.5t-369.5 146.5h-423q-115 0 -189 -74.5t-74 -188.5v-983z" />
<glyph unicode="q" horiz-adv-x="1722" d="M41 758q0 172 65.5 324.5t176.5 259.5t261.5 169t315.5 62q173 0 324.5 -62t259.5 -169.5t170.5 -259t62.5 -324.5q0 -118 -19.5 -208t-72.5 -175q117 -81 117 -221q0 -117 -86 -203t-203 -86q-79 0 -143 36.5t-86 104.5q-202 -43 -324 -43q-165 0 -316 61.5t-261.5 167 t-176 253.5t-65.5 313zM82 758q0 -156 62 -296t167 -240.5t248.5 -159t300.5 -58.5q138 0 354 51q17 -70 73 -109.5t126 -39.5q101 0 174.5 73.5t73.5 174.5q0 129 -129 208q104 165 104 396q0 164 -59.5 308t-162.5 246t-247 161t-307 59q-211 0 -389 -100t-283.5 -278.5 t-105.5 -395.5z" />
<glyph unicode="r" horiz-adv-x="1705" d="M61 270v961q0 7 0.5 18.5t7 45.5t18 64.5t36 68t57.5 64.5t86.5 45.5t120.5 18.5h496q31 0 66 -3t90 -15t104 -32.5t101.5 -58.5t90 -89t62 -129t24.5 -174q0 -68 -16.5 -133t-39.5 -109t-46.5 -78.5t-40.5 -50.5l-16 -16l149 -254q33 -60 33 -144q0 -132 -92.5 -217.5 t-233.5 -85.5q-64 0 -119 29t-86 74l-198 299v-99q0 -116 -99 -209.5t-229 -93.5q-129 0 -227.5 93.5t-98.5 209.5zM102 270q0 -100 85.5 -181t199.5 -81q115 0 201 81t86 181v234l272 -410q26 -38 71.5 -62t100.5 -24q123 0 204 74t81 188q0 67 -29 123l-166 285 q7 5 18.5 15t41 45t52.5 75.5t41.5 105.5t18.5 136q0 88 -22.5 160t-57.5 119t-83.5 82t-94 53.5t-96 29.5t-82.5 14t-61 3h-496q-58 0 -105 -15.5t-76 -41t-50.5 -55.5t-31.5 -60.5t-15.5 -56t-6.5 -41.5v-15v-961z" />
<glyph unicode="s" horiz-adv-x="1419" d="M33 479q0 92 34.5 175.5t100.5 140.5q-111 155 -111 282q0 132 88 247t235.5 182t315.5 67q170 0 318 -67t235.5 -182t87.5 -247q0 -144 -110 -264q159 -169 159 -334q0 -146 -89.5 -265t-247.5 -186t-353 -67q-183 0 -334.5 67t-240 186t-88.5 265zM74 479 q0 -133 83.5 -243t226 -172t312.5 -62q183 0 332 62t233.5 171.5t84.5 243.5q0 153 -177 334q58 58 92.5 128t34.5 136q0 123 -81.5 228t-220 166t-298.5 61q-159 0 -296.5 -61t-219.5 -166t-82 -228q0 -119 127 -291q-74 -57 -112.5 -137.5t-38.5 -169.5z" />
<glyph unicode="t" horiz-adv-x="1495" d="M41 1253q0 119 87 211t216 92h801q114 0 208.5 -94.5t94.5 -208.5q0 -128 -92.5 -215.5t-210.5 -87.5h-98v-680q0 -132 -85.5 -217.5t-218.5 -85.5t-229 86.5t-96 216.5v680h-74q-133 0 -218 85.5t-85 217.5zM82 1253q0 -114 73.5 -188t188.5 -74h115v-721 q0 -112 83.5 -187t200.5 -75q115 0 189 74t74 188v721h139q102 0 182 75.5t80 186.5q0 98 -82 180.5t-180 82.5h-801q-112 0 -187 -80.5t-75 -182.5z" />
<glyph unicode="u" horiz-adv-x="1482" d="M61 641v578q0 148 97 249t231 101q128 0 222 -73.5t120 -192.5q30 117 128 191.5t212 74.5q151 0 250.5 -99.5t99.5 -250.5v-578q0 -190 -93.5 -347t-249.5 -245t-337 -88q-192 0 -347.5 88.5t-244 244t-88.5 347.5zM102 641q0 -135 49 -253.5t133.5 -203t203 -133.5 t253.5 -49q127 0 244.5 49t204.5 133t138.5 203.5t51.5 253.5v578q0 132 -88.5 220.5t-220.5 88.5q-119 0 -214 -96.5t-95 -233.5h-64q0 141 -88.5 235.5t-220.5 94.5q-118 0 -202.5 -89t-84.5 -220v-578z" />
<glyph unicode="v" horiz-adv-x="1513" d="M51 1260q0 117 94 210t224 93q99 0 188.5 -56t114.5 -147q6 -21 84 -326q16 60 43.5 170l38.5 154q25 96 112.5 150.5t192.5 54.5q130 0 223.5 -93t93.5 -210q0 -62 -16 -101l-359 -975q-36 -97 -121.5 -157t-209.5 -60q-122 0 -205 58t-119 153q-11 16 -362 979 q-17 44 -17 103zM92 1260q0 -54 12 -89l117 -323q143 -392 238 -643q33 -88 109 -142.5t186 -54.5q111 0 187.5 52.5t107.5 138.5l358 972q12 37 12 89q0 101 -81.5 181.5t-194.5 80.5q-92 0 -166.5 -46.5t-95.5 -127.5l-107 -412h-37l-106 412q-21 80 -97.5 127t-164.5 47 q-113 0 -195 -80.5t-82 -181.5z" />
<glyph unicode="w" horiz-adv-x="1886" d="M12 1280q0 113 104.5 201t227.5 88q94 0 171 -54t112 -135q39 87 127.5 138t189.5 51t191 -51t129 -138q35 81 111.5 135t170.5 54q123 0 227.5 -88t104.5 -201q0 -40 -14 -82l-228 -932q-32 -129 -128 -214t-222 -85q-110 0 -197.5 79.5t-125.5 193.5l-17 49l-18 -49 q-43 -115 -129.5 -194t-194.5 -79q-124 0 -220.5 85.5t-129.5 213.5q-42 164 -117.5 479.5t-109.5 450.5q-15 52 -15 84zM53 1280q0 -22 15 -74l227 -932q29 -117 112 -191.5t197 -74.5q94 0 173.5 72t111.5 172l53 166l57 -166q34 -102 112.5 -173t174.5 -71 q114 0 197 74.5t112 191.5l228 932q14 49 14 74q0 97 -92 172.5t-199 75.5q-95 0 -171.5 -68.5t-92.5 -156.5h-37q-17 98 -107 161.5t-194 63.5t-193 -63.5t-106 -161.5h-37q-16 88 -92.5 156.5t-171.5 68.5q-107 0 -199 -75.5t-92 -172.5z" />
<glyph unicode="x" horiz-adv-x="1370" d="M57 270q0 74 49 152l230 373l-227 342q-52 79 -52 153q0 116 86.5 197.5t216.5 81.5q141 0 230 -125l100 -141l98 141q39 57 98.5 91t131.5 34q130 0 216.5 -81.5t86.5 -197.5q0 -72 -51 -151l-228 -346l230 -371q49 -78 49 -152q0 -130 -82.5 -216.5t-198.5 -86.5 q-75 0 -149 36t-105 93l-98 174l-96 -174q-33 -60 -104.5 -94.5t-149.5 -34.5q-116 0 -198.5 86.5t-82.5 216.5zM98 270q0 -112 70 -187t170 -75q67 0 128 29t89 80q19 35 67 121.5t66 121.5l135 -243q28 -51 89 -80t128 -29q100 0 170 75t70 187q0 57 -45 131l-242 390 l244 368q43 62 43 131q0 99 -74.5 168.5t-187.5 69.5q-119 0 -197 -109l-133 -190l-131 190q-34 49 -85 79t-112 30q-113 0 -187.5 -69.5t-74.5 -168.5q0 -69 43 -131l244 -368l-242 -390q-45 -72 -45 -131z" />
<glyph unicode="y" horiz-adv-x="1458" d="M51 1235q0 136 86.5 235t216.5 99q155 0 226 -84q28 -30 75.5 -86.5t75.5 -87.5l174 174q78 78 203 78q130 0 216.5 -96.5t86.5 -231.5q0 -81 -51 -154l-303 -442v-346q0 -131 -97.5 -228.5t-228.5 -97.5q-132 0 -230 97.5t-98 228.5v348q-38 54 -142.5 196.5 t-158.5 221.5q-23 31 -37 84t-14 92zM92 1235q0 -38 11.5 -81t31.5 -71l309 -430v-360q0 -116 85 -200.5t202 -84.5q115 0 200 85t85 200v360l311 453q43 64 43 129q0 119 -75 203t-187 84q-108 0 -174 -66l-203 -203l-182 203q-66 72 -195 72q-113 0 -187.5 -86.5 t-74.5 -206.5z" />
<glyph unicode="z" horiz-adv-x="1562" d="M61 305q0 111 76 201l395 467h-96q-131 0 -217 82t-86 198q0 130 81.5 216.5t197.5 86.5h731q131 0 217 -93t86 -228q0 -78 -16 -133t-66 -113l-367 -428h240q114 0 196.5 -82t82.5 -196q0 -133 -85 -218t-219 -85h-823q-132 0 -230 97t-98 228zM102 305 q0 -116 85 -200.5t202 -84.5h823q116 0 189.5 74t73.5 189q0 98 -70 167.5t-168 69.5h-328l422 494q44 52 59 101.5t15 119.5q0 117 -74.5 199t-187.5 82h-731q-99 0 -168.5 -75t-69.5 -188q0 -100 74 -169.5t188 -69.5h187l-453 -533q-30 -35 -49 -82.5t-19 -93.5z" />
<glyph unicode="{" horiz-adv-x="1042" d="M70 762v8q0 90 65 145q23 19 54.5 31t48 18.5t29 35t12.5 83.5q0 222 145.5 368t361.5 146q76 0 128.5 -55.5t52.5 -140.5q0 -120 -86 -189q-26 -23 -57 -77t-61 -156.5t-30 -212.5q0 -160 48.5 -279.5t99.5 -164.5q86 -75 86 -191q0 -85 -52.5 -141t-128.5 -56 q-216 0 -361.5 146.5t-145.5 368.5q0 45 -6.5 70t-21 35t-30.5 14.5t-42 16t-48 31.5q-61 51 -61 146zM111 762q0 -73 49 -115q26 -23 60 -38t52.5 -22.5t32.5 -40.5t14 -97q0 -203 134.5 -338.5t332.5 -135.5q58 0 99 44.5t41 111.5q0 41 -14.5 76t-27 49t-32.5 33 q-55 49 -107.5 178t-52.5 299q0 166 55.5 298t104.5 177q74 63 74 160q0 66 -41 110.5t-99 44.5q-198 0 -332.5 -135t-134.5 -338q0 -60 -10.5 -92.5t-25.5 -43t-47 -21.5q-17 -6 -35 -16t-40 -28t-36 -47t-14 -65v-8z" />
<glyph unicode="|" horiz-adv-x="663" d="M72 215v1106q0 100 83 183t181 83q119 0 192.5 -80t73.5 -186v-1106q0 -106 -73.5 -186t-192.5 -80q-98 0 -181 83t-83 183zM113 215q0 -85 70 -155t153 -70q101 0 163 67.5t62 157.5v1106q0 90 -62 157.5t-163 67.5q-83 0 -153 -70t-70 -155v-1106z" />
<glyph unicode="}" horiz-adv-x="1046" d="M70 131q0 119 86 188q51 47 99 167t48 280q0 158 -51 282t-96 162q-86 75 -86 191q0 85 52 140.5t128 55.5q216 0 362 -146t146 -368q0 -68 11.5 -89t43.5 -31q154 -57 154 -193v-8q0 -95 -62 -144q-22 -21 -47.5 -33t-41.5 -16t-30.5 -14.5t-21 -35.5t-6.5 -70 q0 -222 -146 -368.5t-362 -146.5q-76 0 -128 56t-52 141zM111 131q0 -67 40.5 -111.5t98.5 -44.5q198 0 332.5 135.5t134.5 338.5q0 83 19 111t63 42q48 17 87.5 55.5t39.5 104.5v8q0 73 -49 113q-26 21 -56 35t-46 20t-31 20.5t-21 43.5t-6 81q0 203 -134.5 338t-332.5 135 q-58 0 -98.5 -44t-40.5 -111q0 -98 73 -160q49 -45 104.5 -177t55.5 -298q0 -170 -52.5 -299t-107.5 -178q-20 -18 -32.5 -32.5t-26.5 -49.5t-14 -76z" />
<glyph unicode="~" horiz-adv-x="1476" d="M47 762q0 84 64 159.5t159.5 118.5t190.5 43q156 0 330 -63q85 -29 122 -29q6 0 12 1t11 2.5t11.5 5t10 5t10.5 7t9.5 7.5t11 9t10.5 8l7 6q27 23 43.5 34.5t51 24.5t73.5 13q66 0 119 -30.5t82 -76.5t44 -92.5t15 -85.5q0 -84 -63.5 -159.5t-158 -118.5t-188.5 -43 q-165 0 -340 65q-73 27 -117 27q-30 0 -86 -45q-27 -24 -46 -38t-56 -27t-80 -13q-53 0 -97.5 20.5t-72 51.5t-47 70.5t-27.5 75.5t-8 67zM88 762q0 -36 11.5 -75t34.5 -78.5t66 -65t99 -25.5q40 0 72.5 12.5t54.5 31t42.5 36.5t45.5 30.5t53 12.5q58 0 131 -31 q168 -61 326 -61q84 0 169 37t142.5 103t57.5 140q0 34 -12.5 74t-36.5 79t-68.5 65t-101.5 26q-38 0 -68.5 -12.5t-51 -31t-40 -36.5t-45 -30.5t-56.5 -12.5q-48 0 -135 33q-168 59 -317 59q-85 0 -171 -37t-144 -103t-58 -140z" />
<glyph unicode="&#xa1;" horiz-adv-x="632" d="M72 -176v569q0 133 80 207q-80 87 -80 191q0 106 73 186t191 80q98 0 166.5 -81.5t68.5 -184.5q0 -48 -22 -99.5t-57 -91.5q79 -79 79 -207v-569q0 -103 -68.5 -184.5t-166.5 -81.5q-118 0 -191 80t-73 186zM113 -176q0 -90 61.5 -157.5t161.5 -67.5q81 0 137.5 68.5 t56.5 156.5v569q0 126 -100 203q46 40 73 93t27 102q0 88 -56.5 156.5t-137.5 68.5q-100 0 -161.5 -67.5t-61.5 -157.5q0 -52 28 -104t78 -91q-106 -71 -106 -203v-569z" />
<glyph unicode="&#xa2;" horiz-adv-x="1019" d="M29 1059q0 32 6 74.5t26.5 104t51.5 116.5t89 108t132 82q0 71 55.5 129t122.5 58q74 0 123 -49t57 -115q132 -35 211.5 -127t79.5 -221q0 -97 -78 -158q82 -57 82 -162q0 -137 -82 -231t-217 -127q-11 -64 -57.5 -107t-118.5 -43q-65 0 -120 52t-58 120 q-75 31 -133 85.5t-89.5 110.5t-51.5 119t-25.5 105.5t-5.5 75.5zM70 1059q0 -32 5.5 -72t25.5 -101t51.5 -114.5t89.5 -105t133 -80.5q0 -58 43 -106t94 -48q57 0 95 41.5t44 99.5q133 29 214 114t81 212q0 29 -12.5 56t-30 44.5t-35.5 30.5t-30 19l-13 6q44 27 80.5 69 t36.5 95q0 119 -79.5 202t-211.5 113q0 62 -38 109t-101 47q-51 0 -94 -44t-43 -96v-30q-74 -27 -132 -77t-89 -102t-51.5 -111t-26.5 -99.5t-6 -71.5z" />
<glyph unicode="&#xa3;" horiz-adv-x="1153" d="M27 262q0 141 120 223q-55 35 -87.5 88t-32.5 115q0 93 44.5 160t118.5 98v326v10q0 116 84.5 195t196.5 79h363q104 0 192 -89t88 -195q0 -126 -84.5 -203.5t-195.5 -77.5h-78v-20h78q111 0 195.5 -78.5t84.5 -204.5q0 -60 -33.5 -113.5t-87.5 -89.5q57 -40 89 -98 t32 -125q0 -106 -88 -194t-192 -88h-527q-104 0 -192 88t-88 194zM68 262q0 -91 75 -166.5t164 -75.5h527q89 0 164 75.5t75 166.5q0 58 -46 120t-116 105q71 36 116.5 89t45.5 112q0 109 -72 175.5t-167 66.5h-119v102h119q95 0 167 65.5t72 174.5q0 91 -75 167.5 t-164 76.5h-363q-96 0 -168 -68t-72 -166v-364q-72 -28 -117.5 -88t-45.5 -142q0 -59 44.5 -112.5t116.5 -88.5q-70 -42 -115.5 -104t-45.5 -121z" />
<glyph unicode="&#xa4;" horiz-adv-x="1282" d="M2 453q0 146 88 231l10 10q-4 40 -4 68q0 55 4 82l-10 10q-88 85 -88 229q0 75 28.5 139t74 105t100.5 63.5t110 22.5q65 0 127 -26.5t109 -71.5l18 -21q36 4 66 4q27 0 63 -4l21 21q42 42 103 64t126 22q75 0 139 -28.5t105 -74.5t63.5 -101.5t22.5 -111.5 q0 -136 -98 -231l-11 -10q7 -44 7 -82q0 -20 -5 -70q107 -112 107 -241q0 -55 -22.5 -110.5t-63.5 -101.5t-105 -75t-139 -29q-64 0 -125.5 23t-103.5 65l-19 17q-20 -2 -65 -2q-48 0 -68 2l-16 -17q-45 -47 -108 -72.5t-128 -25.5q-55 0 -110 22.5t-100.5 62.5t-74 104 t-28.5 139zM43 453q0 -87 42.5 -154.5t103.5 -100t126 -32.5q121 0 207 86l31 31q50 -4 82 -4q34 0 80 4l33 -31q83 -76 192 -76h8q129 0 209 86t80 189q0 118 -86 204l-25 25q9 49 9 82q0 46 -11 94l27 27q86 86 86 202q0 48 -19.5 96.5t-55.5 88.5t-92 65t-122 25 q-126 0 -200 -74l-37 -37q-39 8 -76 8t-78 -8l-35 37q-38 39 -94.5 62.5t-112.5 23.5q-65 0 -126 -33t-103.5 -101t-42.5 -155q0 -118 76 -200l26 -29q-8 -47 -8 -92q0 -36 8 -80l-26 -27q-76 -76 -76 -202zM356 764q0 120 81.5 199t197.5 79t198 -79t82 -199 q0 -114 -82.5 -193t-197.5 -79t-197 78.5t-82 193.5zM397 764q0 -97 70 -164.5t168 -67.5q99 0 169 68t70 164q0 102 -69.5 169.5t-169.5 67.5q-99 0 -168.5 -67.5t-69.5 -169.5z" />
<glyph unicode="&#xa5;" horiz-adv-x="1603" d="M29 473q0 98 83 181t183 83h104q-17 23 -22 31h-82q-106 0 -186 73.5t-80 192.5q0 102 88 187v14q0 136 86.5 235t216.5 99q154 0 225 -84q27 -30 76 -86.5t76 -87.5l174 174q78 78 203 78q134 0 217.5 -102.5t85.5 -241.5q88 -82 88 -185q0 -119 -80.5 -192.5 t-186.5 -73.5h-90l-20 -31h110q100 0 183.5 -83t83.5 -181q0 -119 -80.5 -192.5t-186.5 -73.5h-188q-30 -103 -118 -171.5t-195 -68.5q-109 0 -198 68.5t-120 171.5h-184q-106 0 -186 73.5t-80 192.5zM70 473q0 -101 67.5 -163t157.5 -62h217q25 -102 105.5 -171t179.5 -69 q97 0 177 69t103 171h221q90 0 158 62t68 163q0 83 -70.5 153t-155.5 70h-190l80 113h110q90 0 158 62t68 163q0 90 -92 172q4 12 4 29q0 119 -75 203t-187 84q-109 0 -175 -66l-202 -203l-183 203q-66 72 -194 72q-113 0 -187.5 -86.5t-74.5 -206.5v-31q-40 -37 -64 -82 t-24 -88q0 -101 67.5 -163t157.5 -62h102l82 -113h-184q-85 0 -155 -70t-70 -153z" />
<glyph unicode="&#xa6;" horiz-adv-x="655" d="M72 215v289q0 92 71 171t162 93q-91 12 -162 92t-71 172v289q0 100 83 183t181 83q119 0 192.5 -80t73.5 -186v-289q0 -97 -63.5 -174.5t-167.5 -89.5q105 -13 168 -90t63 -174v-289q0 -106 -73.5 -186t-192.5 -80q-98 0 -181 83t-83 183zM113 215q0 -85 70 -155t153 -70 q101 0 163 67.5t62 157.5v289q0 90 -62 157.5t-163 67.5q-83 0 -153 -70t-70 -155v-289zM113 1032q0 -85 70 -155t153 -70q101 0 163 67.5t62 157.5v289q0 90 -62 157.5t-163 67.5q-83 0 -153 -70t-70 -155v-289z" />
<glyph unicode="&#xa7;" horiz-adv-x="1472" d="M94 1241q0 75 31.5 140t87 112.5t129 84.5t160 59.5t176.5 34t182 11.5q89 0 164.5 -15t142 -48.5t111 -93.5t59.5 -144q4 -40 4 -51q0 -90 -55 -168.5t-156 -109.5q115 -121 115 -248q0 -92 -49 -174q83 -66 129.5 -154t46.5 -180q0 -91 -45.5 -166t-121.5 -125.5 t-176.5 -86t-207 -51t-217.5 -15.5q-91 0 -171.5 18t-152 56.5t-113.5 110.5t-42 169q0 90 55 168.5t156 109.5q-115 115 -115 248q0 92 47 172q-85 62 -129.5 152t-44.5 184zM135 1241q0 -85 50.5 -172.5t140.5 -150.5q-64 -94 -64 -185q0 -126 162 -272q-124 -23 -191 -96 t-67 -158q0 -86 38.5 -149.5t104 -97.5t139 -50t156.5 -16q105 0 206 14t196 46t166.5 77.5t115 114.5t43.5 151q0 85 -50 170t-138 151q61 95 61 187q0 123 -162 272q124 23 191 96t67 158q0 7 -4 47q-13 73 -53.5 126t-101.5 82.5t-130 42.5t-151 13q-105 0 -206 -14.5 t-196 -46t-166 -77.5t-114 -114t-43 -149zM526 750q0 64 66.5 116t157.5 52q76 0 129 -38t53 -98q0 -63 -66.5 -113.5t-158.5 -50.5q-69 0 -119.5 31.5t-59.5 81.5v10q0 1 -1 4t-1 5zM567 750q0 -2 1 -6t1 -9q6 -32 45.5 -54t92.5 -22q75 0 129.5 38t54.5 85 q0 42 -40.5 68.5t-100.5 26.5q-73 0 -128 -40t-55 -87z" />
<glyph unicode="&#xa8;" horiz-adv-x="1155" d="M49 1812q0 125 71 196t195 71q110 0 179 -56.5t84 -156.5q14 100 83 156.5t179 56.5q124 0 195 -71t71 -196q0 -235 -266 -235q-237 0 -262 182q-28 -182 -263 -182q-266 0 -266 235zM90 1812q0 -194 225 -194q226 0 226 194q0 106 -60 166t-166 60t-165.5 -60 t-59.5 -166zM614 1812q0 -194 226 -194q225 0 225 194q0 106 -59.5 166t-165.5 60t-166 -60t-60 -166z" />
<glyph unicode="&#xa9;" horiz-adv-x="1705" d="M41 758q0 229 111 417t298 293t408 105q164 0 314 -62t261.5 -169t177.5 -259.5t66 -324.5q0 -165 -66 -313t-177 -253.5t-262 -167t-314 -61.5q-165 0 -315.5 61.5t-260.5 167t-175.5 253.5t-65.5 313zM82 758q0 -156 61.5 -296t166 -240.5t248 -159t300.5 -58.5 q156 0 299 58.5t248.5 158.5t168 240.5t62.5 296.5q0 163 -62.5 307.5t-168 246.5t-248.5 161t-299 59q-211 0 -388.5 -100t-282.5 -278.5t-105 -395.5zM520 770q0 22 5 51t17 71t37.5 80.5t61 72.5t93.5 54.5t130 20.5q126 0 208.5 -64t82.5 -161q0 -92 -108 -123 q112 -35 112 -127q0 -102 -84 -166.5t-211 -64.5q-72 0 -130.5 21t-94 55.5t-61 73.5t-37 81.5t-16.5 72t-5 52.5zM561 770q0 -26 5.5 -59t25 -80t50.5 -84.5t89 -64.5t133 -27q109 0 181.5 53t72.5 137q0 29 -19 50.5t-46.5 31.5t-55 16t-46.5 7h-19l-12 36q1 0 2.5 1t5 2 t6.5 2q2 0 6 1t6 1q168 24 168 102t-71.5 131t-178.5 53q-75 0 -132.5 -26.5t-88.5 -63.5t-51 -83.5t-25.5 -79t-5.5 -56.5z" />
<glyph unicode="&#xaa;" horiz-adv-x="1054" d="M41 713q0 20 3.5 40t7.5 30l3 10l244 620q28 68 79.5 108t147.5 40q53 0 89.5 -10t59.5 -33.5t35 -45t27 -59.5l246 -620q14 -41 14 -91q0 -37 -11.5 -69t-28 -51t-33 -32.5t-28.5 -18.5l-11 -5q-54 -22 -99 -22q-39 0 -73.5 19.5t-56 47.5t-36.5 56t-22 47l-6 20h-131 q-58 -192 -209 -192q-24 0 -49 6t-38 12l-13 6q-111 65 -111 187zM68 713q0 -22 8 -49t26.5 -59t57.5 -53.5t92 -21.5q133 0 186 191h176q1 -8 4 -21t16.5 -45.5t31 -58t49.5 -46t71 -20.5q32 0 86 21q7 3 14.5 7t24 16.5t29 28t22 42t9.5 57.5q0 43 -13 78 q-83 215 -245 623q-24 66 -62 98.5t-125 32.5q-89 0 -133.5 -34.5t-68.5 -96.5l-246 -623l-1 -4q-1 -3 -2.5 -9t-3 -14t-2.5 -18.5t-1 -21.5z" />
<glyph unicode="&#xab;" horiz-adv-x="1609" d="M31 768q0 83 86 203l325 452q78 78 185 78q104 0 181 -77t77 -181q0 -46 -18.5 -86.5t-55.5 -93.5l-201 -293l201 -264q74 -98 74 -197q0 -46 -17.5 -94t-49.5 -88.5t-82 -66t-109 -25.5q-107 0 -185 78l-338 489q-35 48 -54 86.5t-19 79.5zM72 768q0 -51 65 -141 l338 -490q67 -61 152 -61q97 0 157 73.5t60 159.5q0 35 -16.5 78t-53 97.5t-63 91t-80 103.5t-70.5 89l217 319q66 95 66 156q0 89 -64 153t-153 64q-84 0 -152 -61l-325 -453q-78 -112 -78 -178zM725 768q0 83 86 203l326 452q78 78 184 78q104 0 181 -77t77 -181 q0 -46 -18.5 -86.5t-55.5 -93.5l-200 -293l200 -264q74 -98 74 -197q0 -46 -17.5 -94t-49.5 -88.5t-82 -66t-109 -25.5q-106 0 -184 78l-338 489q-23 32 -36.5 53.5t-25.5 52.5t-12 60zM766 768q0 -51 65 -141l338 -490q67 -61 152 -61q97 0 157 73.5t60 159.5 q0 35 -16.5 78t-53 97.5t-63 91t-80 103.5t-70.5 89l218 319q65 93 65 156q0 89 -64 153t-153 64q-84 0 -152 -61l-325 -453q-78 -106 -78 -178z" />
<glyph unicode="&#xac;" horiz-adv-x="1492" d="M55 1022q0 101 71.5 182.5t170.5 81.5h881q99 0 170 -70.5t71 -171.5v-542q0 -104 -65 -173t-176 -69q-114 0 -188.5 70t-74.5 172v258h-616q-101 0 -172.5 73t-71.5 189zM96 1022q0 -98 58.5 -159.5t144.5 -61.5h657v-299q0 -84 63 -142.5t159 -58.5q92 0 146 57.5 t54 143.5v542q0 83 -58.5 142t-141.5 59h-881q-81 0 -141 -69t-60 -154z" />
<glyph unicode="&#xad;" horiz-adv-x="1097" d="M33 770q0 98 83 181t183 83h489q100 0 183.5 -83t83.5 -181q0 -119 -80.5 -192.5t-186.5 -73.5h-489q-106 0 -186 73.5t-80 192.5zM74 770q0 -101 67.5 -163t157.5 -62h489q90 0 158 62t68 163q0 83 -70.5 153t-155.5 70h-489q-85 0 -155 -70t-70 -153z" />
<glyph unicode="&#xae;" horiz-adv-x="1705" d="M41 758q0 229 111 417t298 293t408 105q164 0 314 -62t261.5 -169t177.5 -259.5t66 -324.5q0 -165 -66 -313t-177 -253.5t-262 -167t-314 -61.5q-165 0 -315.5 61.5t-260.5 167t-175.5 253.5t-65.5 313zM82 758q0 -156 61.5 -296t166 -240.5t248 -159t300.5 -58.5 q156 0 299 58.5t248.5 158.5t168 240.5t62.5 296.5q0 163 -62.5 307.5t-168 246.5t-248.5 161t-299 59q-211 0 -388.5 -100t-282.5 -278.5t-105 -395.5zM569 555v406q0 3 0.5 8.5t3.5 21t8 29.5t16 31t26.5 29.5t40 21t55.5 8.5h209q21 0 45 -3t60.5 -16.5t64.5 -36 t48.5 -66.5t20.5 -103q0 -37 -15.5 -78.5t-31.5 -64.5l-16 -23l59 -98q15 -30 15 -66q0 -61 -42.5 -101t-107.5 -40q-30 0 -56 14t-40 35l-60 84q-4 4 -4 8q0 -54 -45.5 -97.5t-103.5 -43.5q-59 0 -104.5 43t-45.5 98zM610 555q0 -39 32.5 -69.5t76.5 -30.5t76 30.5t32 69.5 v137l138 -207q19 -30 63 -30q46 0 77.5 28.5t31.5 71.5q0 23 -11 45l-77 127q3 2 8.5 6.5t18.5 20t23 32.5t18.5 44t8.5 55q0 49 -17 85t-40 54.5t-53.5 29t-50 13t-37.5 2.5h-209q-31 0 -53 -11t-32.5 -27t-16.5 -32t-7 -27v-11v-406z" />
<glyph unicode="&#xaf;" horiz-adv-x="706" d="M16 1378q0 66 57 122t124 56h317q67 0 123.5 -56t56.5 -122q0 -81 -54 -130.5t-126 -49.5h-317q-72 0 -126.5 49.5t-54.5 130.5zM57 1378q0 -63 42 -101t98 -38h317q56 0 97.5 38t41.5 101q0 51 -43.5 94.5t-95.5 43.5h-317q-52 0 -96 -43.5t-44 -94.5z" />
<glyph unicode="&#xb0;" horiz-adv-x="636" d="M49 1303q0 125 70.5 195.5t195.5 70.5t196 -71t71 -195q0 -236 -267 -236q-266 0 -266 236zM90 1303q0 -195 225 -195q226 0 226 195q0 106 -60 165.5t-166 59.5t-165.5 -59.5t-59.5 -165.5zM190 1313q0 57 33.5 90t91.5 33t91.5 -33t33.5 -90q0 -113 -125 -113t-125 113 zM231 1313q0 -72 84 -72t84 72q0 38 -22 60t-62 22t-62 -22t-22 -60z" />
<glyph unicode="&#xb1;" horiz-adv-x="1306" d="M33 246q0 98 83 181t183 83h272q-77 30 -129.5 101.5t-52.5 152.5h-90q-106 0 -186 73.5t-80 192.5q0 98 83 181t183 83h90v9q0 100 83 183t181 83q119 0 193 -80t74 -186v-9h90q100 0 183 -83t83 -181q0 -119 -80 -192.5t-186 -73.5h-90q0 -84 -46 -154.5t-126 -99.5 h262q100 0 183 -83t83 -181q0 -119 -80 -192.5t-186 -73.5h-711q-106 0 -186 73.5t-80 192.5zM74 246q0 -101 67.5 -163.5t157.5 -62.5h711q90 0 157.5 62.5t67.5 163.5q0 83 -70 153t-155 70h-711q-85 0 -155 -70t-70 -153zM74 1030q0 -101 67.5 -163t157.5 -62h131v-45 q0 -85 70 -155t153 -70q101 0 163.5 67.5t62.5 157.5v45h131q90 0 157.5 62t67.5 163q0 83 -70 153t-155 70h-131v50q0 90 -62.5 157.5t-163.5 67.5q-83 0 -153 -70t-70 -155v-50h-131q-85 0 -155 -70t-70 -153z" />
<glyph unicode="&#xb2;" horiz-adv-x="876" d="M39 1219q0 92 58 172.5t144.5 125t174.5 44.5q155 0 262.5 -108t107.5 -265q0 -91 -43 -146l-141 -192h53q79 0 125.5 -46t46.5 -126q0 -66 -43.5 -110t-109.5 -44h-457q-65 0 -108 45q-54 51 -54 123q0 78 41 125l226 246q-46 -27 -105 -27q-69 0 -123.5 58t-54.5 125z M66 1219q0 -57 46 -106.5t105 -49.5q62 0 104 36t62 93q7 29 39 29q33 0 33 -31q0 -15 -9 -27l-329 -364q-17 -18 -26 -49.5t-9 -57.5q0 -59 45 -104q35 -37 90 -37h457q54 0 90.5 36.5t36.5 90.5q0 67 -39 106t-107 39h-106l174 234q37 51 37 131q0 144 -100.5 245 t-243.5 101q-80 0 -160.5 -41t-135 -115.5t-54.5 -158.5zM389 1137l35 39q4 8 4 14q0 4 -6 4q-10 0 -12 -10q-8 -20 -21 -47z" />
<glyph unicode="&#xb3;" horiz-adv-x="878" d="M43 805q0 37 12 71.5t28.5 58t33.5 42t29 27.5l12 8q-17 26 -17 49q0 7 4.5 18t8.5 18l4 7q-44 30 -69.5 75.5t-25.5 90.5q0 27 10 60.5t37 75.5t67 75.5t107.5 56.5t151.5 23q144 0 247 -87.5t103 -224.5q0 -41 -10 -90t-24 -72q79 -84 79 -200q0 -153 -108 -263 t-272 -110q-80 0 -151 16.5t-129.5 50t-93 91.5t-34.5 133zM70 805q0 -69 32.5 -121t87.5 -82.5t121 -45.5t140 -15q152 0 253 102.5t101 243.5q0 103 -90 200q15 15 30 67.5t15 94.5q0 127 -94.5 206t-229.5 79q-78 0 -141 -21t-100 -51.5t-62 -68.5t-34 -68.5t-9 -54.5 q0 -42 30 -87t79 -75q-31 -27 -31 -47q0 -10 8 -25t16 -25l7 -10q-5 -2 -14 -6.5t-31 -21t-39 -37t-31 -55.5t-14 -76z" />
<glyph unicode="&#xb4;" horiz-adv-x="813" d="M33 1731q0 53 29.5 98.5t76.5 62.5l414 150q15 10 47 10q73 0 123.5 -48.5t50.5 -111.5q0 -51 -32 -92t-78 -61l-412 -150q-30 -12 -57 -12q-53 0 -107.5 40t-54.5 114zM74 1731q0 -55 40 -84t81 -29q13 0 41 8l415 150q35 13 58.5 44t23.5 72q0 47 -38.5 83t-94.5 36 q-15 0 -27 -4l-421 -152q-35 -12 -56.5 -47t-21.5 -77z" />
<glyph unicode="&#xb5;" horiz-adv-x="1705" d="M61 29v1190q0 148 97 249t231 101q128 0 221 -73.5t119 -192.5q32 116 129.5 191t212.5 75q151 0 250.5 -99.5t99.5 -250.5v-578q0 -190 -93.5 -347t-249.5 -245t-337 -88q-37 0 -53 2q-22 -111 -107 -181.5t-202 -70.5q-136 0 -227 91.5t-91 226.5zM102 29 q0 -117 79.5 -197t197.5 -80q105 0 182 72.5t92 183.5q49 -6 88 -6q127 0 244.5 49t204.5 133t138.5 203.5t51.5 253.5v578q0 132 -88.5 220.5t-220.5 88.5q-119 0 -214 -96.5t-95 -233.5h-64q0 141 -88.5 235.5t-220.5 94.5q-118 0 -202.5 -89t-84.5 -220v-1190z" />
<glyph unicode="&#xb6;" horiz-adv-x="1880" d="M23 1018q0 145 73.5 268.5t203 196.5t284.5 73h993q114 0 196 -83t82 -197v-1028q0 -114 -95 -197.5t-212 -83.5q-131 0 -217 82.5t-86 198.5v725h-18v-703q0 -128 -92.5 -215.5t-210.5 -87.5q-133 0 -229.5 86.5t-96.5 216.5v185h-14q-178 0 -307 75t-191.5 200.5 t-62.5 287.5zM63 1018q0 -111 34.5 -206t99 -165.5t164 -110.5t223.5 -40h55v-226q0 -112 84 -187t201 -75q102 0 182 76t80 186v744h100v-766q0 -100 74 -170t188 -70q101 0 184 72t83 168v1028q0 98 -70 169t-168 71h-993q-218 0 -369.5 -146.5t-151.5 -351.5z" />
<glyph unicode="&#xb7;" horiz-adv-x="563" d="M12 768q0 124 71 195t196 71t195.5 -71t70.5 -195q0 -236 -266 -236q-267 0 -267 236zM53 768q0 -195 226 -195q225 0 225 195q0 106 -59.5 165.5t-165.5 59.5t-166 -59.5t-60 -165.5z" />
<glyph unicode="&#xb8;" horiz-adv-x="712" d="M109 -334q0 69 55 123.5t127 75.5q-49 30 -49 74q0 24 21 49.5t42 39.5l21 13h145l4 -41q-20 -3 -20 -51q0 -3 17.5 -12t43 -24.5t51 -38t43 -60.5t17.5 -84q0 -123 -76 -187.5t-199 -64.5q-117 0 -180 49t-63 139zM150 -334q0 -71 52 -109t150 -38q103 0 168.5 54.5 t65.5 156.5q0 41 -12.5 72t-32 46.5t-41.5 28.5t-41.5 20.5t-32 21t-12.5 30.5q0 30 8 51h-84q-55 -33 -55 -61q0 -14 6.5 -22.5t16.5 -13.5t26.5 -23.5t32.5 -47.5q-74 -5 -144.5 -54t-70.5 -112z" />
<glyph unicode="&#xb9;" horiz-adv-x="735" d="M59 1235q0 96 86 151l248 152q39 25 96 25q70 0 121.5 -40.5t51.5 -107.5v-723q0 -67 -47.5 -118.5t-125.5 -51.5q-64 0 -118 53.5t-54 116.5v391q-30 -30 -81 -30q-72 0 -124.5 55t-52.5 127zM86 1235q0 -62 44.5 -109t105.5 -47q37 0 65 25l43 43v-455q0 -54 45 -98.5 t100 -44.5q66 0 106 43t40 100v723q0 56 -43 88.5t-103 32.5q-39 0 -83 -23q-27 -17 -114 -69.5t-134 -81.5q-72 -44 -72 -127z" />
<glyph unicode="&#xba;" horiz-adv-x="1118" d="M27 1030q0 149 72 271.5t193.5 191t264.5 68.5t265 -68.5t195 -191t73 -271.5q0 -142 -72.5 -261.5t-195 -187t-265.5 -67.5t-264.5 67.5t-193.5 186.5t-72 262zM53 1030q0 -204 148 -346.5t356 -142.5q135 0 251.5 64.5t185.5 177.5t69 247q0 142 -69 258.5t-185 181 t-252 64.5q-102 0 -195 -38t-161 -104.5t-108 -160.5t-40 -201z" />
<glyph unicode="&#xbb;" horiz-adv-x="1617" d="M31 309q0 101 73 197l201 264l-201 293q-37 53 -55 93t-18 87q0 104 77 181t181 77q106 0 184 -78l326 -452q86 -120 86 -203q0 -29 -12 -61t-25 -52t-37 -53l-338 -489q-78 -78 -184 -78q-59 0 -109 25.5t-82 66t-49.5 88.5t-17.5 94zM72 309q0 -86 60 -159.5t157 -73.5 q84 0 151 61l338 490q66 90 66 141q0 66 -78 178l-326 453q-68 61 -151 61q-89 0 -153 -64t-64 -153q0 -63 65 -156l217 -319l-217 -287q-65 -84 -65 -172zM725 309q0 99 74 197l200 264l-200 293q-38 54 -56 93.5t-18 86.5q0 104 77 181t181 77q106 0 184 -78l326 -452 q86 -120 86 -203q0 -29 -12 -61t-25 -52t-37 -53l-338 -489q-78 -78 -184 -78q-59 0 -109 25.5t-82 66t-49.5 88.5t-17.5 94zM766 309q0 -86 60 -159.5t157 -73.5q85 0 152 61l338 490q65 89 65 141q0 66 -78 178l-325 453q-68 61 -152 61q-89 0 -153 -64t-64 -153 q0 -63 65 -156l218 -319l-218 -287q-65 -84 -65 -172z" />
<glyph unicode="&#xbc;" horiz-adv-x="2193" d="M39 1235q0 96 86 151l248 152q39 25 96 25q70 0 121 -40.5t51 -107.5v-723q0 -67 -47 -118.5t-125 -51.5q-64 0 -118 53.5t-54 116.5v391q-30 -30 -82 -30q-72 0 -124 55t-52 127zM66 1235q0 -62 44 -109t105 -47q38 0 66 25l43 43v-455q0 -54 45 -98.5t100 -44.5 q66 0 105.5 43t39.5 100v723q0 56 -42.5 88.5t-102.5 32.5q-40 0 -84 -23q-27 -17 -114 -69.5t-134 -81.5q-71 -44 -71 -127zM541 242q0 69 26 116l557 1053q37 73 102 115.5t144 42.5q125 0 185.5 -74t60.5 -186q0 -74 -35 -146l-549 -1069q-30 -57 -100.5 -92t-147.5 -35 q-104 0 -173.5 79.5t-69.5 195.5zM582 242q0 -97 58 -165.5t144 -68.5q66 0 125.5 29.5t85.5 77.5l549 1067q31 69 31 127q0 95 -50 157t-155 62q-67 0 -122.5 -36.5t-86.5 -100.5l-557 -1053q-22 -43 -22 -96zM1280 336q0 65 37 121l362 479q34 43 74 63.5t98 20.5 t94.5 -36t36.5 -95v-385q62 -7 101 -56t39 -112q0 -65 -38.5 -110t-101.5 -48v-26q0 -68 -48 -120t-124 -52q-64 0 -108.5 52.5t-44.5 119.5v26h-223q-75 0 -114.5 45t-39.5 113zM1307 336q0 -58 32 -94.5t95 -36.5h249v-53q0 -57 37 -101.5t90 -44.5q65 0 105.5 44 t40.5 102v53q59 0 99 38t40 93q0 58 -38.5 99.5t-100.5 41.5v412q0 46 -30 75t-75 29q-92 0 -149 -73l-365 -480q-30 -42 -30 -104z" />
<glyph unicode="&#xbd;" horiz-adv-x="2310" d="M29 1235q0 96 86 151l247 152q39 25 97 25q70 0 121 -40.5t51 -107.5v-723q0 -67 -47 -118.5t-125 -51.5q-64 0 -118 53.5t-54 116.5v391q-30 -30 -82 -30q-72 0 -124 55t-52 127zM55 1235q0 -62 44.5 -109t105.5 -47q37 0 65 25l43 43v-455q0 -54 45.5 -98.5 t100.5 -44.5q66 0 105.5 43t39.5 100v723q0 56 -42.5 88.5t-102.5 32.5q-40 0 -84 -23q-27 -17 -114 -69.5t-134 -81.5q-72 -44 -72 -127zM541 242q0 69 26 116l557 1053q37 73 102 115.5t144 42.5q125 0 185.5 -74t60.5 -186q0 -74 -35 -146l-549 -1069q-30 -57 -100.5 -92 t-147.5 -35q-104 0 -173.5 79.5t-69.5 195.5zM582 242q0 -97 58 -165.5t144 -68.5q66 0 125.5 29.5t85.5 77.5l549 1067q31 69 31 127q0 95 -50 157t-155 62q-67 0 -122.5 -36.5t-86.5 -100.5l-557 -1053q-22 -43 -22 -96zM1448 690q0 93 58 175t145 127.5t174 45.5 q155 0 262.5 -110.5t107.5 -268.5q0 -92 -43 -149l-141 -195h53q80 0 126 -46.5t46 -127.5q0 -66 -43.5 -110.5t-109.5 -44.5h-457q-65 0 -108 45q-54 54 -54 125q0 80 41 127l226 249q-39 -26 -105 -26q-69 0 -123.5 58t-54.5 126zM1475 690q0 -58 46 -108t105 -50 q62 0 104 36.5t62 95.5q7 30 39 30q33 0 33 -32q0 -18 -9 -27l-329 -371q-35 -41 -35 -108q0 -59 45 -107q35 -35 90 -35h457q54 0 90.5 36.5t36.5 90.5q0 69 -39 108.5t-107 39.5h-106l174 237q37 51 37 133q0 146 -100.5 249.5t-243.5 103.5q-80 0 -161 -42.5t-135 -118.5 t-54 -161zM1798 608l35 37q4 12 4 17q0 4 -6 4q-10 0 -12 -11q-11 -30 -21 -47z" />
<glyph unicode="&#xbe;" horiz-adv-x="2236" d="M43 805q0 37 12 71.5t28.5 58t33.5 42t29 27.5l12 8q-17 26 -17 49q0 7 4.5 18t8.5 18l4 7q-44 30 -69.5 75.5t-25.5 90.5q0 27 10 60.5t37 75.5t67 75.5t107.5 56.5t151.5 23q144 0 247 -87.5t103 -224.5q0 -41 -10 -90t-24 -72q79 -84 79 -200q0 -153 -108 -263 t-272 -110q-80 0 -151 16.5t-129.5 50t-93 91.5t-34.5 133zM70 805q0 -69 32.5 -121t87.5 -82.5t121 -45.5t140 -15q152 0 253 102.5t101 243.5q0 103 -90 200q15 15 30 67.5t15 94.5q0 127 -94.5 206t-229.5 79q-78 0 -141 -21t-100 -51.5t-62 -68.5t-34 -68.5t-9 -54.5 q0 -42 30 -87t79 -75q-31 -27 -31 -47q0 -10 8 -25t16 -25l7 -10q-5 -2 -14 -6.5t-31 -21t-39 -37t-31 -55.5t-14 -76zM627 242q0 69 26 116l557 1053q37 73 102 115.5t144 42.5q125 0 185.5 -74t60.5 -186q0 -74 -35 -146l-549 -1069q-30 -57 -100.5 -92t-147.5 -35 q-104 0 -173.5 79.5t-69.5 195.5zM668 242q0 -97 58 -165.5t144 -68.5q66 0 125.5 29.5t85.5 77.5l549 1067q31 69 31 127q0 95 -50 157t-155 62q-67 0 -122.5 -36.5t-86.5 -100.5l-557 -1053q-22 -43 -22 -96zM1337 336q0 65 37 121l363 479q34 43 74 63.5t98 20.5 t94.5 -36t36.5 -95v-385q62 -7 100.5 -56t38.5 -112q0 -65 -38 -110t-101 -48v-26q0 -68 -48 -120t-124 -52q-64 0 -109 52.5t-45 119.5v26h-223q-75 0 -114.5 45t-39.5 113zM1364 336q0 -58 32 -94.5t95 -36.5h250v-53q0 -57 37 -101.5t90 -44.5q65 0 105 43.5t40 102.5v53 q59 0 99 38t40 93q0 58 -38.5 99.5t-100.5 41.5v412q0 47 -29.5 75.5t-74.5 28.5q-93 0 -150 -73l-364 -480q-31 -43 -31 -104z" />
<glyph unicode="&#xbf;" horiz-adv-x="1167" d="M61 248q0 195 70 289t248 94h254q-45 70 -45 149q0 127 69 202t205 75q113 0 185.5 -79.5t72.5 -189.5q0 -56 -22 -109t-44 -79l-22 -25q88 -102 88 -229q0 -112 -78 -197.5t-204 -85.5h-209v-30h209q132 0 207 -76.5t75 -208.5q0 -112 -78 -198.5t-204 -86.5h-494 q-126 0 -204.5 86.5t-78.5 198.5v500zM102 248v-500q0 -97 66.5 -170.5t175.5 -73.5h494q109 0 175 73.5t66 170.5q0 114 -63.5 179t-177.5 65h-250v112h250q109 0 175 72.5t66 169.5q0 66 -26.5 121t-83.5 115q4 3 11.5 8t26.5 24.5t33.5 41t26.5 57.5t12 75 q0 94 -60.5 161t-156.5 67q-116 0 -174.5 -64t-58.5 -172q0 -43 23 -90.5t46 -73.5l23 -26h-342q-155 0 -216 -83.5t-61 -258.5z" />
<glyph unicode="&#xc0;" d="M63 287q0 29 5.5 59t10.5 45l5 15l377 942q19 47 44 83.5t65 70t100.5 51.5t138.5 18q66 0 116.5 -12t81.5 -29t57 -49.5t39.5 -59.5t31.5 -73l376 -942q25 -64 25 -136q0 -56 -18 -104.5t-44 -77t-52 -49.5t-44 -29l-18 -8q-82 -33 -150 -33q-61 0 -114 30t-85.5 72 t-56.5 84.5t-34 72.5l-9 30h-202q-88 -291 -320 -291q-39 0 -78 8.5t-59 17.5l-19 9q-170 100 -170 285zM104 287q0 -26 7 -58t27 -72t50 -72.5t82.5 -54.5t118.5 -22q40 0 76.5 12.5t76.5 43t75 90.5t59 145h270q1 -6 3 -16.5t11.5 -40.5t21.5 -57t34 -60.5t47.5 -57.5 t64 -40.5t82.5 -16.5q54 0 133 29q10 4 22 10.5t37 26.5t44 43.5t34 64t15 86.5q0 65 -20 119q-67 171 -199 499t-178 443q-19 49 -36.5 79t-49.5 61t-82 45t-121 14q-72 0 -126 -15.5t-89.5 -45.5t-57 -62t-38.5 -76l-377 -942q-17 -34 -17 -102zM430 1892q0 63 50.5 111.5 t123.5 48.5q30 0 47 -10l414 -150q47 -17 76.5 -62.5t29.5 -98.5q0 -74 -54 -114t-107 -40q-29 0 -56 12l-413 150q-46 20 -78.5 61t-32.5 92zM471 1892q0 -41 23.5 -72t58.5 -44l414 -150q28 -8 43 -8q41 0 80.5 29t39.5 84q0 42 -21 77t-56 47l-422 152q-12 4 -27 4 q-56 0 -94.5 -36t-38.5 -83z" />
<glyph unicode="&#xc1;" d="M63 287q0 29 5.5 59t10.5 45l5 15l377 942q19 47 44 83.5t65 70t100.5 51.5t138.5 18q66 0 116.5 -12t81.5 -29t57 -49.5t39.5 -59.5t31.5 -73l376 -942q25 -64 25 -136q0 -56 -18 -104.5t-44 -77t-52 -49.5t-44 -29l-18 -8q-82 -33 -150 -33q-61 0 -114 30t-85.5 72 t-56.5 84.5t-34 72.5l-9 30h-202q-88 -291 -320 -291q-39 0 -78 8.5t-59 17.5l-19 9q-170 100 -170 285zM104 287q0 -26 7 -58t27 -72t50 -72.5t82.5 -54.5t118.5 -22q40 0 76.5 12.5t76.5 43t75 90.5t59 145h270q1 -6 3 -16.5t11.5 -40.5t21.5 -57t34 -60.5t47.5 -57.5 t64 -40.5t82.5 -16.5q54 0 133 29q10 4 22 10.5t37 26.5t44 43.5t34 64t15 86.5q0 65 -20 119q-67 171 -199 499t-178 443q-19 49 -36.5 79t-49.5 61t-82 45t-121 14q-72 0 -126 -15.5t-89.5 -45.5t-57 -62t-38.5 -76l-377 -942q-17 -34 -17 -102zM430 1731q0 53 30 98.5 t77 62.5l413 150q15 10 47 10q73 0 123.5 -48.5t50.5 -111.5q0 -51 -32 -92t-78 -61l-412 -150q-30 -12 -57 -12q-53 0 -107.5 40t-54.5 114zM471 1731q0 -55 40 -84t81 -29q13 0 41 8l416 150q35 13 58 44t23 72q0 47 -38.5 83t-94.5 36q-14 0 -26 -4l-422 -152 q-35 -12 -56.5 -47t-21.5 -77z" />
<glyph unicode="&#xc2;" d="M63 287q0 29 5.5 59t10.5 45l5 15l377 942q19 47 44 83.5t65 70t100.5 51.5t138.5 18q66 0 116.5 -12t81.5 -29t57 -49.5t39.5 -59.5t31.5 -73l376 -942q25 -64 25 -136q0 -56 -18 -104.5t-44 -77t-52 -49.5t-44 -29l-18 -8q-82 -33 -150 -33q-61 0 -114 30t-85.5 72 t-56.5 84.5t-34 72.5l-9 30h-202q-88 -291 -320 -291q-39 0 -78 8.5t-59 17.5l-19 9q-170 100 -170 285zM104 287q0 -26 7 -58t27 -72t50 -72.5t82.5 -54.5t118.5 -22q40 0 76.5 12.5t76.5 43t75 90.5t59 145h270q1 -6 3 -16.5t11.5 -40.5t21.5 -57t34 -60.5t47.5 -57.5 t64 -40.5t82.5 -16.5q54 0 133 29q10 4 22 10.5t37 26.5t44 43.5t34 64t15 86.5q0 65 -20 119q-67 171 -199 499t-178 443q-19 49 -36.5 79t-49.5 61t-82 45t-121 14q-72 0 -126 -15.5t-89.5 -45.5t-57 -62t-38.5 -76l-377 -942q-17 -34 -17 -102zM317 1753q0 71 54 125 l295 213q78 57 135 57q37 0 102 -45l328 -225q53 -53 53 -125q0 -78 -58.5 -127t-125.5 -49q-65 0 -133 51l-166 127q-22 -15 -77 -55t-87 -61.5t-74 -41.5t-71 -20q-70 0 -122.5 52.5t-52.5 123.5zM358 1753q0 -56 39.5 -95.5t94.5 -39.5q33 0 86 37q6 6 10 6l213 143 l190 -143q57 -43 109 -43t97.5 37.5t45.5 97.5q0 49 -37 92q-54 36 -159.5 110.5t-143.5 100.5l-20 12q-4 2 -16.5 10.5t-18 11.5t-15.5 8t-17.5 7t-14.5 2q-44 -3 -111 -49l-295 -213q-37 -40 -37 -92z" />
<glyph unicode="&#xc3;" d="M63 287q0 29 5.5 59t10.5 45l5 15l377 942q19 47 44 83.5t65 70t100.5 51.5t138.5 18q66 0 116.5 -12t81.5 -29t57 -49.5t39.5 -59.5t31.5 -73l376 -942q25 -64 25 -136q0 -56 -18 -104.5t-44 -77t-52 -49.5t-44 -29l-18 -8q-82 -33 -150 -33q-61 0 -114 30t-85.5 72 t-56.5 84.5t-34 72.5l-9 30h-202q-88 -291 -320 -291q-39 0 -78 8.5t-59 17.5l-19 9q-170 100 -170 285zM104 287q0 -26 7 -58t27 -72t50 -72.5t82.5 -54.5t118.5 -22q40 0 76.5 12.5t76.5 43t75 90.5t59 145h270q1 -6 3 -16.5t11.5 -40.5t21.5 -57t34 -60.5t47.5 -57.5 t64 -40.5t82.5 -16.5q54 0 133 29q10 4 22 10.5t37 26.5t44 43.5t34 64t15 86.5q0 65 -20 119q-67 171 -199 499t-178 443q-19 49 -36.5 79t-49.5 61t-82 45t-121 14q-72 0 -126 -15.5t-89.5 -45.5t-57 -62t-38.5 -76l-377 -942q-17 -34 -17 -102zM242 1808q0 68 51 130 t128 97.5t154 35.5q124 0 267 -52q68 -22 96 -22q21 0 43 15.5t39 33.5t51 33.5t76 15.5q54 0 97 -24.5t66.5 -62t35.5 -75t12 -69.5q0 -68 -51 -129.5t-127.5 -97t-153.5 -35.5q-135 0 -270 53q-58 20 -94 20q-25 0 -66 -37q-69 -61 -150 -61q-54 0 -95.5 24.5t-64 61.5 t-33.5 74.5t-11 70.5zM283 1808q0 -39 14 -80t53 -75.5t96 -34.5q38 0 68.5 15.5t48 33.5t43.5 33.5t56 15.5q42 0 106 -24q136 -50 258 -50q67 0 134 29.5t112 82t45 110.5q0 27 -9.5 58t-28 61.5t-53.5 50.5t-79 20q-38 0 -68 -15.5t-46.5 -33.5t-41.5 -33.5t-53 -15.5 q-36 0 -109 26q-136 48 -254 48q-67 0 -134 -29.5t-112.5 -82t-45.5 -110.5z" />
<glyph unicode="&#xc4;" d="M63 287q0 29 5.5 59t10.5 45l5 15l377 942q19 47 44 83.5t65 70t100.5 51.5t138.5 18q66 0 116.5 -12t81.5 -29t57 -49.5t39.5 -59.5t31.5 -73l376 -942q25 -64 25 -136q0 -56 -18 -104.5t-44 -77t-52 -49.5t-44 -29l-18 -8q-82 -33 -150 -33q-61 0 -114 30t-85.5 72 t-56.5 84.5t-34 72.5l-9 30h-202q-88 -291 -320 -291q-39 0 -78 8.5t-59 17.5l-19 9q-170 100 -170 285zM104 287q0 -26 7 -58t27 -72t50 -72.5t82.5 -54.5t118.5 -22q40 0 76.5 12.5t76.5 43t75 90.5t59 145h270q1 -6 3 -16.5t11.5 -40.5t21.5 -57t34 -60.5t47.5 -57.5 t64 -40.5t82.5 -16.5q54 0 133 29q10 4 22 10.5t37 26.5t44 43.5t34 64t15 86.5q0 65 -20 119q-67 171 -199 499t-178 443q-19 49 -36.5 79t-49.5 61t-82 45t-121 14q-72 0 -126 -15.5t-89.5 -45.5t-57 -62t-38.5 -76l-377 -942q-17 -34 -17 -102zM272 1812q0 124 71 195.5 t196 71.5q110 0 178.5 -56.5t83.5 -156.5q14 100 83 156.5t179 56.5q124 0 195 -71t71 -196q0 -235 -266 -235q-237 0 -262 182q-28 -182 -262 -182q-267 0 -267 235zM313 1812q0 -194 226 -194q225 0 225 194q0 106 -59.5 166t-165.5 60t-166 -60t-60 -166zM838 1812 q0 -194 225 -194t225 194q0 106 -59.5 166t-165.5 60t-165.5 -60t-59.5 -166z" />
<glyph unicode="&#xc5;" d="M63 287q0 29 5.5 59t10.5 45l5 15l377 942q19 47 44 83.5t65 70t100.5 51.5t138.5 18q66 0 116.5 -12t81.5 -29t57 -49.5t39.5 -59.5t31.5 -73l376 -942q25 -64 25 -136q0 -56 -18 -104.5t-44 -77t-52 -49.5t-44 -29l-18 -8q-82 -33 -150 -33q-61 0 -114 30t-85.5 72 t-56.5 84.5t-34 72.5l-9 30h-202q-88 -291 -320 -291q-39 0 -78 8.5t-59 17.5l-19 9q-170 100 -170 285zM104 287q0 -26 7 -58t27 -72t50 -72.5t82.5 -54.5t118.5 -22q40 0 76.5 12.5t76.5 43t75 90.5t59 145h270q1 -6 3 -16.5t11.5 -40.5t21.5 -57t34 -60.5t47.5 -57.5 t64 -40.5t82.5 -16.5q54 0 133 29q10 4 22 10.5t37 26.5t44 43.5t34 64t15 86.5q0 65 -20 119q-67 171 -199 499t-178 443q-19 49 -36.5 79t-49.5 61t-82 45t-121 14q-72 0 -126 -15.5t-89.5 -45.5t-57 -62t-38.5 -76l-377 -942q-17 -34 -17 -102zM535 1812q0 125 71 196 t195 71t195 -71t71 -196q0 -235 -266 -235t-266 235zM575 1812q0 -194 226 -194q225 0 225 194q0 106 -59.5 166t-165.5 60t-166 -60t-60 -166zM676 1823q0 57 33.5 90t91.5 33t91.5 -33t33.5 -90q0 -113 -125 -113t-125 113zM717 1823q0 -72 84 -72t84 72q0 38 -22 60 t-62 22t-62 -22t-22 -60z" />
<glyph unicode="&#xc6;" horiz-adv-x="2275" d="M51 287q0 51 25.5 105t85.5 132q104 136 315.5 408.5t315.5 408.5q29 38 48.5 60.5t56.5 55.5t73.5 52t90.5 33t116 14h768q115 0 195.5 -84.5t80.5 -214.5q0 -75 -41.5 -137t-105.5 -96q68 -33 107.5 -103.5t39.5 -150.5q0 -78 -40.5 -151t-106.5 -109 q64 -34 105.5 -104.5t41.5 -147.5q0 -128 -79.5 -203t-196.5 -75h-748q-44 0 -84.5 15.5t-70 40t-54.5 54t-41 59t-27.5 54t-16.5 39.5l-5 16h-151q-89 -155 -184.5 -223t-186.5 -68q-39 0 -78 8.5t-59 17.5l-19 9q-170 100 -170 285zM92 287q0 -26 7 -58t27 -72t50 -72.5 t82.5 -54.5t118.5 -22q183 0 346 291h211q1 -6 3 -16t11.5 -39t21.5 -55.5t34 -58.5t47.5 -55t64 -39t82.5 -16h748q101 0 168 64t67 174q0 77 -55 147t-125 89l2 36q82 17 130 86t48 154q0 84 -46.5 150.5t-123.5 83.5l-2 40q69 18 120.5 77.5t51.5 135.5 q0 112 -68.5 185.5t-166.5 73.5h-768q-58 0 -108 -13.5t-82 -29.5t-67 -48.5t-50.5 -51t-45.5 -56.5l-630 -817q-56 -71 -79.5 -119.5t-23.5 -93.5z" />
<glyph unicode="&#xc7;" horiz-adv-x="1546" d="M41 774q0 32 4 71.5t15.5 96t30 113.5t50.5 120.5t72.5 119.5t101 107.5t132 89t168.5 59.5t208 22q189 0 339 -67t236.5 -193t86.5 -291q0 -148 -127 -246q30 -19 56.5 -45t51.5 -80.5t25 -120.5q0 -170 -82.5 -298t-224.5 -196t-324 -75v-12q0 -3 17.5 -12t43 -24.5 t51 -38t43 -60.5t17.5 -84q0 -123 -76 -187.5t-198 -64.5q-117 0 -180.5 49.5t-63.5 138.5q0 67 52 117.5t132 81.5q-51 20 -51 74q0 17 10 34q-112 19 -205 66t-155 107t-110 134.5t-75 144t-43.5 141.5t-22 120.5t-5.5 87.5zM82 774q0 -38 5.5 -85.5t23.5 -118t46.5 -138 t79.5 -139.5t117 -129t165 -100.5t218 -59.5q-49 -49 -49 -65q0 -12 7 -20t17 -14t27 -25t33 -48q-74 -5 -145.5 -54t-71.5 -112q0 -71 52.5 -109t150.5 -38q103 0 168 54.5t65 156.5q0 41 -12.5 72t-32 46.5t-41.5 28.5t-41.5 20.5t-32 21t-12.5 30.5q0 22 6 53 q180 4 320 66t222.5 181.5t82.5 280.5q0 47 -14 87.5t-34 65t-40.5 42t-34.5 24.5l-14 7l-4 35q135 89 135 231q0 152 -81.5 269t-222 179t-317.5 62q-134 0 -245.5 -34t-186.5 -88t-132.5 -127t-90 -144t-53 -146t-27 -127t-6.5 -92z" />
<glyph unicode="&#xc8;" horiz-adv-x="1411" d="M61 281v954q0 7 0.5 18.5t7 44.5t17.5 63.5t35 67.5t57 63.5t86 45t119 18.5h700q115 0 196 -84.5t81 -214.5q0 -74 -42 -136.5t-106 -96.5q68 -33 108 -103.5t40 -150.5q0 -78 -41 -151t-107 -109q64 -34 106 -104.5t42 -147.5q0 -128 -80 -203t-197 -75h-700 q-7 0 -18.5 0.5t-45 6.5t-64 16.5t-67.5 33t-63.5 53t-45 80.5t-18.5 111zM102 281q0 -53 15.5 -96t40.5 -69.5t54.5 -46t59.5 -28.5t55 -14.5t41 -6.5h15h700q101 0 168.5 64t67.5 174q0 77 -55 147t-125 89l2 36q82 17 130 86t48 154q0 84 -46.5 150.5t-123.5 83.5l-2 40 q69 18 120.5 77.5t51.5 135.5q0 112 -69 185.5t-167 73.5h-700q-57 0 -103.5 -15.5t-75 -40.5t-49.5 -54.5t-31 -59.5t-15.5 -55t-6.5 -41v-15v-954zM334 1892q0 63 50.5 111.5t123.5 48.5q30 0 47 -10l414 -150q47 -17 76.5 -62.5t29.5 -98.5q0 -74 -54.5 -114t-107.5 -40 q-28 0 -55 12l-414 150q-46 20 -78 61t-32 92zM375 1892q0 -41 23.5 -72t58.5 -44l413 -150q28 -8 43 -8q41 0 81 29t40 84q0 42 -21.5 77t-56.5 47l-421 152q-12 4 -27 4q-56 0 -94.5 -36t-38.5 -83z" />
<glyph unicode="&#xc9;" horiz-adv-x="1411" d="M61 281v954q0 7 0.5 18.5t7 44.5t17.5 63.5t35 67.5t57 63.5t86 45t119 18.5h700q115 0 196 -84.5t81 -214.5q0 -74 -42 -136.5t-106 -96.5q68 -33 108 -103.5t40 -150.5q0 -78 -41 -151t-107 -109q64 -34 106 -104.5t42 -147.5q0 -128 -80 -203t-197 -75h-700 q-7 0 -18.5 0.5t-45 6.5t-64 16.5t-67.5 33t-63.5 53t-45 80.5t-18.5 111zM102 281q0 -53 15.5 -96t40.5 -69.5t54.5 -46t59.5 -28.5t55 -14.5t41 -6.5h15h700q101 0 168.5 64t67.5 174q0 77 -55 147t-125 89l2 36q82 17 130 86t48 154q0 84 -46.5 150.5t-123.5 83.5l-2 40 q69 18 120.5 77.5t51.5 135.5q0 112 -69 185.5t-167 73.5h-700q-57 0 -103.5 -15.5t-75 -40.5t-49.5 -54.5t-31 -59.5t-15.5 -55t-6.5 -41v-15v-954zM334 1731q0 53 29.5 98.5t76.5 62.5l414 150q15 10 47 10q73 0 123.5 -48.5t50.5 -111.5q0 -51 -32 -92t-78 -61l-412 -150 q-30 -12 -57 -12q-53 0 -107.5 40t-54.5 114zM375 1731q0 -55 40 -84t81 -29q13 0 41 8l415 150q35 13 58.5 44t23.5 72q0 47 -38.5 83t-94.5 36q-15 0 -27 -4l-421 -152q-35 -12 -56.5 -47t-21.5 -77z" />
<glyph unicode="&#xca;" horiz-adv-x="1411" d="M61 281v954q0 7 0.5 18.5t7 44.5t17.5 63.5t35 67.5t57 63.5t86 45t119 18.5h700q115 0 196 -84.5t81 -214.5q0 -74 -42 -136.5t-106 -96.5q68 -33 108 -103.5t40 -150.5q0 -78 -41 -151t-107 -109q64 -34 106 -104.5t42 -147.5q0 -128 -80 -203t-197 -75h-700 q-7 0 -18.5 0.5t-45 6.5t-64 16.5t-67.5 33t-63.5 53t-45 80.5t-18.5 111zM102 281q0 -53 15.5 -96t40.5 -69.5t54.5 -46t59.5 -28.5t55 -14.5t41 -6.5h15h700q101 0 168.5 64t67.5 174q0 77 -55 147t-125 89l2 36q82 17 130 86t48 154q0 84 -46.5 150.5t-123.5 83.5l-2 40 q69 18 120.5 77.5t51.5 135.5q0 112 -69 185.5t-167 73.5h-700q-57 0 -103.5 -15.5t-75 -40.5t-49.5 -54.5t-31 -59.5t-15.5 -55t-6.5 -41v-15v-954zM221 1753q0 72 53 125l295 213q78 57 136 57q37 0 102 -45l328 -225q53 -53 53 -125q0 -78 -58.5 -127t-125.5 -49 q-66 0 -134 51l-165 127q-21 -14 -76.5 -54.5t-87.5 -62t-74.5 -41.5t-71.5 -20q-70 0 -122 52.5t-52 123.5zM262 1753q0 -56 39 -95.5t94 -39.5q33 0 86 37q6 6 11 6l213 143l190 -143q57 -43 109 -43t97.5 37.5t45.5 97.5q0 49 -37 92q-54 36 -159.5 110.5t-143.5 100.5 l-21 12q-5 3 -16.5 10.5t-17.5 11t-15.5 8.5t-17 7t-14.5 2q-44 -3 -111 -49l-295 -213q-37 -40 -37 -92z" />
<glyph unicode="&#xcb;" horiz-adv-x="1411" d="M61 281v954q0 7 0.5 18.5t7 44.5t17.5 63.5t35 67.5t57 63.5t86 45t119 18.5h700q115 0 196 -84.5t81 -214.5q0 -74 -42 -136.5t-106 -96.5q68 -33 108 -103.5t40 -150.5q0 -78 -41 -151t-107 -109q64 -34 106 -104.5t42 -147.5q0 -128 -80 -203t-197 -75h-700 q-7 0 -18.5 0.5t-45 6.5t-64 16.5t-67.5 33t-63.5 53t-45 80.5t-18.5 111zM102 281q0 -53 15.5 -96t40.5 -69.5t54.5 -46t59.5 -28.5t55 -14.5t41 -6.5h15h700q101 0 168.5 64t67.5 174q0 77 -55 147t-125 89l2 36q82 17 130 86t48 154q0 84 -46.5 150.5t-123.5 83.5l-2 40 q69 18 120.5 77.5t51.5 135.5q0 112 -69 185.5t-167 73.5h-700q-57 0 -103.5 -15.5t-75 -40.5t-49.5 -54.5t-31 -59.5t-15.5 -55t-6.5 -41v-15v-954zM176 1812q0 125 71 196t195 71q110 0 179 -56.5t84 -156.5q14 100 83 156.5t179 56.5q124 0 195 -71t71 -196 q0 -235 -266 -235q-237 0 -262 182q-28 -182 -263 -182q-266 0 -266 235zM217 1812q0 -194 225 -194q226 0 226 194q0 106 -60 166t-166 60t-165.5 -60t-59.5 -166zM741 1812q0 -194 226 -194q225 0 225 194q0 106 -59.5 166t-165.5 60t-166 -60t-60 -166z" />
<glyph unicode="&#xcc;" horiz-adv-x="821" d="M39 1892q0 63 50.5 111.5t123.5 48.5q29 0 47 -10l414 -150q47 -17 76.5 -62.5t29.5 -98.5q0 -74 -54.5 -114t-107.5 -40q-28 0 -55 12l-413 150q-46 20 -78.5 61t-32.5 92zM61 317v902q0 151 100 250.5t251 99.5t250.5 -99.5t99.5 -250.5v-902q0 -151 -99.5 -250.5 t-250.5 -99.5t-251 99.5t-100 250.5zM80 1892q0 -41 23.5 -72t58.5 -44l413 -150q28 -8 43 -8q41 0 81 29t40 84q0 42 -21 77t-56 47l-422 152q-12 4 -27 4q-56 0 -94.5 -36t-38.5 -83zM102 317q0 -132 89 -220.5t221 -88.5t220.5 88.5t88.5 220.5v902q0 132 -88.5 220.5 t-220.5 88.5t-221 -88.5t-89 -220.5v-902z" />
<glyph unicode="&#xcd;" horiz-adv-x="821" d="M39 1731q0 53 29.5 98.5t76.5 62.5l414 150q15 10 47 10q73 0 123.5 -48.5t50.5 -111.5q0 -51 -32 -92t-78 -61l-412 -150q-30 -12 -57 -12q-53 0 -107.5 40t-54.5 114zM61 317v902q0 151 100 250.5t251 99.5t250.5 -99.5t99.5 -250.5v-902q0 -151 -99.5 -250.5 t-250.5 -99.5t-251 99.5t-100 250.5zM80 1731q0 -55 40 -84t81 -29q13 0 41 8l415 150q35 13 58.5 44t23.5 72q0 47 -38.5 83t-94.5 36q-14 0 -26 -4l-422 -152q-35 -12 -56.5 -47t-21.5 -77zM102 317q0 -132 89 -220.5t221 -88.5t220.5 88.5t88.5 220.5v902 q0 132 -88.5 220.5t-220.5 88.5t-221 -88.5t-89 -220.5v-902z" />
<glyph unicode="&#xce;" horiz-adv-x="821" d="M-72 1753q0 71 54 125l294 213q78 57 136 57q37 0 102 -45l328 -225q53 -53 53 -125q0 -78 -58.5 -127t-125.5 -49q-65 0 -133 51l-166 127q-21 -14 -76.5 -54.5t-87.5 -62t-74.5 -41.5t-71.5 -20q-70 0 -122 52.5t-52 123.5zM-31 1753q0 -56 39 -95.5t94 -39.5 q33 0 86 37q6 6 11 6l213 143l190 -143q57 -43 109 -43t97.5 37.5t45.5 97.5q0 49 -37 92q-54 36 -159.5 110.5t-143.5 100.5l-20 12q-4 2 -16.5 10.5t-18 11.5t-15.5 8t-17.5 7t-14.5 2q-44 -3 -111 -49l-295 -213q-37 -40 -37 -92zM61 317v902q0 151 100 250.5t251 99.5 t250.5 -99.5t99.5 -250.5v-902q0 -151 -99.5 -250.5t-250.5 -99.5t-251 99.5t-100 250.5zM102 317q0 -132 89 -220.5t221 -88.5t220.5 88.5t88.5 220.5v902q0 132 -88.5 220.5t-220.5 88.5t-221 -88.5t-89 -220.5v-902z" />
<glyph unicode="&#xcf;" horiz-adv-x="821" d="M-117 1812q0 124 71.5 195.5t195.5 71.5q110 0 178.5 -56.5t83.5 -156.5q14 100 83 156.5t179 56.5q124 0 195 -71t71 -196q0 -235 -266 -235q-237 0 -262 182q-28 -182 -262 -182q-267 0 -267 235zM-76 1812q0 -194 226 -194q225 0 225 194q0 106 -59.5 166t-165.5 60 t-166 -60t-60 -166zM61 317v902q0 151 100 250.5t251 99.5t250.5 -99.5t99.5 -250.5v-902q0 -151 -99.5 -250.5t-250.5 -99.5t-251 99.5t-100 250.5zM102 317q0 -132 89 -220.5t221 -88.5t220.5 88.5t88.5 220.5v902q0 132 -88.5 220.5t-220.5 88.5t-221 -88.5t-89 -220.5 v-902zM449 1812q0 -194 225 -194t225 194q0 106 -59.5 166t-165.5 60t-165.5 -60t-59.5 -166z" />
<glyph unicode="&#xd0;" horiz-adv-x="1773" d="M10 766q0 98 83 181t183 83h15v199q0 135 85.5 231t217.5 96h399q52 0 102.5 -4.5t126.5 -23t140 -50t132.5 -91.5t116 -140t78.5 -203.5t31 -275.5q0 -147 -29 -268t-74.5 -201t-110.5 -140t-128 -93t-136 -53t-125 -25.5t-105 -5.5h-418q-129 0 -216 92t-87 211v215 h-15q-106 0 -186 73.5t-80 192.5zM51 766q0 -101 67.5 -163t157.5 -62h56v-256q0 -103 75.5 -184t186.5 -81h410q49 0 97.5 5t118.5 23.5t130 49t122.5 87.5t106.5 133t72 192t28 258q0 144 -29 261.5t-74.5 193.5t-110 133t-125 86.5t-132.5 47t-119 22t-96 4.5h-399 q-115 0 -188.5 -83.5t-73.5 -203.5v-240h-56q-85 0 -155 -70t-70 -153z" />
<glyph unicode="&#xd1;" horiz-adv-x="1460" d="M61 246v1044q0 112 94 195.5t210 83.5q73 0 142 -34.5t109 -90.5l177 -252v74q0 134 84.5 218.5t218.5 84.5q132 0 217.5 -85t85.5 -218v-1016q0 -118 -86 -200.5t-217 -82.5q-72 0 -143.5 36t-108.5 91q-38 56 -176 271v-119q0 -112 -93.5 -195.5t-209.5 -83.5 q-130 0 -217 81.5t-87 197.5zM102 246q0 -99 75 -168.5t188 -69.5q101 0 181.5 71t80.5 167v256l250 -387q30 -49 91 -78t128 -29q114 0 188 70.5t74 171.5v1016q0 115 -74 188.5t-188 73.5q-116 0 -189 -73t-73 -189v-209l-250 362q-34 48 -94.5 78.5t-124.5 30.5 q-101 0 -182 -71t-81 -167v-1044zM172 1808q0 68 51.5 130t128.5 97.5t154 35.5q123 0 266 -52q68 -22 96 -22q21 0 43 15.5t39 33.5t51 33.5t76 15.5q54 0 97 -24.5t66.5 -62t35.5 -75t12 -69.5q0 -68 -51 -129.5t-127.5 -97t-153.5 -35.5q-135 0 -270 53q-58 20 -94 20 q-25 0 -66 -37q-21 -19 -37 -30t-46.5 -21t-65.5 -10q-43 0 -79 16.5t-59 41.5t-38.5 57t-22 61t-6.5 55zM213 1808q0 -22 5 -46t17.5 -50t30.5 -46.5t47 -34t64 -13.5q38 0 68.5 15.5t47.5 33.5t43 33.5t56 15.5q42 0 106 -24q136 -50 258 -50q67 0 134 29.5t112 82 t45 110.5q0 27 -9.5 58t-28 61.5t-53.5 50.5t-79 20q-38 0 -68 -15.5t-46.5 -33.5t-41.5 -33.5t-53 -15.5q-35 0 -108 26q-136 48 -254 48q-104 0 -198.5 -67.5t-94.5 -154.5z" />
<glyph unicode="&#xd2;" horiz-adv-x="1714" d="M41 758q0 229 111 417t298 293t408 105q164 0 314 -62t261.5 -169t177.5 -259.5t66 -324.5q0 -165 -66 -313t-177 -253.5t-262 -167t-314 -61.5q-165 0 -315.5 61.5t-260.5 167t-175.5 253.5t-65.5 313zM82 758q0 -156 61.5 -296t166 -240.5t248 -159t300.5 -58.5 q156 0 299 58.5t248.5 158.5t168 240.5t62.5 296.5q0 163 -62.5 307.5t-168 246.5t-248.5 161t-299 59q-211 0 -388.5 -100t-282.5 -278.5t-105 -395.5zM485 1892q0 63 50.5 111.5t123.5 48.5q31 0 48 -10l413 -150q47 -17 77 -62.5t30 -98.5q0 -74 -54.5 -114t-107.5 -40 q-28 0 -55 12l-414 150q-46 20 -78.5 61t-32.5 92zM526 1892q0 -41 23.5 -72t58.5 -44l414 -150q28 -8 43 -8q41 0 81 29t40 84q0 42 -21.5 77t-56.5 47l-422 152q-12 4 -27 4q-56 0 -94.5 -36t-38.5 -83z" />
<glyph unicode="&#xd3;" horiz-adv-x="1714" d="M41 758q0 229 111 417t298 293t408 105q164 0 314 -62t261.5 -169t177.5 -259.5t66 -324.5q0 -165 -66 -313t-177 -253.5t-262 -167t-314 -61.5q-165 0 -315.5 61.5t-260.5 167t-175.5 253.5t-65.5 313zM82 758q0 -156 61.5 -296t166 -240.5t248 -159t300.5 -58.5 q156 0 299 58.5t248.5 158.5t168 240.5t62.5 296.5q0 163 -62.5 307.5t-168 246.5t-248.5 161t-299 59q-211 0 -388.5 -100t-282.5 -278.5t-105 -395.5zM485 1731q0 53 30 98.5t77 62.5l414 150q15 10 47 10q73 0 123.5 -48.5t50.5 -111.5q0 -51 -32.5 -92t-78.5 -61 l-411 -150q-30 -12 -58 -12q-53 0 -107.5 40t-54.5 114zM526 1731q0 -55 40 -84t81 -29q13 0 41 8l416 150q35 13 58.5 44t23.5 72q0 47 -38.5 83t-94.5 36q-15 0 -27 -4l-422 -152q-35 -12 -56.5 -47t-21.5 -77z" />
<glyph unicode="&#xd4;" horiz-adv-x="1714" d="M41 758q0 229 111 417t298 293t408 105q164 0 314 -62t261.5 -169t177.5 -259.5t66 -324.5q0 -165 -66 -313t-177 -253.5t-262 -167t-314 -61.5q-165 0 -315.5 61.5t-260.5 167t-175.5 253.5t-65.5 313zM82 758q0 -156 61.5 -296t166 -240.5t248 -159t300.5 -58.5 q156 0 299 58.5t248.5 158.5t168 240.5t62.5 296.5q0 163 -62.5 307.5t-168 246.5t-248.5 161t-299 59q-211 0 -388.5 -100t-282.5 -278.5t-105 -395.5zM373 1753q0 72 53 125l295 213q78 57 135 57q37 0 102 -45l328 -225q53 -53 53 -125q0 -78 -58.5 -127t-125.5 -49 q-65 0 -133 51l-166 127q-22 -15 -77 -55t-87 -61.5t-74 -41.5t-71 -20q-70 0 -122 52.5t-52 123.5zM414 1753q0 -56 39 -95.5t94 -39.5q33 0 86 37q6 6 10 6l213 143l191 -143q57 -43 108 -43q52 0 97.5 37.5t45.5 97.5q0 50 -36 92q-54 37 -160.5 111.5t-143.5 99.5 l-20 12q-4 2 -16.5 10.5t-18 11.5t-15.5 8t-17.5 7t-14.5 2q-44 -3 -111 -49l-294 -213q-37 -40 -37 -92z" />
<glyph unicode="&#xd5;" horiz-adv-x="1714" d="M41 758q0 229 111 417t298 293t408 105q164 0 314 -62t261.5 -169t177.5 -259.5t66 -324.5q0 -165 -66 -313t-177 -253.5t-262 -167t-314 -61.5q-165 0 -315.5 61.5t-260.5 167t-175.5 253.5t-65.5 313zM82 758q0 -156 61.5 -296t166 -240.5t248 -159t300.5 -58.5 q156 0 299 58.5t248.5 158.5t168 240.5t62.5 296.5q0 163 -62.5 307.5t-168 246.5t-248.5 161t-299 59q-211 0 -388.5 -100t-282.5 -278.5t-105 -395.5zM299 1808q0 68 51.5 130t128.5 97.5t154 35.5q123 0 266 -52q68 -22 96 -22q21 0 43 15.5t39 33.5t51 33.5t76 15.5 q54 0 97 -24.5t66.5 -62t35.5 -75t12 -69.5q0 -68 -51 -129.5t-127.5 -97t-153.5 -35.5q-135 0 -270 53q-58 20 -94 20q-25 0 -66 -37q-21 -19 -37 -30t-46.5 -21t-65.5 -10q-43 0 -79 16.5t-59 41.5t-38.5 57t-22 61t-6.5 55zM340 1808q0 -22 5 -46t17.5 -50t30.5 -46.5 t47 -34t64 -13.5q38 0 68.5 15.5t47.5 33.5t43 33.5t56 15.5q41 0 106 -24q136 -50 258 -50q67 0 134 29.5t112 82t45 110.5q0 27 -9.5 58t-28 61.5t-53.5 50.5t-79 20q-38 0 -68 -15.5t-46.5 -33.5t-41.5 -33.5t-53 -15.5q-35 0 -108 26q-136 48 -254 48 q-104 0 -198.5 -67.5t-94.5 -154.5z" />
<glyph unicode="&#xd6;" horiz-adv-x="1714" d="M41 758q0 229 111 417t298 293t408 105q164 0 314 -62t261.5 -169t177.5 -259.5t66 -324.5q0 -165 -66 -313t-177 -253.5t-262 -167t-314 -61.5q-165 0 -315.5 61.5t-260.5 167t-175.5 253.5t-65.5 313zM82 758q0 -156 61.5 -296t166 -240.5t248 -159t300.5 -58.5 q156 0 299 58.5t248.5 158.5t168 240.5t62.5 296.5q0 163 -62.5 307.5t-168 246.5t-248.5 161t-299 59q-211 0 -388.5 -100t-282.5 -278.5t-105 -395.5zM328 1812q0 125 71 196t195 71q110 0 178.5 -56.5t83.5 -156.5q14 100 83 156.5t179 56.5q124 0 195 -71t71 -196 q0 -235 -266 -235q-237 0 -262 182q-28 -182 -262 -182q-266 0 -266 235zM369 1812q0 -194 225 -194t225 194q0 106 -59.5 166t-165.5 60t-165.5 -60t-59.5 -166zM893 1812q0 -194 225 -194t225 194q0 106 -59.5 166t-165.5 60t-165.5 -60t-59.5 -166z" />
<glyph unicode="&#xd7;" horiz-adv-x="1128" d="M45 516q0 117 72 189l65 65l-65 64q-72 72 -72 186q0 120 79.5 194t176.5 74q54 0 105 -21.5t86 -58.5l63 -65l66 65q70 70 186 70q120 0 194 -79t74 -177q0 -108 -80 -188l-65 -66l65 -63q80 -80 80 -191q0 -97 -74 -176.5t-194 -79.5q-53 0 -103 19t-83 53l-64 65 q-41 -41 -62 -60t-54.5 -42.5t-66.5 -33t-73 -9.5q-97 0 -176.5 73t-79.5 193zM86 516q0 -102 67 -163.5t148 -61.5q38 0 72.5 12.5t69.5 41t55 48t57 60.5l94 -95q59 -59 158 -59q102 0 164.5 67t62.5 148q0 38 -12 72t-39 67.5t-46 53t-56 53.5l-9 8l95 94q67 67 67 160 q0 82 -62.5 148.5t-164.5 66.5q-101 0 -158 -57l-94 -95l-92 95q-32 29 -76.5 48t-85.5 19q-81 0 -148 -62.5t-67 -164.5q0 -99 59 -158l95 -94l-95 -92q-28 -27 -43.5 -71t-15.5 -89z" />
<glyph unicode="&#xd8;" horiz-adv-x="1714" d="M41 758q0 229 111 417t298 293t408 105q71 0 123 -8q39 68 100.5 105.5t137.5 37.5q125 0 185 -74t60 -186q0 -68 -22 -117q111 -112 173 -259t62 -314q0 -165 -66 -313t-177 -253.5t-262 -167t-314 -61.5q-43 0 -117 8q-35 -49 -102 -79.5t-135 -30.5q-104 0 -174 79 t-70 195q0 37 8 70q-109 107 -168 248.5t-59 304.5zM82 758q0 -156 61 -295.5t170 -245.5q-12 -35 -12 -82q0 -97 58.5 -165t144.5 -68q66 0 126.5 30.5t88.5 83.5q73 -12 139 -12q156 0 299 58.5t248.5 158.5t168 240.5t62.5 296.5q0 164 -64 310t-179 255q30 66 30 125 q0 95 -49.5 157t-154.5 62q-69 0 -126.5 -40t-91.5 -109q-69 14 -143 14q-211 0 -388.5 -100t-282.5 -278.5t-105 -395.5z" />
<glyph unicode="&#xd9;" horiz-adv-x="1482" d="M61 641v578q0 148 97 249t231 101q128 0 222 -73.5t120 -192.5q30 117 128 191.5t212 74.5q151 0 250.5 -99.5t99.5 -250.5v-578q0 -190 -93.5 -347t-249.5 -245t-337 -88q-192 0 -347.5 88.5t-244 244t-88.5 347.5zM102 641q0 -135 49 -253.5t133.5 -203t203 -133.5 t253.5 -49q127 0 244.5 49t204.5 133t138.5 203.5t51.5 253.5v578q0 132 -88.5 220.5t-220.5 88.5q-119 0 -214 -96.5t-95 -233.5h-64q0 141 -88.5 235.5t-220.5 94.5q-118 0 -202.5 -89t-84.5 -220v-578zM371 1892q0 63 50.5 111.5t123.5 48.5q29 0 47 -10l414 -150 q47 -17 76.5 -62.5t29.5 -98.5q0 -74 -54.5 -114t-107.5 -40q-28 0 -55 12l-414 150q-46 20 -78 61t-32 92zM412 1892q0 -41 23.5 -72t58.5 -44l413 -150q28 -8 43 -8q41 0 81 29t40 84q0 42 -21.5 77t-56.5 47l-422 152q-12 4 -26 4q-56 0 -94.5 -36t-38.5 -83z" />
<glyph unicode="&#xda;" horiz-adv-x="1482" d="M61 641v578q0 148 97 249t231 101q128 0 222 -73.5t120 -192.5q30 117 128 191.5t212 74.5q151 0 250.5 -99.5t99.5 -250.5v-578q0 -190 -93.5 -347t-249.5 -245t-337 -88q-192 0 -347.5 88.5t-244 244t-88.5 347.5zM102 641q0 -135 49 -253.5t133.5 -203t203 -133.5 t253.5 -49q127 0 244.5 49t204.5 133t138.5 203.5t51.5 253.5v578q0 132 -88.5 220.5t-220.5 88.5q-119 0 -214 -96.5t-95 -233.5h-64q0 141 -88.5 235.5t-220.5 94.5q-118 0 -202.5 -89t-84.5 -220v-578zM371 1731q0 53 29.5 98.5t76.5 62.5l414 150q15 10 47 10 q73 0 123.5 -48.5t50.5 -111.5q0 -51 -32.5 -92t-78.5 -61l-411 -150q-30 -12 -58 -12q-53 0 -107 40t-54 114zM412 1731q0 -55 39.5 -84t80.5 -29q13 0 41 8l416 150q35 13 58.5 44t23.5 72q0 47 -38.5 83t-94.5 36q-15 0 -27 -4l-422 -152q-35 -12 -56 -47t-21 -77z" />
<glyph unicode="&#xdb;" horiz-adv-x="1482" d="M61 641v578q0 148 97 249t231 101q128 0 222 -73.5t120 -192.5q30 117 128 191.5t212 74.5q151 0 250.5 -99.5t99.5 -250.5v-578q0 -190 -93.5 -347t-249.5 -245t-337 -88q-192 0 -347.5 88.5t-244 244t-88.5 347.5zM102 641q0 -135 49 -253.5t133.5 -203t203 -133.5 t253.5 -49q127 0 244.5 49t204.5 133t138.5 203.5t51.5 253.5v578q0 132 -88.5 220.5t-220.5 88.5q-119 0 -214 -96.5t-95 -233.5h-64q0 141 -88.5 235.5t-220.5 94.5q-118 0 -202.5 -89t-84.5 -220v-578zM258 1753q0 72 53 125l295 213q78 57 135 57q38 0 103 -45l327 -225 q54 -54 54 -125q0 -78 -59 -127t-126 -49q-65 0 -133 51l-166 127q-22 -15 -77 -55t-87 -61.5t-74 -41.5t-71 -20q-70 0 -122 52.5t-52 123.5zM299 1753q0 -56 39 -95.5t94 -39.5q33 0 86 37q6 6 10 6l213 143l191 -143q57 -43 108 -43q53 0 98.5 37.5t45.5 97.5 q0 49 -37 92q-54 36 -159.5 110.5t-143.5 100.5l-21 12q-4 2 -16.5 10.5t-18 11.5t-15.5 8t-17.5 7t-14.5 2q-43 -3 -110 -49l-295 -213q-37 -40 -37 -92z" />
<glyph unicode="&#xdc;" horiz-adv-x="1482" d="M61 641v578q0 148 97 249t231 101q128 0 222 -73.5t120 -192.5q30 117 128 191.5t212 74.5q151 0 250.5 -99.5t99.5 -250.5v-578q0 -190 -93.5 -347t-249.5 -245t-337 -88q-192 0 -347.5 88.5t-244 244t-88.5 347.5zM102 641q0 -135 49 -253.5t133.5 -203t203 -133.5 t253.5 -49q127 0 244.5 49t204.5 133t138.5 203.5t51.5 253.5v578q0 132 -88.5 220.5t-220.5 88.5q-119 0 -214 -96.5t-95 -233.5h-64q0 141 -88.5 235.5t-220.5 94.5q-118 0 -202.5 -89t-84.5 -220v-578zM213 1812q0 125 71 196t195 71q110 0 178.5 -56.5t83.5 -156.5 q14 100 83.5 156.5t179.5 56.5q124 0 195 -71t71 -196q0 -235 -266 -235q-238 0 -263 182q-28 -182 -262 -182q-266 0 -266 235zM254 1812q0 -194 225 -194q226 0 226 194q0 106 -60 166t-166 60t-165.5 -60t-59.5 -166zM778 1812q0 -194 226 -194q225 0 225 194 q0 106 -59.5 166t-165.5 60t-166 -60t-60 -166z" />
<glyph unicode="&#xdd;" horiz-adv-x="1458" d="M51 1235q0 136 86.5 235t216.5 99q155 0 226 -84q28 -30 75.5 -86.5t75.5 -87.5l174 174q78 78 203 78q130 0 216.5 -96.5t86.5 -231.5q0 -81 -51 -154l-303 -442v-346q0 -131 -97.5 -228.5t-228.5 -97.5q-132 0 -230 97.5t-98 228.5v348q-38 54 -142.5 196.5 t-158.5 221.5q-23 31 -37 84t-14 92zM92 1235q0 -38 11.5 -81t31.5 -71l309 -430v-360q0 -116 85 -200.5t202 -84.5q115 0 200 85t85 200v360l311 453q43 64 43 129q0 119 -75 203t-187 84q-108 0 -174 -66l-203 -203l-182 203q-66 72 -195 72q-113 0 -187.5 -86.5 t-74.5 -206.5zM358 1731q0 53 30 98.5t77 62.5l414 150q15 10 47 10q73 0 123.5 -48.5t50.5 -111.5q0 -51 -32.5 -92t-78.5 -61l-411 -150q-30 -12 -58 -12q-53 0 -107.5 40t-54.5 114zM399 1731q0 -55 40 -84t81 -29q13 0 41 8l416 150q35 13 58.5 44t23.5 72 q0 47 -38.5 83t-94.5 36q-15 0 -27 -4l-422 -152q-35 -12 -56.5 -47t-21.5 -77z" />
<glyph unicode="&#xde;" horiz-adv-x="1390" d="M61 180v1176q0 128 93 215.5t211 87.5q133 0 229 -86.5t96 -216.5v-37h98q127 0 234 -43.5t178 -117t110.5 -171.5t39.5 -207v-26q0 -112 -40 -211t-111.5 -171.5t-178 -114.5t-232.5 -42h-98v-35q0 -130 -96 -216.5t-229 -86.5q-118 0 -211 87.5t-93 215.5zM102 180 q0 -110 80.5 -186t182.5 -76q117 0 200.5 75t83.5 187v76h139q156 0 275.5 67t182.5 180t63 251v26q0 136 -61.5 248.5t-182 181t-277.5 68.5h-139v78q0 112 -83.5 187t-200.5 75q-102 0 -182.5 -76t-80.5 -186v-1176z" />
<glyph unicode="&#xdf;" horiz-adv-x="1538" d="M61 248v1028q0 114 82.5 197t196.5 83h565q254 0 380 -120t126 -332q0 -67 -18.5 -121t-41 -81.5t-41 -55.5t-18.5 -49q0 -19 19 -43t46 -52.5t53.5 -64.5t45.5 -92.5t19 -122.5q0 -102 -27.5 -184t-82.5 -144t-145.5 -95.5t-209.5 -33.5q-137 0 -225.5 99t-88.5 231v8 q0 58 21.5 111.5t52 92t61.5 71t52.5 62t21.5 52.5q0 7 -25.5 33.5t-57.5 59t-65 84.5t-46 104h-39v-725q0 -116 -86 -198.5t-217 -82.5q-117 0 -212.5 83.5t-95.5 197.5zM102 248q0 -96 83 -168t184 -72q114 0 188 70t74 170v766h114q9 -55 33.5 -102.5t52 -78.5t54 -56.5 t44 -46.5t17.5 -38q0 -31 -21.5 -63.5t-52 -64.5t-61.5 -68t-52.5 -86.5t-21.5 -106.5v-8q0 -115 76.5 -202t196.5 -87q214 0 319 112.5t105 303.5q0 66 -19 119t-46 86.5t-53.5 60.5t-45.5 54.5t-19 54.5q0 30 18.5 61t41 57t41 76t18.5 113q0 193 -115.5 302.5 t-349.5 109.5h-565q-98 0 -168 -71t-70 -169v-1028z" />
<glyph unicode="&#xe0;" d="M63 287q0 29 5.5 59t10.5 45l5 15l377 942q19 47 44 83.5t65 70t100.5 51.5t138.5 18q66 0 116.5 -12t81.5 -29t57 -49.5t39.5 -59.5t31.5 -73l376 -942q25 -64 25 -136q0 -56 -18 -104.5t-44 -77t-52 -49.5t-44 -29l-18 -8q-82 -33 -150 -33q-61 0 -114 30t-85.5 72 t-56.5 84.5t-34 72.5l-9 30h-202q-88 -291 -320 -291q-39 0 -78 8.5t-59 17.5l-19 9q-170 100 -170 285zM104 287q0 -26 7 -58t27 -72t50 -72.5t82.5 -54.5t118.5 -22q40 0 76.5 12.5t76.5 43t75 90.5t59 145h270q1 -6 3 -16.5t11.5 -40.5t21.5 -57t34 -60.5t47.5 -57.5 t64 -40.5t82.5 -16.5q54 0 133 29q10 4 22 10.5t37 26.5t44 43.5t34 64t15 86.5q0 65 -20 119q-67 171 -199 499t-178 443q-19 49 -36.5 79t-49.5 61t-82 45t-121 14q-72 0 -126 -15.5t-89.5 -45.5t-57 -62t-38.5 -76l-377 -942q-17 -34 -17 -102zM430 1892q0 63 50.5 111.5 t123.5 48.5q30 0 47 -10l414 -150q47 -17 76.5 -62.5t29.5 -98.5q0 -74 -54 -114t-107 -40q-29 0 -56 12l-413 150q-46 20 -78.5 61t-32.5 92zM471 1892q0 -41 23.5 -72t58.5 -44l414 -150q28 -8 43 -8q41 0 80.5 29t39.5 84q0 42 -21 77t-56 47l-422 152q-12 4 -27 4 q-56 0 -94.5 -36t-38.5 -83z" />
<glyph unicode="&#xe1;" d="M63 287q0 29 5.5 59t10.5 45l5 15l377 942q19 47 44 83.5t65 70t100.5 51.5t138.5 18q66 0 116.5 -12t81.5 -29t57 -49.5t39.5 -59.5t31.5 -73l376 -942q25 -64 25 -136q0 -56 -18 -104.5t-44 -77t-52 -49.5t-44 -29l-18 -8q-82 -33 -150 -33q-61 0 -114 30t-85.5 72 t-56.5 84.5t-34 72.5l-9 30h-202q-88 -291 -320 -291q-39 0 -78 8.5t-59 17.5l-19 9q-170 100 -170 285zM104 287q0 -26 7 -58t27 -72t50 -72.5t82.5 -54.5t118.5 -22q40 0 76.5 12.5t76.5 43t75 90.5t59 145h270q1 -6 3 -16.5t11.5 -40.5t21.5 -57t34 -60.5t47.5 -57.5 t64 -40.5t82.5 -16.5q54 0 133 29q10 4 22 10.5t37 26.5t44 43.5t34 64t15 86.5q0 65 -20 119q-67 171 -199 499t-178 443q-19 49 -36.5 79t-49.5 61t-82 45t-121 14q-72 0 -126 -15.5t-89.5 -45.5t-57 -62t-38.5 -76l-377 -942q-17 -34 -17 -102zM430 1731q0 53 30 98.5 t77 62.5l413 150q15 10 47 10q73 0 123.5 -48.5t50.5 -111.5q0 -51 -32 -92t-78 -61l-412 -150q-30 -12 -57 -12q-53 0 -107.5 40t-54.5 114zM471 1731q0 -55 40 -84t81 -29q13 0 41 8l416 150q35 13 58 44t23 72q0 47 -38.5 83t-94.5 36q-14 0 -26 -4l-422 -152 q-35 -12 -56.5 -47t-21.5 -77z" />
<glyph unicode="&#xe2;" d="M63 287q0 29 5.5 59t10.5 45l5 15l377 942q19 47 44 83.5t65 70t100.5 51.5t138.5 18q66 0 116.5 -12t81.5 -29t57 -49.5t39.5 -59.5t31.5 -73l376 -942q25 -64 25 -136q0 -56 -18 -104.5t-44 -77t-52 -49.5t-44 -29l-18 -8q-82 -33 -150 -33q-61 0 -114 30t-85.5 72 t-56.5 84.5t-34 72.5l-9 30h-202q-88 -291 -320 -291q-39 0 -78 8.5t-59 17.5l-19 9q-170 100 -170 285zM104 287q0 -26 7 -58t27 -72t50 -72.5t82.5 -54.5t118.5 -22q40 0 76.5 12.5t76.5 43t75 90.5t59 145h270q1 -6 3 -16.5t11.5 -40.5t21.5 -57t34 -60.5t47.5 -57.5 t64 -40.5t82.5 -16.5q54 0 133 29q10 4 22 10.5t37 26.5t44 43.5t34 64t15 86.5q0 65 -20 119q-67 171 -199 499t-178 443q-19 49 -36.5 79t-49.5 61t-82 45t-121 14q-72 0 -126 -15.5t-89.5 -45.5t-57 -62t-38.5 -76l-377 -942q-17 -34 -17 -102zM317 1753q0 71 54 125 l295 213q78 57 135 57q37 0 102 -45l328 -225q53 -53 53 -125q0 -78 -58.5 -127t-125.5 -49q-65 0 -133 51l-166 127q-22 -15 -77 -55t-87 -61.5t-74 -41.5t-71 -20q-70 0 -122.5 52.5t-52.5 123.5zM358 1753q0 -56 39.5 -95.5t94.5 -39.5q33 0 86 37q6 6 10 6l213 143 l190 -143q57 -43 109 -43t97.5 37.5t45.5 97.5q0 49 -37 92q-54 36 -159.5 110.5t-143.5 100.5l-20 12q-4 2 -16.5 10.5t-18 11.5t-15.5 8t-17.5 7t-14.5 2q-44 -3 -111 -49l-295 -213q-37 -40 -37 -92z" />
<glyph unicode="&#xe3;" d="M63 287q0 29 5.5 59t10.5 45l5 15l377 942q19 47 44 83.5t65 70t100.5 51.5t138.5 18q66 0 116.5 -12t81.5 -29t57 -49.5t39.5 -59.5t31.5 -73l376 -942q25 -64 25 -136q0 -56 -18 -104.5t-44 -77t-52 -49.5t-44 -29l-18 -8q-82 -33 -150 -33q-61 0 -114 30t-85.5 72 t-56.5 84.5t-34 72.5l-9 30h-202q-88 -291 -320 -291q-39 0 -78 8.5t-59 17.5l-19 9q-170 100 -170 285zM104 287q0 -26 7 -58t27 -72t50 -72.5t82.5 -54.5t118.5 -22q40 0 76.5 12.5t76.5 43t75 90.5t59 145h270q1 -6 3 -16.5t11.5 -40.5t21.5 -57t34 -60.5t47.5 -57.5 t64 -40.5t82.5 -16.5q54 0 133 29q10 4 22 10.5t37 26.5t44 43.5t34 64t15 86.5q0 65 -20 119q-67 171 -199 499t-178 443q-19 49 -36.5 79t-49.5 61t-82 45t-121 14q-72 0 -126 -15.5t-89.5 -45.5t-57 -62t-38.5 -76l-377 -942q-17 -34 -17 -102zM242 1808q0 68 51 130 t128 97.5t154 35.5q124 0 267 -52q68 -22 96 -22q21 0 43 15.5t39 33.5t51 33.5t76 15.5q54 0 97 -24.5t66.5 -62t35.5 -75t12 -69.5q0 -68 -51 -129.5t-127.5 -97t-153.5 -35.5q-135 0 -270 53q-58 20 -94 20q-25 0 -66 -37q-69 -61 -150 -61q-54 0 -95.5 24.5t-64 61.5 t-33.5 74.5t-11 70.5zM283 1808q0 -39 14 -80t53 -75.5t96 -34.5q38 0 68.5 15.5t48 33.5t43.5 33.5t56 15.5q42 0 106 -24q136 -50 258 -50q67 0 134 29.5t112 82t45 110.5q0 27 -9.5 58t-28 61.5t-53.5 50.5t-79 20q-38 0 -68 -15.5t-46.5 -33.5t-41.5 -33.5t-53 -15.5 q-36 0 -109 26q-136 48 -254 48q-67 0 -134 -29.5t-112.5 -82t-45.5 -110.5z" />
<glyph unicode="&#xe4;" d="M63 287q0 29 5.5 59t10.5 45l5 15l377 942q19 47 44 83.5t65 70t100.5 51.5t138.5 18q66 0 116.5 -12t81.5 -29t57 -49.5t39.5 -59.5t31.5 -73l376 -942q25 -64 25 -136q0 -56 -18 -104.5t-44 -77t-52 -49.5t-44 -29l-18 -8q-82 -33 -150 -33q-61 0 -114 30t-85.5 72 t-56.5 84.5t-34 72.5l-9 30h-202q-88 -291 -320 -291q-39 0 -78 8.5t-59 17.5l-19 9q-170 100 -170 285zM104 287q0 -26 7 -58t27 -72t50 -72.5t82.5 -54.5t118.5 -22q40 0 76.5 12.5t76.5 43t75 90.5t59 145h270q1 -6 3 -16.5t11.5 -40.5t21.5 -57t34 -60.5t47.5 -57.5 t64 -40.5t82.5 -16.5q54 0 133 29q10 4 22 10.5t37 26.5t44 43.5t34 64t15 86.5q0 65 -20 119q-67 171 -199 499t-178 443q-19 49 -36.5 79t-49.5 61t-82 45t-121 14q-72 0 -126 -15.5t-89.5 -45.5t-57 -62t-38.5 -76l-377 -942q-17 -34 -17 -102zM272 1812q0 124 71 195.5 t196 71.5q110 0 178.5 -56.5t83.5 -156.5q14 100 83 156.5t179 56.5q124 0 195 -71t71 -196q0 -235 -266 -235q-237 0 -262 182q-28 -182 -262 -182q-267 0 -267 235zM313 1812q0 -194 226 -194q225 0 225 194q0 106 -59.5 166t-165.5 60t-166 -60t-60 -166zM838 1812 q0 -194 225 -194t225 194q0 106 -59.5 166t-165.5 60t-165.5 -60t-59.5 -166z" />
<glyph unicode="&#xe5;" d="M63 287q0 29 5.5 59t10.5 45l5 15l377 942q19 47 44 83.5t65 70t100.5 51.5t138.5 18q66 0 116.5 -12t81.5 -29t57 -49.5t39.5 -59.5t31.5 -73l376 -942q25 -64 25 -136q0 -56 -18 -104.5t-44 -77t-52 -49.5t-44 -29l-18 -8q-82 -33 -150 -33q-61 0 -114 30t-85.5 72 t-56.5 84.5t-34 72.5l-9 30h-202q-88 -291 -320 -291q-39 0 -78 8.5t-59 17.5l-19 9q-170 100 -170 285zM104 287q0 -26 7 -58t27 -72t50 -72.5t82.5 -54.5t118.5 -22q40 0 76.5 12.5t76.5 43t75 90.5t59 145h270q1 -6 3 -16.5t11.5 -40.5t21.5 -57t34 -60.5t47.5 -57.5 t64 -40.5t82.5 -16.5q54 0 133 29q10 4 22 10.5t37 26.5t44 43.5t34 64t15 86.5q0 65 -20 119q-67 171 -199 499t-178 443q-19 49 -36.5 79t-49.5 61t-82 45t-121 14q-72 0 -126 -15.5t-89.5 -45.5t-57 -62t-38.5 -76l-377 -942q-17 -34 -17 -102zM535 1812q0 125 71 196 t195 71t195 -71t71 -196q0 -235 -266 -235t-266 235zM575 1812q0 -194 226 -194q225 0 225 194q0 106 -59.5 166t-165.5 60t-166 -60t-60 -166zM676 1823q0 57 33.5 90t91.5 33t91.5 -33t33.5 -90q0 -113 -125 -113t-125 113zM717 1823q0 -72 84 -72t84 72q0 38 -22 60 t-62 22t-62 -22t-22 -60z" />
<glyph unicode="&#xe6;" horiz-adv-x="2304" d="M51 287q0 51 25.5 105t85.5 132q104 136 315.5 408.5t315.5 408.5q29 38 48.5 60.5t56.5 55.5t73.5 52t90.5 33t116 14h768q115 0 195.5 -84.5t80.5 -214.5q0 -75 -41.5 -137t-105.5 -96q68 -33 107.5 -103.5t39.5 -150.5q0 -78 -40.5 -151t-106.5 -109 q64 -34 105.5 -104.5t41.5 -147.5q0 -128 -79.5 -203t-196.5 -75h-748q-44 0 -84.5 15.5t-70 40t-54.5 54t-41 59t-27.5 54t-16.5 39.5l-5 16h-151q-89 -155 -184.5 -223t-186.5 -68q-39 0 -78 8.5t-59 17.5l-19 9q-170 100 -170 285zM92 287q0 -26 7 -58t27 -72t50 -72.5 t82.5 -54.5t118.5 -22q183 0 346 291h211q1 -6 3 -16t11.5 -39t21.5 -55.5t34 -58.5t47.5 -55t64 -39t82.5 -16h748q101 0 168 64t67 174q0 77 -55 147t-125 89l2 36q82 17 130 86t48 154q0 84 -46.5 150.5t-123.5 83.5l-2 40q69 18 120.5 77.5t51.5 135.5 q0 112 -68.5 185.5t-166.5 73.5h-768q-58 0 -108 -13.5t-82 -29.5t-67 -48.5t-50.5 -51t-45.5 -56.5l-630 -817q-56 -71 -79.5 -119.5t-23.5 -93.5z" />
<glyph unicode="&#xe7;" horiz-adv-x="1546" d="M41 774q0 32 4 71.5t15.5 96t30 113.5t50.5 120.5t72.5 119.5t101 107.5t132 89t168.5 59.5t208 22q189 0 339 -67t236.5 -193t86.5 -291q0 -148 -127 -246q30 -19 56.5 -45t51.5 -80.5t25 -120.5q0 -170 -82.5 -298t-224.5 -196t-324 -75v-12q0 -3 17.5 -12t43 -24.5 t51 -38t43 -60.5t17.5 -84q0 -123 -76 -187.5t-198 -64.5q-117 0 -180.5 49.5t-63.5 138.5q0 67 52 117.5t132 81.5q-51 20 -51 74q0 17 10 34q-112 19 -205 66t-155 107t-110 134.5t-75 144t-43.5 141.5t-22 120.5t-5.5 87.5zM82 774q0 -38 5.5 -85.5t23.5 -118t46.5 -138 t79.5 -139.5t117 -129t165 -100.5t218 -59.5q-49 -49 -49 -65q0 -12 7 -20t17 -14t27 -25t33 -48q-74 -5 -145.5 -54t-71.5 -112q0 -71 52.5 -109t150.5 -38q103 0 168 54.5t65 156.5q0 41 -12.5 72t-32 46.5t-41.5 28.5t-41.5 20.5t-32 21t-12.5 30.5q0 22 6 53 q180 4 320 66t222.5 181.5t82.5 280.5q0 47 -14 87.5t-34 65t-40.5 42t-34.5 24.5l-14 7l-4 35q135 89 135 231q0 152 -81.5 269t-222 179t-317.5 62q-134 0 -245.5 -34t-186.5 -88t-132.5 -127t-90 -144t-53 -146t-27 -127t-6.5 -92z" />
<glyph unicode="&#xe8;" horiz-adv-x="1411" d="M61 281v954q0 7 0.5 18.5t7 44.5t17.5 63.5t35 67.5t57 63.5t86 45t119 18.5h700q115 0 196 -84.5t81 -214.5q0 -74 -42 -136.5t-106 -96.5q68 -33 108 -103.5t40 -150.5q0 -78 -41 -151t-107 -109q64 -34 106 -104.5t42 -147.5q0 -128 -80 -203t-197 -75h-700 q-7 0 -18.5 0.5t-45 6.5t-64 16.5t-67.5 33t-63.5 53t-45 80.5t-18.5 111zM102 281q0 -53 15.5 -96t40.5 -69.5t54.5 -46t59.5 -28.5t55 -14.5t41 -6.5h15h700q101 0 168.5 64t67.5 174q0 77 -55 147t-125 89l2 36q82 17 130 86t48 154q0 84 -46.5 150.5t-123.5 83.5l-2 40 q69 18 120.5 77.5t51.5 135.5q0 112 -69 185.5t-167 73.5h-700q-57 0 -103.5 -15.5t-75 -40.5t-49.5 -54.5t-31 -59.5t-15.5 -55t-6.5 -41v-15v-954zM334 1892q0 63 50.5 111.5t123.5 48.5q30 0 47 -10l414 -150q47 -17 76.5 -62.5t29.5 -98.5q0 -74 -54.5 -114t-107.5 -40 q-28 0 -55 12l-414 150q-46 20 -78 61t-32 92zM375 1892q0 -41 23.5 -72t58.5 -44l413 -150q28 -8 43 -8q41 0 81 29t40 84q0 42 -21.5 77t-56.5 47l-421 152q-12 4 -27 4q-56 0 -94.5 -36t-38.5 -83z" />
<glyph unicode="&#xe9;" horiz-adv-x="1411" d="M61 281v954q0 7 0.5 18.5t7 44.5t17.5 63.5t35 67.5t57 63.5t86 45t119 18.5h700q115 0 196 -84.5t81 -214.5q0 -74 -42 -136.5t-106 -96.5q68 -33 108 -103.5t40 -150.5q0 -78 -41 -151t-107 -109q64 -34 106 -104.5t42 -147.5q0 -128 -80 -203t-197 -75h-700 q-7 0 -18.5 0.5t-45 6.5t-64 16.5t-67.5 33t-63.5 53t-45 80.5t-18.5 111zM102 281q0 -53 15.5 -96t40.5 -69.5t54.5 -46t59.5 -28.5t55 -14.5t41 -6.5h15h700q101 0 168.5 64t67.5 174q0 77 -55 147t-125 89l2 36q82 17 130 86t48 154q0 84 -46.5 150.5t-123.5 83.5l-2 40 q69 18 120.5 77.5t51.5 135.5q0 112 -69 185.5t-167 73.5h-700q-57 0 -103.5 -15.5t-75 -40.5t-49.5 -54.5t-31 -59.5t-15.5 -55t-6.5 -41v-15v-954zM334 1731q0 53 29.5 98.5t76.5 62.5l414 150q15 10 47 10q73 0 123.5 -48.5t50.5 -111.5q0 -51 -32 -92t-78 -61l-412 -150 q-30 -12 -57 -12q-53 0 -107.5 40t-54.5 114zM375 1731q0 -55 40 -84t81 -29q13 0 41 8l415 150q35 13 58.5 44t23.5 72q0 47 -38.5 83t-94.5 36q-15 0 -27 -4l-421 -152q-35 -12 -56.5 -47t-21.5 -77z" />
<glyph unicode="&#xea;" horiz-adv-x="1411" d="M61 281v954q0 7 0.5 18.5t7 44.5t17.5 63.5t35 67.5t57 63.5t86 45t119 18.5h700q115 0 196 -84.5t81 -214.5q0 -74 -42 -136.5t-106 -96.5q68 -33 108 -103.5t40 -150.5q0 -78 -41 -151t-107 -109q64 -34 106 -104.5t42 -147.5q0 -128 -80 -203t-197 -75h-700 q-7 0 -18.5 0.5t-45 6.5t-64 16.5t-67.5 33t-63.5 53t-45 80.5t-18.5 111zM102 281q0 -53 15.5 -96t40.5 -69.5t54.5 -46t59.5 -28.5t55 -14.5t41 -6.5h15h700q101 0 168.5 64t67.5 174q0 77 -55 147t-125 89l2 36q82 17 130 86t48 154q0 84 -46.5 150.5t-123.5 83.5l-2 40 q69 18 120.5 77.5t51.5 135.5q0 112 -69 185.5t-167 73.5h-700q-57 0 -103.5 -15.5t-75 -40.5t-49.5 -54.5t-31 -59.5t-15.5 -55t-6.5 -41v-15v-954zM221 1753q0 72 53 125l295 213q78 57 136 57q37 0 102 -45l328 -225q53 -53 53 -125q0 -78 -58.5 -127t-125.5 -49 q-66 0 -134 51l-165 127q-21 -14 -76.5 -54.5t-87.5 -62t-74.5 -41.5t-71.5 -20q-70 0 -122 52.5t-52 123.5zM262 1753q0 -56 39 -95.5t94 -39.5q33 0 86 37q6 6 11 6l213 143l190 -143q57 -43 109 -43t97.5 37.5t45.5 97.5q0 49 -37 92q-54 36 -159.5 110.5t-143.5 100.5 l-21 12q-5 3 -16.5 10.5t-17.5 11t-15.5 8.5t-17 7t-14.5 2q-44 -3 -111 -49l-295 -213q-37 -40 -37 -92z" />
<glyph unicode="&#xeb;" horiz-adv-x="1411" d="M61 281v954q0 7 0.5 18.5t7 44.5t17.5 63.5t35 67.5t57 63.5t86 45t119 18.5h700q115 0 196 -84.5t81 -214.5q0 -74 -42 -136.5t-106 -96.5q68 -33 108 -103.5t40 -150.5q0 -78 -41 -151t-107 -109q64 -34 106 -104.5t42 -147.5q0 -128 -80 -203t-197 -75h-700 q-7 0 -18.5 0.5t-45 6.5t-64 16.5t-67.5 33t-63.5 53t-45 80.5t-18.5 111zM102 281q0 -53 15.5 -96t40.5 -69.5t54.5 -46t59.5 -28.5t55 -14.5t41 -6.5h15h700q101 0 168.5 64t67.5 174q0 77 -55 147t-125 89l2 36q82 17 130 86t48 154q0 84 -46.5 150.5t-123.5 83.5l-2 40 q69 18 120.5 77.5t51.5 135.5q0 112 -69 185.5t-167 73.5h-700q-57 0 -103.5 -15.5t-75 -40.5t-49.5 -54.5t-31 -59.5t-15.5 -55t-6.5 -41v-15v-954zM176 1812q0 125 71 196t195 71q110 0 179 -56.5t84 -156.5q14 100 83 156.5t179 56.5q124 0 195 -71t71 -196 q0 -235 -266 -235q-237 0 -262 182q-28 -182 -263 -182q-266 0 -266 235zM217 1812q0 -194 225 -194q226 0 226 194q0 106 -60 166t-166 60t-165.5 -60t-59.5 -166zM741 1812q0 -194 226 -194q225 0 225 194q0 106 -59.5 166t-165.5 60t-166 -60t-60 -166z" />
<glyph unicode="&#xec;" horiz-adv-x="821" d="M39 1892q0 63 50.5 111.5t123.5 48.5q29 0 47 -10l414 -150q47 -17 76.5 -62.5t29.5 -98.5q0 -74 -54.5 -114t-107.5 -40q-28 0 -55 12l-413 150q-46 20 -78.5 61t-32.5 92zM61 317v902q0 151 100 250.5t251 99.5t250.5 -99.5t99.5 -250.5v-902q0 -151 -99.5 -250.5 t-250.5 -99.5t-251 99.5t-100 250.5zM80 1892q0 -41 23.5 -72t58.5 -44l413 -150q28 -8 43 -8q41 0 81 29t40 84q0 42 -21 77t-56 47l-422 152q-12 4 -27 4q-56 0 -94.5 -36t-38.5 -83zM102 317q0 -132 89 -220.5t221 -88.5t220.5 88.5t88.5 220.5v902q0 132 -88.5 220.5 t-220.5 88.5t-221 -88.5t-89 -220.5v-902z" />
<glyph unicode="&#xed;" horiz-adv-x="821" d="M39 1731q0 53 29.5 98.5t76.5 62.5l414 150q15 10 47 10q73 0 123.5 -48.5t50.5 -111.5q0 -51 -32 -92t-78 -61l-412 -150q-30 -12 -57 -12q-53 0 -107.5 40t-54.5 114zM61 317v902q0 151 100 250.5t251 99.5t250.5 -99.5t99.5 -250.5v-902q0 -151 -99.5 -250.5 t-250.5 -99.5t-251 99.5t-100 250.5zM80 1731q0 -55 40 -84t81 -29q13 0 41 8l415 150q35 13 58.5 44t23.5 72q0 47 -38.5 83t-94.5 36q-14 0 -26 -4l-422 -152q-35 -12 -56.5 -47t-21.5 -77zM102 317q0 -132 89 -220.5t221 -88.5t220.5 88.5t88.5 220.5v902 q0 132 -88.5 220.5t-220.5 88.5t-221 -88.5t-89 -220.5v-902z" />
<glyph unicode="&#xee;" horiz-adv-x="821" d="M-72 1753q0 71 54 125l294 213q78 57 136 57q37 0 102 -45l328 -225q53 -53 53 -125q0 -78 -58.5 -127t-125.5 -49q-65 0 -133 51l-166 127q-21 -14 -76.5 -54.5t-87.5 -62t-74.5 -41.5t-71.5 -20q-70 0 -122 52.5t-52 123.5zM-31 1753q0 -56 39 -95.5t94 -39.5 q33 0 86 37q6 6 11 6l213 143l190 -143q57 -43 109 -43t97.5 37.5t45.5 97.5q0 49 -37 92q-54 36 -159.5 110.5t-143.5 100.5l-20 12q-4 2 -16.5 10.5t-18 11.5t-15.5 8t-17.5 7t-14.5 2q-44 -3 -111 -49l-295 -213q-37 -40 -37 -92zM61 317v902q0 151 100 250.5t251 99.5 t250.5 -99.5t99.5 -250.5v-902q0 -151 -99.5 -250.5t-250.5 -99.5t-251 99.5t-100 250.5zM102 317q0 -132 89 -220.5t221 -88.5t220.5 88.5t88.5 220.5v902q0 132 -88.5 220.5t-220.5 88.5t-221 -88.5t-89 -220.5v-902z" />
<glyph unicode="&#xef;" horiz-adv-x="821" d="M-117 1812q0 124 71.5 195.5t195.5 71.5q110 0 178.5 -56.5t83.5 -156.5q14 100 83 156.5t179 56.5q124 0 195 -71t71 -196q0 -235 -266 -235q-237 0 -262 182q-28 -182 -262 -182q-267 0 -267 235zM-76 1812q0 -194 226 -194q225 0 225 194q0 106 -59.5 166t-165.5 60 t-166 -60t-60 -166zM61 317v902q0 151 100 250.5t251 99.5t250.5 -99.5t99.5 -250.5v-902q0 -151 -99.5 -250.5t-250.5 -99.5t-251 99.5t-100 250.5zM102 317q0 -132 89 -220.5t221 -88.5t220.5 88.5t88.5 220.5v902q0 132 -88.5 220.5t-220.5 88.5t-221 -88.5t-89 -220.5 v-902zM449 1812q0 -194 225 -194t225 194q0 106 -59.5 166t-165.5 60t-165.5 -60t-59.5 -166z" />
<glyph unicode="&#xf0;" horiz-adv-x="1761" d="M10 766q0 98 83 181t183 83h15v199q0 135 85.5 231t217.5 96h399q52 0 102.5 -4.5t126.5 -23t140 -50t132.5 -91.5t116 -140t78.5 -203.5t31 -275.5q0 -147 -29 -268t-74.5 -201t-110.5 -140t-128 -93t-136 -53t-125 -25.5t-105 -5.5h-418q-129 0 -216 92t-87 211v215 h-15q-106 0 -186 73.5t-80 192.5zM51 766q0 -101 67.5 -163t157.5 -62h56v-256q0 -103 75.5 -184t186.5 -81h410q49 0 97.5 5t118.5 23.5t130 49t122.5 87.5t106.5 133t72 192t28 258q0 144 -29 261.5t-74.5 193.5t-110 133t-125 86.5t-132.5 47t-119 22t-96 4.5h-399 q-115 0 -188.5 -83.5t-73.5 -203.5v-240h-56q-85 0 -155 -70t-70 -153z" />
<glyph unicode="&#xf1;" horiz-adv-x="1460" d="M61 246v1044q0 112 94 195.5t210 83.5q73 0 142 -34.5t109 -90.5l177 -252v74q0 134 84.5 218.5t218.5 84.5q132 0 217.5 -85t85.5 -218v-1016q0 -118 -86 -200.5t-217 -82.5q-72 0 -143.5 36t-108.5 91q-38 56 -176 271v-119q0 -112 -93.5 -195.5t-209.5 -83.5 q-130 0 -217 81.5t-87 197.5zM102 246q0 -99 75 -168.5t188 -69.5q101 0 181.5 71t80.5 167v256l250 -387q30 -49 91 -78t128 -29q114 0 188 70.5t74 171.5v1016q0 115 -74 188.5t-188 73.5q-116 0 -189 -73t-73 -189v-209l-250 362q-34 48 -94.5 78.5t-124.5 30.5 q-101 0 -182 -71t-81 -167v-1044zM172 1808q0 68 51.5 130t128.5 97.5t154 35.5q123 0 266 -52q68 -22 96 -22q21 0 43 15.5t39 33.5t51 33.5t76 15.5q54 0 97 -24.5t66.5 -62t35.5 -75t12 -69.5q0 -68 -51 -129.5t-127.5 -97t-153.5 -35.5q-135 0 -270 53q-58 20 -94 20 q-25 0 -66 -37q-21 -19 -37 -30t-46.5 -21t-65.5 -10q-43 0 -79 16.5t-59 41.5t-38.5 57t-22 61t-6.5 55zM213 1808q0 -22 5 -46t17.5 -50t30.5 -46.5t47 -34t64 -13.5q38 0 68.5 15.5t47.5 33.5t43 33.5t56 15.5q42 0 106 -24q136 -50 258 -50q67 0 134 29.5t112 82 t45 110.5q0 27 -9.5 58t-28 61.5t-53.5 50.5t-79 20q-38 0 -68 -15.5t-46.5 -33.5t-41.5 -33.5t-53 -15.5q-35 0 -108 26q-136 48 -254 48q-104 0 -198.5 -67.5t-94.5 -154.5z" />
<glyph unicode="&#xf2;" horiz-adv-x="1714" d="M41 758q0 229 111 417t298 293t408 105q164 0 314 -62t261.5 -169t177.5 -259.5t66 -324.5q0 -165 -66 -313t-177 -253.5t-262 -167t-314 -61.5q-165 0 -315.5 61.5t-260.5 167t-175.5 253.5t-65.5 313zM82 758q0 -156 61.5 -296t166 -240.5t248 -159t300.5 -58.5 q156 0 299 58.5t248.5 158.5t168 240.5t62.5 296.5q0 163 -62.5 307.5t-168 246.5t-248.5 161t-299 59q-211 0 -388.5 -100t-282.5 -278.5t-105 -395.5zM485 1892q0 63 50.5 111.5t123.5 48.5q31 0 48 -10l413 -150q47 -17 77 -62.5t30 -98.5q0 -74 -54.5 -114t-107.5 -40 q-28 0 -55 12l-414 150q-46 20 -78.5 61t-32.5 92zM526 1892q0 -41 23.5 -72t58.5 -44l414 -150q28 -8 43 -8q41 0 81 29t40 84q0 42 -21.5 77t-56.5 47l-422 152q-12 4 -27 4q-56 0 -94.5 -36t-38.5 -83z" />
<glyph unicode="&#xf3;" horiz-adv-x="1714" d="M41 758q0 229 111 417t298 293t408 105q164 0 314 -62t261.5 -169t177.5 -259.5t66 -324.5q0 -165 -66 -313t-177 -253.5t-262 -167t-314 -61.5q-165 0 -315.5 61.5t-260.5 167t-175.5 253.5t-65.5 313zM82 758q0 -156 61.5 -296t166 -240.5t248 -159t300.5 -58.5 q156 0 299 58.5t248.5 158.5t168 240.5t62.5 296.5q0 163 -62.5 307.5t-168 246.5t-248.5 161t-299 59q-211 0 -388.5 -100t-282.5 -278.5t-105 -395.5zM485 1731q0 53 30 98.5t77 62.5l414 150q15 10 47 10q73 0 123.5 -48.5t50.5 -111.5q0 -51 -32.5 -92t-78.5 -61 l-411 -150q-30 -12 -58 -12q-53 0 -107.5 40t-54.5 114zM526 1731q0 -55 40 -84t81 -29q13 0 41 8l416 150q35 13 58.5 44t23.5 72q0 47 -38.5 83t-94.5 36q-15 0 -27 -4l-422 -152q-35 -12 -56.5 -47t-21.5 -77z" />
<glyph unicode="&#xf4;" horiz-adv-x="1714" d="M41 758q0 229 111 417t298 293t408 105q164 0 314 -62t261.5 -169t177.5 -259.5t66 -324.5q0 -165 -66 -313t-177 -253.5t-262 -167t-314 -61.5q-165 0 -315.5 61.5t-260.5 167t-175.5 253.5t-65.5 313zM82 758q0 -156 61.5 -296t166 -240.5t248 -159t300.5 -58.5 q156 0 299 58.5t248.5 158.5t168 240.5t62.5 296.5q0 163 -62.5 307.5t-168 246.5t-248.5 161t-299 59q-211 0 -388.5 -100t-282.5 -278.5t-105 -395.5zM373 1753q0 72 53 125l295 213q78 57 135 57q37 0 102 -45l328 -225q53 -53 53 -125q0 -78 -58.5 -127t-125.5 -49 q-65 0 -133 51l-166 127q-22 -15 -77 -55t-87 -61.5t-74 -41.5t-71 -20q-70 0 -122 52.5t-52 123.5zM414 1753q0 -56 39 -95.5t94 -39.5q33 0 86 37q6 6 10 6l213 143l191 -143q57 -43 108 -43q52 0 97.5 37.5t45.5 97.5q0 50 -36 92q-54 37 -160.5 111.5t-143.5 99.5 l-20 12q-4 2 -16.5 10.5t-18 11.5t-15.5 8t-17.5 7t-14.5 2q-44 -3 -111 -49l-294 -213q-37 -40 -37 -92z" />
<glyph unicode="&#xf5;" horiz-adv-x="1714" d="M41 758q0 229 111 417t298 293t408 105q164 0 314 -62t261.5 -169t177.5 -259.5t66 -324.5q0 -165 -66 -313t-177 -253.5t-262 -167t-314 -61.5q-165 0 -315.5 61.5t-260.5 167t-175.5 253.5t-65.5 313zM82 758q0 -156 61.5 -296t166 -240.5t248 -159t300.5 -58.5 q156 0 299 58.5t248.5 158.5t168 240.5t62.5 296.5q0 163 -62.5 307.5t-168 246.5t-248.5 161t-299 59q-211 0 -388.5 -100t-282.5 -278.5t-105 -395.5zM299 1808q0 68 51.5 130t128.5 97.5t154 35.5q123 0 266 -52q68 -22 96 -22q21 0 43 15.5t39 33.5t51 33.5t76 15.5 q54 0 97 -24.5t66.5 -62t35.5 -75t12 -69.5q0 -68 -51 -129.5t-127.5 -97t-153.5 -35.5q-135 0 -270 53q-58 20 -94 20q-25 0 -66 -37q-21 -19 -37 -30t-46.5 -21t-65.5 -10q-43 0 -79 16.5t-59 41.5t-38.5 57t-22 61t-6.5 55zM340 1808q0 -22 5 -46t17.5 -50t30.5 -46.5 t47 -34t64 -13.5q38 0 68.5 15.5t47.5 33.5t43 33.5t56 15.5q41 0 106 -24q136 -50 258 -50q67 0 134 29.5t112 82t45 110.5q0 27 -9.5 58t-28 61.5t-53.5 50.5t-79 20q-38 0 -68 -15.5t-46.5 -33.5t-41.5 -33.5t-53 -15.5q-35 0 -108 26q-136 48 -254 48 q-104 0 -198.5 -67.5t-94.5 -154.5z" />
<glyph unicode="&#xf6;" horiz-adv-x="1714" d="M41 758q0 229 111 417t298 293t408 105q164 0 314 -62t261.5 -169t177.5 -259.5t66 -324.5q0 -165 -66 -313t-177 -253.5t-262 -167t-314 -61.5q-165 0 -315.5 61.5t-260.5 167t-175.5 253.5t-65.5 313zM82 758q0 -156 61.5 -296t166 -240.5t248 -159t300.5 -58.5 q156 0 299 58.5t248.5 158.5t168 240.5t62.5 296.5q0 163 -62.5 307.5t-168 246.5t-248.5 161t-299 59q-211 0 -388.5 -100t-282.5 -278.5t-105 -395.5zM328 1812q0 125 71 196t195 71q110 0 178.5 -56.5t83.5 -156.5q14 100 83 156.5t179 56.5q124 0 195 -71t71 -196 q0 -235 -266 -235q-237 0 -262 182q-28 -182 -262 -182q-266 0 -266 235zM369 1812q0 -194 225 -194t225 194q0 106 -59.5 166t-165.5 60t-165.5 -60t-59.5 -166zM893 1812q0 -194 225 -194t225 194q0 106 -59.5 166t-165.5 60t-165.5 -60t-59.5 -166z" />
<glyph unicode="&#xf7;" horiz-adv-x="626" d="M-307 770q0 98 83 181t183 83h711q100 0 183 -83t83 -181q0 -119 -80 -192.5t-186 -73.5h-711q-106 0 -186 73.5t-80 192.5zM-266 770q0 -101 67.5 -163t157.5 -62h711q90 0 157.5 62t67.5 163q0 83 -70 153t-155 70h-711q-85 0 -155 -70t-70 -153zM51 236 q0 124 70.5 195t195.5 71t196 -71t71 -195q0 -236 -267 -236q-266 0 -266 236zM51 1268q0 124 70.5 195t195.5 71t196 -71t71 -195q0 -236 -267 -236q-266 0 -266 236zM92 236q0 -195 225 -195q226 0 226 195q0 106 -60 165.5t-166 59.5t-165.5 -59.5t-59.5 -165.5zM92 1268 q0 -195 225 -195q226 0 226 195q0 106 -60 165.5t-166 59.5t-165.5 -59.5t-59.5 -165.5z" />
<glyph unicode="&#xf8;" horiz-adv-x="1714" d="M41 758q0 229 111 417t298 293t408 105q71 0 123 -8q39 68 100.5 105.5t137.5 37.5q125 0 185 -74t60 -186q0 -68 -22 -117q111 -112 173 -259t62 -314q0 -165 -66 -313t-177 -253.5t-262 -167t-314 -61.5q-43 0 -117 8q-35 -49 -102 -79.5t-135 -30.5q-104 0 -174 79 t-70 195q0 37 8 70q-109 107 -168 248.5t-59 304.5zM82 758q0 -156 61 -295.5t170 -245.5q-12 -35 -12 -82q0 -97 58.5 -165t144.5 -68q66 0 126.5 30.5t88.5 83.5q73 -12 139 -12q156 0 299 58.5t248.5 158.5t168 240.5t62.5 296.5q0 164 -64 310t-179 255q30 66 30 125 q0 95 -49.5 157t-154.5 62q-69 0 -126.5 -40t-91.5 -109q-69 14 -143 14q-211 0 -388.5 -100t-282.5 -278.5t-105 -395.5z" />
<glyph unicode="&#xf9;" horiz-adv-x="1482" d="M61 641v578q0 148 97 249t231 101q128 0 222 -73.5t120 -192.5q30 117 128 191.5t212 74.5q151 0 250.5 -99.5t99.5 -250.5v-578q0 -190 -93.5 -347t-249.5 -245t-337 -88q-192 0 -347.5 88.5t-244 244t-88.5 347.5zM102 641q0 -135 49 -253.5t133.5 -203t203 -133.5 t253.5 -49q127 0 244.5 49t204.5 133t138.5 203.5t51.5 253.5v578q0 132 -88.5 220.5t-220.5 88.5q-119 0 -214 -96.5t-95 -233.5h-64q0 141 -88.5 235.5t-220.5 94.5q-118 0 -202.5 -89t-84.5 -220v-578zM371 1892q0 63 50.5 111.5t123.5 48.5q29 0 47 -10l414 -150 q47 -17 76.5 -62.5t29.5 -98.5q0 -74 -54.5 -114t-107.5 -40q-28 0 -55 12l-414 150q-46 20 -78 61t-32 92zM412 1892q0 -41 23.5 -72t58.5 -44l413 -150q28 -8 43 -8q41 0 81 29t40 84q0 42 -21.5 77t-56.5 47l-422 152q-12 4 -26 4q-56 0 -94.5 -36t-38.5 -83z" />
<glyph unicode="&#xfa;" horiz-adv-x="1482" d="M61 641v578q0 148 97 249t231 101q128 0 222 -73.5t120 -192.5q30 117 128 191.5t212 74.5q151 0 250.5 -99.5t99.5 -250.5v-578q0 -190 -93.5 -347t-249.5 -245t-337 -88q-192 0 -347.5 88.5t-244 244t-88.5 347.5zM102 641q0 -135 49 -253.5t133.5 -203t203 -133.5 t253.5 -49q127 0 244.5 49t204.5 133t138.5 203.5t51.5 253.5v578q0 132 -88.5 220.5t-220.5 88.5q-119 0 -214 -96.5t-95 -233.5h-64q0 141 -88.5 235.5t-220.5 94.5q-118 0 -202.5 -89t-84.5 -220v-578zM371 1731q0 53 29.5 98.5t76.5 62.5l414 150q15 10 47 10 q73 0 123.5 -48.5t50.5 -111.5q0 -51 -32.5 -92t-78.5 -61l-411 -150q-30 -12 -58 -12q-53 0 -107 40t-54 114zM412 1731q0 -55 39.5 -84t80.5 -29q13 0 41 8l416 150q35 13 58.5 44t23.5 72q0 47 -38.5 83t-94.5 36q-15 0 -27 -4l-422 -152q-35 -12 -56 -47t-21 -77z" />
<glyph unicode="&#xfb;" horiz-adv-x="1482" d="M61 641v578q0 148 97 249t231 101q128 0 222 -73.5t120 -192.5q30 117 128 191.5t212 74.5q151 0 250.5 -99.5t99.5 -250.5v-578q0 -190 -93.5 -347t-249.5 -245t-337 -88q-192 0 -347.5 88.5t-244 244t-88.5 347.5zM102 641q0 -135 49 -253.5t133.5 -203t203 -133.5 t253.5 -49q127 0 244.5 49t204.5 133t138.5 203.5t51.5 253.5v578q0 132 -88.5 220.5t-220.5 88.5q-119 0 -214 -96.5t-95 -233.5h-64q0 141 -88.5 235.5t-220.5 94.5q-118 0 -202.5 -89t-84.5 -220v-578zM258 1753q0 72 53 125l295 213q78 57 135 57q38 0 103 -45l327 -225 q54 -54 54 -125q0 -78 -59 -127t-126 -49q-65 0 -133 51l-166 127q-22 -15 -77 -55t-87 -61.5t-74 -41.5t-71 -20q-70 0 -122 52.5t-52 123.5zM299 1753q0 -56 39 -95.5t94 -39.5q33 0 86 37q6 6 10 6l213 143l191 -143q57 -43 108 -43q53 0 98.5 37.5t45.5 97.5 q0 49 -37 92q-54 36 -159.5 110.5t-143.5 100.5l-21 12q-4 2 -16.5 10.5t-18 11.5t-15.5 8t-17.5 7t-14.5 2q-43 -3 -110 -49l-295 -213q-37 -40 -37 -92z" />
<glyph unicode="&#xfc;" horiz-adv-x="1482" d="M61 641v578q0 148 97 249t231 101q128 0 222 -73.5t120 -192.5q30 117 128 191.5t212 74.5q151 0 250.5 -99.5t99.5 -250.5v-578q0 -190 -93.5 -347t-249.5 -245t-337 -88q-192 0 -347.5 88.5t-244 244t-88.5 347.5zM102 641q0 -135 49 -253.5t133.5 -203t203 -133.5 t253.5 -49q127 0 244.5 49t204.5 133t138.5 203.5t51.5 253.5v578q0 132 -88.5 220.5t-220.5 88.5q-119 0 -214 -96.5t-95 -233.5h-64q0 141 -88.5 235.5t-220.5 94.5q-118 0 -202.5 -89t-84.5 -220v-578zM213 1812q0 125 71 196t195 71q110 0 178.5 -56.5t83.5 -156.5 q14 100 83.5 156.5t179.5 56.5q124 0 195 -71t71 -196q0 -235 -266 -235q-238 0 -263 182q-28 -182 -262 -182q-266 0 -266 235zM254 1812q0 -194 225 -194q226 0 226 194q0 106 -60 166t-166 60t-165.5 -60t-59.5 -166zM778 1812q0 -194 226 -194q225 0 225 194 q0 106 -59.5 166t-165.5 60t-166 -60t-60 -166z" />
<glyph unicode="&#xfd;" horiz-adv-x="1458" d="M51 1235q0 136 86.5 235t216.5 99q155 0 226 -84q28 -30 75.5 -86.5t75.5 -87.5l174 174q78 78 203 78q130 0 216.5 -96.5t86.5 -231.5q0 -81 -51 -154l-303 -442v-346q0 -131 -97.5 -228.5t-228.5 -97.5q-132 0 -230 97.5t-98 228.5v348q-38 54 -142.5 196.5 t-158.5 221.5q-23 31 -37 84t-14 92zM92 1235q0 -38 11.5 -81t31.5 -71l309 -430v-360q0 -116 85 -200.5t202 -84.5q115 0 200 85t85 200v360l311 453q43 64 43 129q0 119 -75 203t-187 84q-108 0 -174 -66l-203 -203l-182 203q-66 72 -195 72q-113 0 -187.5 -86.5 t-74.5 -206.5zM358 1731q0 53 30 98.5t77 62.5l414 150q15 10 47 10q73 0 123.5 -48.5t50.5 -111.5q0 -51 -32.5 -92t-78.5 -61l-411 -150q-30 -12 -58 -12q-53 0 -107.5 40t-54.5 114zM399 1731q0 -55 40 -84t81 -29q13 0 41 8l416 150q35 13 58.5 44t23.5 72 q0 47 -38.5 83t-94.5 36q-15 0 -27 -4l-422 -152q-35 -12 -56.5 -47t-21.5 -77z" />
<glyph unicode="&#xfe;" horiz-adv-x="1382" d="M61 180v1176q0 128 93 215.5t211 87.5q133 0 229 -86.5t96 -216.5v-37h98q127 0 234 -43.5t178 -117t110.5 -171.5t39.5 -207v-26q0 -112 -40 -211t-111.5 -171.5t-178 -114.5t-232.5 -42h-98v-35q0 -130 -96 -216.5t-229 -86.5q-118 0 -211 87.5t-93 215.5zM102 180 q0 -110 80.5 -186t182.5 -76q117 0 200.5 75t83.5 187v76h139q156 0 275.5 67t182.5 180t63 251v26q0 136 -61.5 248.5t-182 181t-277.5 68.5h-139v78q0 112 -83.5 187t-200.5 75q-102 0 -182.5 -76t-80.5 -186v-1176z" />
<glyph unicode="&#xff;" horiz-adv-x="1458" d="M51 1235q0 136 86.5 235t216.5 99q155 0 226 -84q28 -30 75.5 -86.5t75.5 -87.5l174 174q78 78 203 78q130 0 216.5 -96.5t86.5 -231.5q0 -81 -51 -154l-303 -442v-346q0 -131 -97.5 -228.5t-228.5 -97.5q-132 0 -230 97.5t-98 228.5v348q-38 54 -142.5 196.5 t-158.5 221.5q-23 31 -37 84t-14 92zM92 1235q0 -38 11.5 -81t31.5 -71l309 -430v-360q0 -116 85 -200.5t202 -84.5q115 0 200 85t85 200v360l311 453q43 64 43 129q0 119 -75 203t-187 84q-108 0 -174 -66l-203 -203l-182 203q-66 72 -195 72q-113 0 -187.5 -86.5 t-74.5 -206.5zM201 1812q0 125 71 196t195 71q110 0 178.5 -56.5t83.5 -156.5q14 100 83 156.5t179 56.5q124 0 195 -71t71 -196q0 -235 -266 -235q-237 0 -262 182q-28 -182 -262 -182q-266 0 -266 235zM242 1812q0 -194 225 -194t225 194q0 106 -59.5 166t-165.5 60 t-165.5 -60t-59.5 -166zM766 1812q0 -194 225 -194q226 0 226 194q0 106 -60 166t-166 60t-165.5 -60t-59.5 -166z" />
<glyph unicode="&#x152;" horiz-adv-x="2779" d="M41 758q0 229 111 417t298 293t408 105q164 0 310 -58.5t259 -168.5q71 210 304 210h700q115 0 195.5 -84.5t80.5 -214.5q0 -75 -41.5 -137t-105.5 -96q68 -33 107.5 -103.5t39.5 -150.5q0 -78 -40.5 -151t-106.5 -109q64 -34 105.5 -104.5t41.5 -147.5 q0 -128 -79.5 -203t-196.5 -75h-719q-25 0 -51 2.5t-67.5 14.5t-74 32t-61 59t-37.5 92q-111 -104 -256.5 -160.5t-306.5 -56.5q-165 0 -315.5 61.5t-260.5 167t-175.5 253.5t-65.5 313zM82 758q0 -156 61.5 -296t166 -240.5t248 -159t300.5 -58.5q161 0 315 68.5t275 191.5 q9 -50 29 -90.5t46 -65t54.5 -43t55.5 -26.5t49 -13t36 -6h13h700q101 0 168 64t67 174q0 77 -55 147t-125 89l2 36q82 17 130 86t48 154q0 84 -46 150.5t-123 83.5l-3 40q69 18 120.5 77.5t51.5 135.5q0 112 -68.5 185.5t-166.5 73.5h-700q-55 0 -101 -17t-75 -42.5 t-51.5 -61.5t-34 -66t-19.5 -63q-121 126 -275 196t-317 70q-211 0 -388.5 -100t-282.5 -278.5t-105 -395.5z" />
<glyph unicode="&#x153;" horiz-adv-x="2779" d="M41 758q0 229 111 417t298 293t408 105q164 0 310 -58.5t259 -168.5q71 210 304 210h700q115 0 195.5 -84.5t80.5 -214.5q0 -75 -41.5 -137t-105.5 -96q68 -33 107.5 -103.5t39.5 -150.5q0 -78 -40.5 -151t-106.5 -109q64 -34 105.5 -104.5t41.5 -147.5 q0 -128 -79.5 -203t-196.5 -75h-719q-25 0 -51 2.5t-67.5 14.5t-74 32t-61 59t-37.5 92q-111 -104 -256.5 -160.5t-306.5 -56.5q-165 0 -315.5 61.5t-260.5 167t-175.5 253.5t-65.5 313zM82 758q0 -156 61.5 -296t166 -240.5t248 -159t300.5 -58.5q161 0 315 68.5t275 191.5 q9 -50 29 -90.5t46 -65t54.5 -43t55.5 -26.5t49 -13t36 -6h13h700q101 0 168 64t67 174q0 77 -55 147t-125 89l2 36q82 17 130 86t48 154q0 84 -46 150.5t-123 83.5l-3 40q69 18 120.5 77.5t51.5 135.5q0 112 -68.5 185.5t-166.5 73.5h-700q-55 0 -101 -17t-75 -42.5 t-51.5 -61.5t-34 -66t-19.5 -63q-121 126 -275 196t-317 70q-211 0 -388.5 -100t-282.5 -278.5t-105 -395.5z" />
<glyph unicode="&#x178;" horiz-adv-x="1458" d="M51 1235q0 136 86.5 235t216.5 99q155 0 226 -84q28 -30 75.5 -86.5t75.5 -87.5l174 174q78 78 203 78q130 0 216.5 -96.5t86.5 -231.5q0 -81 -51 -154l-303 -442v-346q0 -131 -97.5 -228.5t-228.5 -97.5q-132 0 -230 97.5t-98 228.5v348q-38 54 -142.5 196.5 t-158.5 221.5q-23 31 -37 84t-14 92zM92 1235q0 -38 11.5 -81t31.5 -71l309 -430v-360q0 -116 85 -200.5t202 -84.5q115 0 200 85t85 200v360l311 453q43 64 43 129q0 119 -75 203t-187 84q-108 0 -174 -66l-203 -203l-182 203q-66 72 -195 72q-113 0 -187.5 -86.5 t-74.5 -206.5zM201 1812q0 125 71 196t195 71q110 0 178.5 -56.5t83.5 -156.5q14 100 83 156.5t179 56.5q124 0 195 -71t71 -196q0 -235 -266 -235q-237 0 -262 182q-28 -182 -262 -182q-266 0 -266 235zM242 1812q0 -194 225 -194t225 194q0 106 -59.5 166t-165.5 60 t-165.5 -60t-59.5 -166zM766 1812q0 -194 225 -194q226 0 226 194q0 106 -60 166t-166 60t-165.5 -60t-59.5 -166z" />
<glyph unicode="&#x2c6;" horiz-adv-x="1046" d="M35 1753q0 72 53 125l295 213q78 57 135 57q38 0 103 -45l327 -225q53 -53 53 -125q0 -78 -58.5 -127t-125.5 -49q-65 0 -133 51l-166 127q-22 -15 -77 -55t-87 -61.5t-74 -41.5t-71 -20q-70 0 -122 52.5t-52 123.5zM76 1753q0 -56 39 -95.5t94 -39.5q33 0 86 37 q6 6 10 6l213 143l191 -143q57 -43 108 -43q53 0 98.5 37.5t45.5 97.5q0 49 -37 92q-54 36 -159.5 110.5t-143.5 100.5l-21 12q-4 2 -16.5 10.5t-18 11.5t-15.5 8t-17.5 7t-14.5 2q-43 -3 -110 -49l-295 -213q-37 -40 -37 -92z" />
<glyph unicode="&#x2dc;" horiz-adv-x="1228" d="M51 1808q0 68 51.5 130t128.5 97.5t154 35.5q123 0 266 -52q68 -22 97 -22q21 0 43 15.5t39 33.5t50.5 33.5t75.5 15.5q54 0 97 -24.5t66.5 -62t35.5 -75t12 -69.5q0 -68 -50.5 -129.5t-127 -97t-153.5 -35.5q-136 0 -271 53q-58 20 -94 20q-24 0 -65 -37 q-69 -61 -150 -61q-43 0 -79 16.5t-59 41.5t-38.5 57t-22 61t-6.5 55zM92 1808q0 -22 5 -46t17.5 -50t30.5 -46.5t47 -34t64 -13.5q38 0 68.5 15.5t47.5 33.5t43 33.5t56 15.5q43 0 107 -24q136 -50 258 -50q67 0 133.5 29.5t111.5 82t45 110.5q0 27 -9.5 58t-28 61.5 t-53.5 50.5t-79 20q-38 0 -68 -15.5t-46 -33.5t-41 -33.5t-53 -15.5q-36 0 -109 26q-136 48 -254 48q-104 0 -198.5 -67.5t-94.5 -154.5z" />
<glyph unicode="&#x2000;" horiz-adv-x="1074" />
<glyph unicode="&#x2001;" horiz-adv-x="2148" />
<glyph unicode="&#x2002;" horiz-adv-x="1074" />
<glyph unicode="&#x2003;" horiz-adv-x="2148" />
<glyph unicode="&#x2004;" horiz-adv-x="716" />
<glyph unicode="&#x2005;" horiz-adv-x="537" />
<glyph unicode="&#x2006;" horiz-adv-x="358" />
<glyph unicode="&#x2007;" horiz-adv-x="358" />
<glyph unicode="&#x2008;" horiz-adv-x="268" />
<glyph unicode="&#x2009;" horiz-adv-x="429" />
<glyph unicode="&#x200a;" horiz-adv-x="119" />
<glyph unicode="&#x2010;" horiz-adv-x="1097" d="M33 770q0 98 83 181t183 83h489q100 0 183.5 -83t83.5 -181q0 -119 -80.5 -192.5t-186.5 -73.5h-489q-106 0 -186 73.5t-80 192.5zM74 770q0 -101 67.5 -163t157.5 -62h489q90 0 158 62t68 163q0 83 -70.5 153t-155.5 70h-489q-85 0 -155 -70t-70 -153z" />
<glyph unicode="&#x2011;" horiz-adv-x="1097" d="M33 770q0 98 83 181t183 83h489q100 0 183.5 -83t83.5 -181q0 -119 -80.5 -192.5t-186.5 -73.5h-489q-106 0 -186 73.5t-80 192.5zM74 770q0 -101 67.5 -163t157.5 -62h489q90 0 158 62t68 163q0 83 -70.5 153t-155.5 70h-489q-85 0 -155 -70t-70 -153z" />
<glyph unicode="&#x2012;" horiz-adv-x="1097" d="M33 770q0 98 83 181t183 83h489q100 0 183.5 -83t83.5 -181q0 -119 -80.5 -192.5t-186.5 -73.5h-489q-106 0 -186 73.5t-80 192.5zM74 770q0 -101 67.5 -163t157.5 -62h489q90 0 158 62t68 163q0 83 -70.5 153t-155.5 70h-489q-85 0 -155 -70t-70 -153z" />
<glyph unicode="&#x2013;" horiz-adv-x="1497" d="M33 770q0 98 83 181t183 83h893q100 0 183 -83t83 -181q0 -119 -80 -192.5t-186 -73.5h-893q-106 0 -186 73.5t-80 192.5zM74 770q0 -101 67.5 -163t157.5 -62h893q90 0 157.5 62t67.5 163q0 83 -70 153t-155 70h-893q-85 0 -155 -70t-70 -153z" />
<glyph unicode="&#x2014;" horiz-adv-x="1705" d="M33 770q0 98 83 181t183 83h1120q100 0 183.5 -83t83.5 -181q0 -119 -80.5 -192.5t-186.5 -73.5h-1120q-106 0 -186 73.5t-80 192.5zM74 770q0 -101 67.5 -163t157.5 -62h1120q90 0 158 62t68 163q0 83 -70.5 153t-155.5 70h-1120q-85 0 -155 -70t-70 -153z" />
<glyph unicode="&#x2018;" horiz-adv-x="593" d="M35 1300q0 121 72 194t176 73q126 0 202 -72t76 -195q0 -59 -2 -95t-8.5 -71.5t-19 -55t-34.5 -35t-53 -21.5t-75 -6h-86q-97 0 -172.5 90.5t-75.5 193.5zM76 1300q0 -88 62.5 -165.5t144.5 -77.5h86q42 0 69 8.5t44 23.5t25 47.5t10.5 67.5t2.5 96q0 105 -65 165.5 t-172 60.5q-88 0 -147.5 -61.5t-59.5 -164.5z" />
<glyph unicode="&#x2019;" horiz-adv-x="585" d="M35 1300q0 123 76 195t202 72q104 0 176 -73t72 -194q0 -103 -75.5 -193.5t-172.5 -90.5h-86q-44 0 -75 6t-53 21.5t-34.5 35t-19 55t-8.5 71.5t-2 95zM76 1300q0 -61 2.5 -96t10.5 -67.5t25 -47.5t44 -23.5t69 -8.5h86q82 0 144.5 77.5t62.5 165.5q0 103 -59.5 164.5 t-147.5 61.5q-107 0 -172 -60.5t-65 -165.5z" />
<glyph unicode="&#x201a;" horiz-adv-x="565" d="M47 209v256q0 89 76 165.5t164 76.5q107 0 174 -73.5t67 -168.5v-256q0 -95 -67 -168.5t-174 -73.5q-88 0 -164 76.5t-76 165.5zM88 209q0 -73 63.5 -137t135.5 -64q89 0 144.5 61t55.5 140v256q0 79 -55.5 140t-144.5 61q-72 0 -135.5 -64t-63.5 -137v-256z" />
<glyph unicode="&#x201c;" horiz-adv-x="1136" d="M35 1300q0 121 72 194t176 73q126 0 202 -72t76 -195q0 -59 -2 -95t-8.5 -71.5t-19 -55t-34.5 -35t-53 -21.5t-75 -6h-86q-97 0 -172.5 90.5t-75.5 193.5zM76 1300q0 -88 62.5 -165.5t144.5 -77.5h86q42 0 69 8.5t44 23.5t25 47.5t10.5 67.5t2.5 96q0 105 -65 165.5 t-172 60.5q-88 0 -147.5 -61.5t-59.5 -164.5zM567 1300q0 121 72 194t176 73q126 0 202.5 -72t76.5 -195q0 -70 -3.5 -111.5t-14 -79t-32 -55.5t-56 -28t-87.5 -10h-86q-97 0 -172.5 90.5t-75.5 193.5zM608 1300q0 -88 62.5 -165.5t144.5 -77.5h86q52 0 82 11t46 43.5 t20 72.5t4 116q0 104 -65.5 165t-172.5 61q-88 0 -147.5 -61.5t-59.5 -164.5z" />
<glyph unicode="&#x201d;" horiz-adv-x="1132" d="M35 1300q0 123 76 195t202 72q104 0 176 -73t72 -194q0 -103 -75.5 -193.5t-172.5 -90.5h-86q-44 0 -75 6t-53 21.5t-34.5 35t-19 55t-8.5 71.5t-2 95zM76 1300q0 -61 2.5 -96t10.5 -67.5t25 -47.5t44 -23.5t69 -8.5h86q82 0 144.5 77.5t62.5 165.5q0 103 -59.5 164.5 t-147.5 61.5q-107 0 -172 -60.5t-65 -165.5zM567 1300q0 123 76.5 195t202.5 72q104 0 176 -73t72 -194q0 -103 -75.5 -193.5t-172.5 -90.5h-86q-53 0 -87.5 10t-56 28t-32 55.5t-14 79t-3.5 111.5zM608 1300q0 -61 2.5 -96t11 -67.5t25.5 -47.5t44 -23.5t69 -8.5h86 q82 0 144.5 77.5t62.5 165.5q0 103 -59.5 164.5t-147.5 61.5q-107 0 -172.5 -61t-65.5 -165z" />
<glyph unicode="&#x201e;" horiz-adv-x="1062" d="M47 209v256q0 89 76 165.5t164 76.5q107 0 174 -73.5t67 -168.5v-256q0 -95 -67 -168.5t-174 -73.5q-88 0 -164 76.5t-76 165.5zM88 209q0 -73 63.5 -137t135.5 -64q89 0 144.5 61t55.5 140v256q0 79 -55.5 140t-144.5 61q-72 0 -135.5 -64t-63.5 -137v-256zM547 209v256 q0 89 75.5 165.5t163.5 76.5q107 0 174.5 -73.5t67.5 -168.5v-256q0 -95 -67.5 -168.5t-174.5 -73.5q-88 0 -163.5 76.5t-75.5 165.5zM588 209q0 -73 63 -137t135 -64q89 0 145 61.5t56 139.5v256q0 78 -56 139.5t-145 61.5q-72 0 -135 -64t-63 -137v-256z" />
<glyph unicode="&#x2022;" horiz-adv-x="772" d="M31 762q0 165 93.5 258.5t258.5 93.5t258.5 -93.5t93.5 -258.5q0 -309 -352 -309t-352 309zM72 762q0 -140 79.5 -204t231.5 -64t231.5 64t79.5 204q0 147 -82 229t-229 82t-229 -82t-82 -229z" />
<glyph unicode="&#x2026;" horiz-adv-x="1665" d="M12 203q0 124 71 195t196 71t195.5 -70.5t70.5 -195.5q0 -236 -266 -236q-267 0 -267 236zM53 203q0 -195 226 -195q225 0 225 195q0 106 -59.5 165.5t-165.5 59.5t-166 -59.5t-60 -165.5zM567 203q0 124 71 195t196 71q124 0 195 -70.5t71 -195.5q0 -236 -266 -236 q-267 0 -267 236zM608 203q0 -195 226 -195q225 0 225 195q0 106 -59.5 165.5t-165.5 59.5t-166 -59.5t-60 -165.5zM1122 203q0 124 71 195t196 71t195.5 -70.5t70.5 -195.5q0 -236 -266 -236q-267 0 -267 236zM1163 203q0 -195 226 -195q225 0 225 195q0 106 -59.5 165.5 t-165.5 59.5t-166 -59.5t-60 -165.5z" />
<glyph unicode="&#x202f;" horiz-adv-x="429" />
<glyph unicode="&#x2039;" horiz-adv-x="919" d="M31 768q0 83 86 203l325 452q78 78 185 78q104 0 181 -77t77 -181q0 -46 -18.5 -86.5t-55.5 -93.5l-201 -293l201 -264q74 -98 74 -197q0 -46 -17.5 -94t-49.5 -88.5t-82 -66t-109 -25.5q-107 0 -185 78l-338 489q-35 48 -54 86.5t-19 79.5zM72 768q0 -51 65 -141 l338 -490q67 -61 152 -61q97 0 157 73.5t60 159.5q0 35 -16.5 78t-53 97.5t-63 91t-80 103.5t-70.5 89l217 319q66 95 66 156q0 89 -64 153t-153 64q-84 0 -152 -61l-325 -453q-78 -106 -78 -178z" />
<glyph unicode="&#x203a;" horiz-adv-x="921" d="M31 309q0 101 73 197l201 264l-201 293q-37 53 -55 93t-18 87q0 104 77 181t181 77q106 0 184 -78l326 -452q86 -120 86 -203q0 -29 -12 -61t-25 -52t-37 -53l-338 -489q-78 -78 -184 -78q-59 0 -109 25.5t-82 66t-49.5 88.5t-17.5 94zM72 309q0 -86 60 -159.5t157 -73.5 q84 0 151 61l338 490q66 90 66 141q0 66 -78 178l-326 453q-68 61 -151 61q-89 0 -153 -64t-64 -153q0 -63 65 -156l217 -319l-217 -287q-65 -84 -65 -172z" />
<glyph unicode="&#x205f;" horiz-adv-x="537" />
<glyph unicode="&#x20ac;" horiz-adv-x="1445" d="M20 629q0 121 125 139q-69 9 -97 44t-28 97t40.5 103t136.5 41h8v235q0 114 82 197.5t196 83.5h637q118 0 198.5 -76.5t80.5 -204.5q0 -97 -45 -171t-121 -107q31 -33 31 -101q0 -124 -119 -141q60 -10 89.5 -49t29.5 -90q0 -68 -23 -97q71 -38 114.5 -110t43.5 -162 q0 -128 -80.5 -204t-198.5 -76h-637q-113 0 -195.5 80t-82.5 190v235h-8q-99 0 -138 36.5t-39 107.5zM61 629q0 -51 30.5 -77t105.5 -26h49v-276q0 -95 70 -162.5t167 -67.5h637q102 0 170 64.5t68 175.5q0 89 -55 159.5t-142 102.5q62 44 62 107q0 43 -30 72.5t-91 29.5 h-328v76h328q121 0 121 102q0 67 -90 113q99 28 162 101t63 165q0 111 -68 175.5t-170 64.5h-637q-98 0 -167.5 -70.5t-69.5 -169.5v-276h-49q-73 0 -104.5 -29.5t-31.5 -73.5q0 -51 30 -76.5t106 -25.5h49v-76h-49q-73 0 -104.5 -29t-31.5 -73z" />
<glyph unicode="&#x2122;" horiz-adv-x="1945" d="M20 1352q0 80 58.5 142t146.5 62h520q50 0 98.5 -29.5t76.5 -74.5q37 50 95.5 81.5t123.5 31.5q69 0 134.5 -38.5t98.5 -94.5q35 61 98 97t144 36q113 0 189.5 -76.5t76.5 -190.5v-602q0 -78 -58.5 -133t-146.5 -55q-42 0 -83.5 17.5t-69.5 45.5q-57 -63 -146 -63 q-85 0 -145 63q-28 -28 -70 -45.5t-84 -17.5q-88 0 -146.5 55t-58.5 133v496q-57 -45 -127 -45h-55v-434q0 -89 -58 -147t-147 -58q-90 0 -154.5 58.5t-64.5 146.5v434h-41q-90 0 -147.5 57.5t-57.5 147.5zM61 1352q0 -71 46 -117.5t118 -46.5h82v-475q0 -70 52.5 -117 t125.5 -47q71 0 117.5 46.5t46.5 117.5v475h96q37 0 82 29.5t86 80.5v-602q0 -62 47 -104.5t117 -42.5q40 0 83 25.5t71 66.5q28 -42 67 -67t78 -25t78.5 25t67.5 67q28 -41 70.5 -66.5t82.5 -25.5q70 0 117 42.5t47 104.5v602q0 95 -65.5 160.5t-159.5 65.5 q-82 0 -144.5 -46.5t-85.5 -115.5h-34q-10 66 -73 114t-138 48q-65 0 -125 -45.5t-99 -120.5q-25 66 -73.5 112t-96.5 46h-520q-70 0 -117 -50t-47 -114z" />
<glyph unicode="&#x25fc;" horiz-adv-x="1566" d="M0 0v1567h1567v-1567h-1567z" />
<glyph unicode="&#xfb01;" horiz-adv-x="2037" d="M61 270v961q0 67 18 120.5t46.5 86.5t63.5 57.5t70 35.5t63.5 17.5t46.5 7.5h18h612q113 0 197 -82.5t84 -195.5q0 -103 -61 -174.5t-156 -95.5q58 -34 90.5 -93t32.5 -133q0 -117 -71.5 -197.5t-184.5 -80.5h-262v-234q0 -128 -92.5 -215.5t-210.5 -87.5 q-132 0 -218 85.5t-86 217.5zM102 270q0 -114 74.5 -188t188.5 -74q102 0 182 76t80 186v275h303q95 0 155 68.5t60 168.5q0 82 -47 140t-129 75l4 41q109 0 187.5 65.5t78.5 174.5q0 98 -71.5 168t-168.5 70h-612q-6 0 -16 -0.5t-40 -6t-57 -15.5t-59.5 -31.5t-56.5 -50.5 t-40 -76t-16 -105v-961zM1276 317v902q0 151 99.5 250.5t250.5 99.5t250.5 -99.5t99.5 -250.5v-902q0 -151 -99.5 -250.5t-250.5 -99.5t-250.5 99.5t-99.5 250.5zM1317 317q0 -132 88.5 -220.5t220.5 -88.5t220.5 88.5t88.5 220.5v902q0 132 -88.5 220.5t-220.5 88.5 t-220.5 -88.5t-88.5 -220.5v-902z" />
<glyph unicode="&#xfb02;" horiz-adv-x="2510" d="M61 270v961q0 67 18 120.5t46.5 86.5t63.5 57.5t70 35.5t63.5 17.5t46.5 7.5h18h612q113 0 197 -82.5t84 -195.5q0 -103 -61 -174.5t-156 -95.5q58 -34 90.5 -93t32.5 -133q0 -117 -71.5 -197.5t-184.5 -80.5h-262v-234q0 -128 -92.5 -215.5t-210.5 -87.5 q-132 0 -218 85.5t-86 217.5zM102 270q0 -114 74.5 -188t188.5 -74q102 0 182 76t80 186v275h303q95 0 155 68.5t60 168.5q0 82 -47 140t-129 75q-15 0 -15 17q0 10 5 17t14 7q109 0 187.5 65.5t78.5 174.5q0 98 -71.5 168t-168.5 70h-612q-6 0 -16 -0.5t-40 -6t-57 -15.5 t-59.5 -31.5t-56.5 -50.5t-40 -76t-16 -105v-961zM1290 260v1028q0 114 95 197.5t212 83.5q137 0 220.5 -86.5t83.5 -216.5v-703h305q116 0 197 -86.5t81 -216.5q0 -128 -80 -204t-198 -76h-637q-114 0 -196.5 83t-82.5 197zM1331 260q0 -98 70 -169t168 -71h637 q102 0 169.5 64.5t67.5 175.5q0 113 -69 187.5t-168 74.5h-346v762q0 102 -74 173t-189 71q-101 0 -183.5 -72t-82.5 -168v-1028z" />
</font>
</defs>
</svg>
