<?xml version="1.0" encoding="utf-8"?>
<!-- Generator: Adobe Illustrator 15.1.0, SVG Export Plug-In . SVG Version: 6.00 Build 0)  -->
<!DOCTYPE svg PUBLIC "-//W3C//DTD SVG 1.1//EN" "http://www.w3.org/Graphics/SVG/1.1/DTD/svg11.dtd">
<svg version="1.1" id="Layer_1" xmlns="http://www.w3.org/2000/svg" xmlns:xlink="http://www.w3.org/1999/xlink" x="0px" y="0px"
	 width="715px" height="162px" viewBox="0 0 715 162" enable-background="new 0 0 715 162" xml:space="preserve">
<path fill="#00A3E0" d="M413.255,75.738h-15.474V40.455c0-3.516-1.168-11.953-11.25-11.953c-6.914,0-11.721,5.156-11.721,11.953
	v35.284h-15.59V40.455c0-3.516-1.055-11.953-11.254-11.953c-6.795,0-11.601,5.156-11.601,11.953v35.284h-15.592V15.371h14.885v5.86
	c3.754-4.568,9.029-7.383,15.591-7.383c7.502,0,13.829,3.164,18.055,8.555c4.332-5.274,10.664-8.555,18.399-8.555
	c16.175,0,25.55,10.782,25.55,26.606L413.255,75.738L413.255,75.738z"/>
<path fill="#00A3E0" d="M217.773,160.241h-15.455V84.598h15.455V160.241z"/>
<path fill="#00A3E0" d="M283.708,160.241h-15.456v-35.246c0-3.517-1.056-11.945-11.242-11.945c-6.908,0-11.707,5.152-11.707,11.945
	v35.246h-15.459V99.938h14.754v5.855c3.867-4.568,9.137-7.379,15.574-7.379c14.17,0,23.536,10.654,23.536,26.58V160.241z"/>
<path fill="#00A3E0" d="M353.337,160.241h-14.755v-6.443c-4.799,4.918-11.12,7.729-18.5,7.729c-15.69,0-28.688-13.582-28.688-31.379
	c0-17.92,12.996-31.5,28.688-31.5c7.027,0,13.113,2.576,17.8,7.023V84.598h15.455V160.241z M322.427,112.938
	c-8.551,0-15.461,7.487-15.461,17.328c0,9.602,6.91,16.977,15.461,16.977c8.545,0,15.455-7.607,15.455-16.977
	C337.882,120.663,330.972,112.938,322.427,112.938z"/>
<path fill="#00A3E0" d="M418.05,160.241h-14.752v-5.507c-3.748,4.334-9.019,6.91-15.341,6.91c-14.284,0-23.771-10.658-23.771-26.465
	V99.938h15.457v35.242c0,3.396,1.174,11.828,11.24,11.828c6.91,0,11.711-5.154,11.711-11.828V99.938h15.455V160.241L418.05,160.241z
	"/>
<path fill="#00A3E0" d="M453.89,161.646c-15.34,0-26.695-8.08-28.568-21.076h15.689c2.104,5.149,8.313,7.022,12.879,7.022
	c6.207,0,10.891-1.873,10.891-5.387c0-3.396-2.104-4.799-12.645-6.438c-10.775-1.644-25.176-4.564-25.176-18.031
	c0-9.482,8.312-19.32,25.76-19.32c13.815,0,24.123,7.492,26.11,18.85h-16.041c-0.936-2.809-4.332-5.035-10.069-5.035
	c-7.142,0-10.07,2.576-10.07,4.804c0,3.161,4.451,4.215,11.943,5.385c14.989,2.459,25.76,5.736,25.76,18.854
	C480.353,153.214,469.347,161.646,453.89,161.646z"/>
<path fill="#00A3E0" d="M519.149,160.122c-17.682,1.873-27.049-8.781-27.049-25.293v-21.188h-7.26V99.938h7.26v-15.34h15.455v15.342
	h10.891v13.701h-10.891v21.307c0,8.434,3.865,11.594,11.594,11.123V160.122z"/>
<path fill="#00A3E0" d="M562.119,113.751c-6.203-0.701-11.356,0-14.869,3.75c-3.276,3.396-3.862,8.313-3.862,13.113v29.627h-15.455
	V99.938h14.752v5.97c4.918-6.087,12.176-8.312,19.436-7.142L562.119,113.751L562.119,113.751z"/>
<rect x="570.905" y="84.598" fill="#00A3E0" width="15.457" height="15.342"/>
<rect x="570.905" y="105.561" fill="#00A3E0" width="15.457" height="54.682"/>
<rect x="294.319" fill="#00A3E0" width="15.457" height="15.342"/>
<rect x="294.319" y="21.06" fill="#00A3E0" width="15.457" height="54.681"/>
<path fill="#00A3E0" d="M610.44,136.12c1.992,7.377,7.844,11.938,15.105,11.938c5.153,0,10.188-2.223,12.766-7.022h16.51
	c-3.516,12.295-14.17,20.608-29.158,20.608c-16.979,0-30.912-14.053-30.912-31.496c0-17.448,13.935-31.733,30.912-31.733
	c17.8,0,32.554,13.813,30.328,37.705H610.44z M640.651,123.473c-1.873-7.025-7.729-11.476-15.104-11.476
	c-7.025,0-12.646,4.448-14.869,11.476H640.651z"/>
<path fill="#00A3E0" d="M434.701,51.554c1.992,7.376,7.845,11.94,15.105,11.94c5.152,0,10.188-2.223,12.764-7.023h16.512
	c-3.516,12.293-14.17,20.609-29.159,20.609c-16.979,0-30.91-14.052-30.91-31.497c0-17.449,13.932-31.735,30.91-31.735
	c17.801,0,32.555,13.815,30.33,37.706H434.701z M464.912,38.906c-1.873-7.025-7.729-11.474-15.104-11.474
	c-7.025,0-12.646,4.449-14.871,11.474H464.912z"/>
<path fill="#00A3E0" d="M688.735,161.646c-15.338,0-26.697-8.08-28.568-21.076h15.689c2.107,5.149,8.312,7.022,12.879,7.022
	c6.207,0,10.892-1.873,10.892-5.387c0-3.396-2.104-4.799-12.646-6.438c-10.772-1.644-25.176-4.564-25.176-18.031
	c0-9.482,8.313-19.32,25.762-19.32c13.814,0,24.119,7.492,26.111,18.85h-16.041c-0.937-2.809-4.334-5.035-10.07-5.035
	c-7.143,0-10.07,2.576-10.07,4.804c0,3.161,4.451,4.215,11.945,5.385c14.986,2.459,25.758,5.736,25.758,18.854
	C715.198,153.214,704.192,161.646,688.735,161.646z"/>
<path fill="#00A3E0" d="M53.49,133.749H0v26.502h187.217v-26.502h-53.49V66.643c0-7.385-5.985-13.372-13.373-13.372
	c-7.385,0-13.371,5.987-13.371,13.372v67.106H80.236V66.643c0-7.385-5.987-13.372-13.373-13.372
	c-7.387,0-13.372,5.987-13.372,13.372V133.749z"/>
<path fill="#00A3E0" d="M26.744,107.003H0V30.781C0,13.794,13.77,0.023,30.76,0.023h125.699c16.985,0,30.758,13.771,30.758,30.755
	v76.224h-26.744l-0.01-66.863c0-7.385-5.986-13.373-13.373-13.373H40.119c-7.388,0-13.375,5.988-13.375,13.373V107.003z"/>
<path fill="#00A3E0" d="M226.73,0.012l15.937,57.151l15.932-57.13l24.53-0.003v75.715l-15.376,0.006V17.525l-16.129,58.221
	L233.83,75.75l-16.129-58.225V75.75l-15.384-0.006V0L226.73,0.012z"/>
</svg>
