<?xml version="1.0" encoding="utf-8"?>
<!DOCTYPE svg PUBLIC "-//W3C//DTD SVG 1.1//EN" "http://www.w3.org/Graphics/SVG/1.1/DTD/svg11.dtd">
<svg version="1.1" id="Layer_1" xmlns="http://www.w3.org/2000/svg" xmlns:xlink="http://www.w3.org/1999/xlink" x="0px" y="0px"
width="326.994px" height="71.301px" viewBox="0 0 326.994 71.301" enable-background="new 0 0 326.994 71.301"
xml:space="preserve">
<path fill="#082D68" d="M127.88,64.334c-1.948,0-3.417-1.422-3.417-3.308V13.438c0-0.348-0.036-0.559-0.069-0.679
c-0.059,0.102-0.167,0.3-0.284,0.666l-15.352,48.039c-0.583,1.823-2.048,2.87-4.021,2.87c-2.044,0-3.53-1.056-4.077-2.895
L86.355,13.427c-0.118-0.395-0.229-0.601-0.3-0.702c-0.031,0.093-0.084,0.302-0.084,0.713v47.589c0,1.886-1.469,3.308-3.417,3.308
c-1.962,0-3.441-1.422-3.441-3.308v-47.96c0-3.81,3.143-6.907,7.006-6.907c3.188,0,5.822,1.869,6.71,4.762l11.978,40.322
l12.805-40.492c0.889-2.708,3.645-4.592,6.705-4.592c3.864,0,7.006,3.098,7.006,6.907v47.96
C131.323,62.912,129.843,64.334,127.88,64.334z"/>
<path fill="#082D68" d="M146.225,64.338c-1.926,0-3.271-1.296-3.271-3.153v-36.39c0-1.933,1.345-3.283,3.271-3.283
c1.91,0,3.35,1.411,3.35,3.283v36.39C149.575,63.012,148.166,64.338,146.225,64.338z M146.225,14.503
c-1.926,0-3.271-1.296-3.271-3.152V9.793c0-1.871,1.376-3.23,3.271-3.23c1.91,0,3.35,1.389,3.35,3.23v1.558
C149.575,13.177,148.166,14.503,146.225,14.503z"/>
<path fill="#082D68" d="M161.678,64.336c-1.943,0-3.3-1.296-3.3-3.153V23.746c0-1.861,1.113-3.018,2.906-3.018
c1.803,0,2.912,1.105,2.965,2.959l0.022,0.777c2.489-2.509,6.078-3.736,10.887-3.736h2.467c1.958,0,3.379,1.303,3.379,3.099
c0,1.782-1.355,3.075-3.225,3.075h-2.621c-8.373,0-10.131,5.759-10.131,10.59v23.69C165.027,63.01,163.619,64.336,161.678,64.336z"
/>
<path fill="#082D68" d="M197.353,64.658c-8.397,0-14.494-6.285-14.494-14.946V37.34c0-8.98,6.231-15.751,14.494-15.751h4.909
c8.249,0,14.47,6.771,14.47,15.751v12.372c0,8.661-6.085,14.946-14.47,14.946H197.353z M197.354,27.609
c-4.458,0-7.82,4.01-7.82,9.328v13.041c0,5.083,3.215,8.634,7.819,8.634h4.909c4.545,0,7.844-3.631,7.844-8.634V36.938
c0-5.318-3.371-9.328-7.844-9.328H197.354z"/>
<path fill="#082D68" d="M228.86,64.338c-2.491,0-4.598-2.051-4.598-4.479V9.396c0-1.811,1.462-3.229,3.325-3.229
c1.909,0,3.35,1.389,3.35,3.229v12.138h12.029c6.841,0,13.764,4.946,13.764,14.4V48.22c0,6.479-3.707,16.118-13.919,16.118H228.86z
M242.812,57.901c4.199,0,7.246-4.17,7.246-9.916V35.935c0-5.115-3.604-8.172-7.091-8.172h-12.029v30.139H242.812z"/>
<path fill="#082D68" d="M277.396,64.658c-8.396,0-14.494-6.285-14.494-14.946V37.34c0-8.98,6.232-15.751,14.494-15.751h4.91
c8.248,0,14.469,6.771,14.469,15.751v12.372c0,8.661-6.086,14.946-14.469,14.946H277.396z M277.396,27.609
c-4.457,0-7.818,4.01-7.818,9.328v13.041c0,5.083,3.215,8.634,7.818,8.634h4.91c4.545,0,7.844-3.631,7.844-8.634V36.938
c0-5.318-3.373-9.328-7.844-9.328H277.396z"/>
<path fill="#082D68" d="M320.682,65.142c-8.896,0-13.221-4.693-13.221-14.348V27.925h-3.348c-1.877,0-3.293-1.355-3.293-3.152
c0-1.873,1.385-3.232,3.293-3.232h3.348v-5.843c0-1.811,1.471-3.229,3.348-3.229c1.865,0,3.326,1.419,3.326,3.229v5.845h9.402
c2.004,0,3.457,1.359,3.457,3.23c0,1.826-1.398,3.152-3.326,3.152h-9.533v22.869c0,5.844,1.715,7.915,6.547,7.915h2.986
c1.896,0,3.326,1.411,3.326,3.282c0,1.825-1.398,3.15-3.326,3.15H320.682z"/>
<path fill="#082D68" d="M35.65,0C15.993,0,0,15.99,0,35.648s15.993,35.652,35.65,35.652s35.649-15.994,35.649-35.652
S55.307,0,35.65,0z M63.876,27.172L42.338,48.709l-9.824-9.824l24.022-24.022C59.913,18.255,62.464,22.467,63.876,27.172z
M25.19,31.561L47.901,8.85c1.131,0.518,2.225,1.103,3.273,1.754L27.703,34.074L25.19,31.561z M34.126,50.118H23.781l0-10.346
L34.126,50.118z M35.649,65.121c-16.276,0-29.47-13.194-29.47-29.47c0-16.276,13.194-29.471,29.47-29.471
c1.666,0,3.298,0.146,4.889,0.411L17.974,29.155c-0.638,0.638-0.996,1.503-0.996,2.405l0,21.959c0,1.879,1.523,3.401,3.401,3.401
h21.958c0.902,0,1.768-0.358,2.405-0.996l20.375-20.374c0,0.033,0.002,0.066,0.002,0.101C65.12,51.927,51.926,65.121,35.649,65.121z
"/>
</svg>
