<?xml version="1.0" encoding="utf-8"?>
<!-- Generator: Adobe Illustrator 15.1.0, SVG Export Plug-In . SVG Version: 6.00 Build 0)  -->
<!DOCTYPE svg PUBLIC "-//W3C//DTD SVG 1.1//EN" "http://www.w3.org/Graphics/SVG/1.1/DTD/svg11.dtd">
<svg version="1.1" id="Layer_1" xmlns="http://www.w3.org/2000/svg" xmlns:xlink="http://www.w3.org/1999/xlink" x="0px" y="0px"
	 width="367.752px" height="374.63px" viewBox="117.5 204.5 367.752 374.63" enable-background="new 117.5 204.5 367.752 374.63"
	 xml:space="preserve">
<g>
	<path fill="#FFFFFF" d="M174.927,453.59c-3.562,0-7.196-0.582-10.758-1.891c-16.356-5.961-24.715-23.988-18.828-40.345
		l67.75-186.166c3.853-10.54,13.012-18.246,24.134-20.208c11.05-1.963,22.317,2.181,29.586,10.759l117.908,140.515h48.631
		c17.375,0,31.477,14.103,31.477,31.476c0,17.374-14.102,31.477-31.477,31.477h-63.314c-9.305,0-18.102-4.145-24.135-11.268
		l-92.319-110.057l-49.141,134.917C199.789,445.666,187.721,453.59,174.927,453.59z"/>
	<path fill="#FFFFFF" d="M195.427,566.045l-17.374-55.974l-14.975,43.18L134.22,517.85l2.689,58.445l-16.21,2.835l-3.199-87.522
		l12.794-2.253l27.769,35.328l13.884-42.598l12.794-2.254l26.896,83.451L195.427,566.045z"/>
	<path fill="#FFFFFF" d="M266.375,536.822c-4.506,3.562-12.212,7.27-17.955,8.287c-8.068,1.381-17.301-1.744-21.008-12.794h0.146
		c-0.437-1.235-0.8-2.544-1.091-3.925c-0.436-2.108-0.509-4.289-0.436-6.397h-0.073c0.073-2.035,0.437-3.926,1.019-5.67
		c0-0.072,0-0.072,0-0.146c0.072-0.218,0.145-0.363,0.217-0.581c1.672-4.144,4.943-7.197,10.25-8.142
		c8.215-1.454,12.141,4.652,13.085,10.177l-18.609,3.271c-0.29,2.035-0.218,4.216,0.218,6.324c0.291,1.381,0.654,2.762,1.164,3.998
		l33.511-5.889c0.073-3.053,0-5.815-0.509-8.505c-2.835-16.138-16.138-24.497-31.549-21.808
		c-18.827,3.271-26.751,19.845-23.771,36.782c2.98,17.083,16.574,29.731,38.673,25.806c8.65-1.526,15.338-4.942,19.555-8.214
		L266.375,536.822z"/>
	<g>
		<path fill="#FFFFFF" d="M289.418,549.107l13.885-90.139l-14.757,2.617l-15.411,90.865l16.21-2.835v-0.072
			C289.345,549.325,289.345,549.181,289.418,549.107z"/>
		<polygon fill="#FFFFFF" points="307.883,467.11 304.102,491.826 313.48,508.399 301.195,510.508 298.795,526.573 321.477,522.575 
			332.453,541.911 348.736,539.076 		"/>
	</g>
	<path fill="#FFFFFF" d="M377.23,484.848l-5.596,1.018c-5.016,0.872-8.941,4.361-10.033,8.068l7.342,41.653l-15.191,2.617
		l-10.76-61.062l14.176-2.472l1.527,6.397c2.617-3.853,7.996-9.087,14.902-10.322l3.998-0.728L377.23,484.848z"/>
	<path fill="#FFFFFF" d="M470.133,517.704l-5.742-32.856c-1.963-11.268-5.889-16.211-14.32-14.757
		c-10.033,1.744-11.123,7.778-10.033,13.957l6.615,37.728l-15.047,2.616l-5.742-32.856c-2.326-13.157-6.615-16.065-15.121-14.611
		c-4.869,0.872-8.213,3.344-10.322,6.979l7.852,44.561l-15.121,2.689l-10.758-61.062l12.43-2.181l1.672,4.579
		c3.055-3.562,8.143-7.342,14.611-8.505c7.051-1.235,14.902,0.363,20.355,6.033c1.381-4.288,7.631-10.903,18.607-12.866
		c16.502-2.908,26.461,7.851,29.441,24.934l5.742,32.857L470.133,517.704z"/>
</g>
</svg>
