<?xml version="1.0" encoding="utf-8"?>
<!DOCTYPE svg PUBLIC "-//W3C//DTD SVG 1.1//EN" "http://www.w3.org/Graphics/SVG/1.1/DTD/svg11.dtd">
<svg version="1.1" id="Layer_1" xmlns="http://www.w3.org/2000/svg" xmlns:xlink="http://www.w3.org/1999/xlink" x="0px" y="0px"
	 width="394.171px" height="71.3px" viewBox="0 0 394.171 71.3" enable-background="new 0 0 394.171 71.3" xml:space="preserve">
		<path fill="#082D68" d="M35.65,71.3C15.993,71.3,0,55.306,0,35.648C0,15.99,15.993,0,35.65,0s35.649,15.99,35.649,35.648
			C71.299,55.306,55.307,71.3,35.65,71.3z M14.522,56.169c5.54,5.697,13.199,8.951,21.128,8.951c16.25,0,29.47-13.221,29.47-29.473
			c0-16.25-13.22-29.47-29.47-29.47c-16.251,0-29.472,13.22-29.472,29.47c0,5.359,1.441,10.551,4.182,15.115l16.077-34.62
			c0.449-0.971,1.39-1.636,2.453-1.737c0.096-0.01,0.191-0.013,0.286-0.013c0.968,0,1.885,0.463,2.451,1.243l17.899,24.616
			l8.539-2.064c0.234-0.057,0.472-0.084,0.709-0.084c1.403,0,2.614,0.951,2.942,2.316c0.19,0.785,0.063,1.598-0.358,2.285
			c-0.421,0.691-1.085,1.176-1.871,1.363l-10.507,2.541c-0.234,0.057-0.471,0.086-0.708,0.086c-0.968,0-1.884-0.467-2.451-1.248
			L29.758,23.354L14.522,56.169z"/>
		<path fill="#082D68" d="M118.181,11.34c0.884-2.703,3.689-4.624,6.843-4.624c3.917,0,7.138,3.221,7.138,6.983v48.679
			c0,1.832-1.419,3.32-3.521,3.32c-2.063,0-3.482-1.488-3.482-3.32V16.603c0-0.46-0.229-0.706-0.479-0.706
			c-0.211,0-0.438,0.175-0.557,0.544l-14.886,46.378c-0.525,1.575-1.833,2.881-4.091,2.881c-2.345,0-3.699-1.295-4.178-2.903
			L87.14,16.634c-0.106-0.355-0.331-0.524-0.542-0.524c-0.25,0-0.482,0.235-0.482,0.674v45.595c0,1.832-1.419,3.32-3.482,3.32
			c-2.103,0-3.521-1.488-3.521-3.32V13.7c0-3.763,3.22-6.983,7.138-6.983c3.293,0,5.971,1.938,6.85,4.803l12.12,40.783
			L118.181,11.34z"/>
		<path fill="#082D68" d="M138.847,39.403c0-10.455,7.197-16.587,16.26-16.587c10.58,0,16.697,5.93,16.697,16.588v3.81
			c0,2.384-1.954,4.202-4.508,4.202h-21.628c0.193,8.632,2.274,12.167,9.237,12.167h12.268c2.07,0,3.311,1.397,3.311,3.08
			c0,1.695-1.263,3.038-3.188,3.038h-12.433c-12.641,0-16.015-6.8-16.015-20.003V39.403z M165.009,38.804
			c-0.148-6.503-3.429-9.833-9.902-9.833c-5.794,0-9.322,3.82-9.526,9.807v3.08h19.428V38.804z"/>
		<path fill="#082D68" d="M189.944,12.216c0.977-3.199,4.082-5.5,7.75-5.5c3.652,0,6.608,2.306,7.636,5.501l14.966,49.683
			c0.068,0.228,0.103,0.463,0.103,0.699c0,1.464-1.27,2.992-3.403,3.067c-1.596,0.035-3.082-1.057-3.507-2.4l-4.557-14.484h-22.575
			l-4.481,14.389c-0.429,1.429-1.92,2.531-3.572,2.511c-2.1-0.051-3.377-1.476-3.377-3.224c0-0.321,0.043-0.653,0.132-0.989
			L189.944,12.216z M198.565,13.988c-0.156-0.525-0.418-0.776-0.811-0.776c-0.392,0-0.654,0.25-0.813,0.772l-8.62,28.265h18.67
			L198.565,13.988z"/>
		<path fill="#082D68" d="M244.74,22.015c2.109,0,3.391,1.433,3.391,3.076c0,1.715-1.324,3.038-3.23,3.038h-2.645
			c-6.929,0-10.165,3.988-10.165,10.676v23.778c0,1.812-1.427,3.118-3.385,3.118c-2.048,0-3.311-1.343-3.311-3.118V24.879
			c0-1.862,0.983-2.865,2.812-2.865c1.828,0,2.398,1.05,2.813,2.866l0.391,1.711c2.302-3.021,5.594-4.576,10.845-4.576
			L244.74,22.015z"/>
		<path fill="#082D68" d="M258.931,28.973v33.408c0,1.874-1.404,3.32-3.386,3.32c-2.089,0-3.269-1.64-3.269-3.197V27.296
			c0-2.255,1.756-4.48,4.594-4.48h36.489c7.285,0,13.808,5.438,13.808,14.423v25.265c0,1.608-1.402,3.198-3.386,3.198
			c-2.064,0-3.306-1.623-3.306-3.198V37.239c0-4.992-3.384-8.266-7.116-8.266h-10.33v33.408c0,1.874-1.404,3.32-3.348,3.32
			c-2.064,0-3.306-1.623-3.306-3.198v-33.53H258.931z"/>
		<path fill="#082D68" d="M341.43,11.443c0-2.684,2.043-4.727,4.881-4.727h18.319c9.018,0,16.132,7.344,16.132,15.897
			c0,8.687-7.214,15.901-16.133,15.901h-16.195v23.701c0,2.019-1.479,3.483-3.521,3.483c-2.126,0-3.483-1.506-3.483-3.32
			L341.43,11.443z M364.63,32.02c4.999,0,9.253-4.255,9.253-9.408c0-5.193-4.256-9.402-9.253-9.402h-16.195v18.81H364.63z"/>
		<path fill="#082D68" d="M387.479,10.541c0-1.758,1.241-3.199,3.306-3.199c1.922,0,3.386,1.387,3.386,3.199v1.564
			c0,1.773-1.421,3.118-3.386,3.118c-2.064,0-3.306-1.398-3.306-3.118V10.541z M387.479,26.02c0-1.8,1.241-3.24,3.306-3.24
			c1.922,0,3.386,1.387,3.386,3.24v36.564c0,1.83-1.443,3.118-3.386,3.118c-2.042,0-3.306-1.343-3.306-3.118V26.02z"/>
</svg>
