<?xml version="1.0" encoding="utf-8"?>
<!DOCTYPE svg PUBLIC "-//W3C//DTD SVG 1.1//EN" "http://www.w3.org/Graphics/SVG/1.1/DTD/svg11.dtd">
<svg version="1.1" id="Layer_1" xmlns="http://www.w3.org/2000/svg" xmlns:xlink="http://www.w3.org/1999/xlink" x="0px" y="0px"
width="534.377px" height="71.301px" viewBox="0 0 534.377 71.301" enable-background="new 0 0 534.377 71.301"
xml:space="preserve">
<path fill="#082D68" d="M35.65,71.301C15.993,71.301,0,55.307,0,35.648S15.993,0,35.65,0s35.649,15.99,35.649,35.648
S55.307,71.301,35.65,71.301z M14.522,56.17c5.54,5.697,13.199,8.951,21.128,8.951c16.25,0,29.47-13.221,29.47-29.473
c0-16.25-13.22-29.471-29.47-29.471c-16.251,0-29.472,13.221-29.472,29.471c0,5.359,1.441,10.551,4.182,15.115l16.077-34.62
c0.449-0.971,1.39-1.636,2.453-1.737c0.096-0.01,0.191-0.013,0.286-0.013c0.968,0,1.885,0.464,2.451,1.243l17.899,24.615
l8.539-2.064c0.234-0.057,0.472-0.084,0.709-0.084c1.403,0,2.614,0.951,2.942,2.316c0.19,0.785,0.063,1.598-0.358,2.285
c-0.421,0.691-1.085,1.176-1.871,1.363l-10.507,2.541c-0.234,0.057-0.471,0.086-0.708,0.086c-0.968,0-1.884-0.467-2.451-1.248
L29.758,23.354L14.522,56.17z"/>
<path fill="#082D68" d="M118.181,11.34c0.884-2.702,3.689-4.624,6.843-4.624c3.917,0,7.138,3.221,7.138,6.983v48.68
c0,1.832-1.419,3.32-3.521,3.32c-2.063,0-3.482-1.488-3.482-3.32V16.604c0-0.461-0.229-0.706-0.479-0.706
c-0.211,0-0.438,0.175-0.557,0.544l-14.886,46.378c-0.525,1.575-1.833,2.881-4.091,2.881c-2.345,0-3.699-1.295-4.178-2.903
L87.14,16.634c-0.106-0.355-0.331-0.523-0.542-0.523c-0.25,0-0.482,0.235-0.482,0.674V62.38c0,1.832-1.419,3.32-3.482,3.32
c-2.103,0-3.521-1.488-3.521-3.32V13.7c0-3.763,3.22-6.983,7.138-6.983c3.293,0,5.971,1.938,6.85,4.803l12.12,40.783
L118.181,11.34z"/>
<path fill="#082D68" d="M138.847,39.403c0-10.455,7.197-16.588,16.26-16.588c10.58,0,16.697,5.931,16.697,16.589v3.81
c0,2.384-1.954,4.202-4.508,4.202h-21.628c0.193,8.632,2.274,12.167,9.237,12.167h12.268c2.07,0,3.311,1.397,3.311,3.08
c0,1.695-1.263,3.038-3.188,3.038h-12.433c-12.641,0-16.015-6.8-16.015-20.003V39.403z M165.009,38.805
c-0.148-6.503-3.429-9.833-9.902-9.833c-5.794,0-9.322,3.82-9.526,9.807v3.08h19.428V38.805z"/>
<path fill="#082D68" d="M189.944,12.217c0.977-3.199,4.082-5.5,7.75-5.5c3.652,0,6.608,2.307,7.636,5.501l14.966,49.684
c0.068,0.228,0.103,0.463,0.103,0.699c0,1.464-1.27,2.992-3.403,3.067c-1.596,0.035-3.082-1.057-3.507-2.4l-4.557-14.484h-22.575
l-4.481,14.389c-0.429,1.429-1.92,2.531-3.572,2.511c-2.1-0.051-3.377-1.476-3.377-3.224c0-0.321,0.043-0.653,0.132-0.989
L189.944,12.217z M198.565,13.988c-0.156-0.524-0.418-0.775-0.811-0.775c-0.392,0-0.654,0.249-0.813,0.772l-8.62,28.265h18.67
L198.565,13.988z"/>
<path fill="#082D68" d="M244.74,22.015c2.109,0,3.391,1.434,3.391,3.076c0,1.715-1.324,3.038-3.23,3.038h-2.645
c-6.929,0-10.165,3.988-10.165,10.676v23.778c0,1.812-1.427,3.118-3.385,3.118c-2.048,0-3.311-1.343-3.311-3.118V24.88
c0-1.862,0.983-2.865,2.812-2.865c1.828,0,2.398,1.05,2.813,2.866l0.391,1.711c2.302-3.021,5.594-4.576,10.845-4.576
L244.74,22.015z"/>
<path fill="#082D68" d="M258.931,28.974v33.408c0,1.874-1.404,3.32-3.386,3.32c-2.089,0-3.269-1.64-3.269-3.197V27.297
c0-2.255,1.756-4.48,4.594-4.48h36.489c7.285,0,13.808,5.438,13.808,14.423v25.265c0,1.608-1.402,3.198-3.386,3.198
c-2.064,0-3.306-1.623-3.306-3.198V37.239c0-4.992-3.384-8.266-7.116-8.266h-10.33v33.408c0,1.874-1.404,3.32-3.348,3.32
c-2.064,0-3.306-1.623-3.306-3.198v-33.53H258.931z"/>
<path fill="#082D68" d="M379.654,11.34c0.885-2.702,3.689-4.624,6.844-4.624c3.917,0,7.138,3.221,7.138,6.983v48.68
c0,1.832-1.419,3.32-3.521,3.32c-2.063,0-3.482-1.488-3.482-3.32V16.604c0-0.461-0.228-0.706-0.479-0.706
c-0.211,0-0.438,0.175-0.557,0.544l-14.886,46.378c-0.525,1.575-1.834,2.881-4.092,2.881c-2.345,0-3.699-1.295-4.178-2.903
l-13.828-46.163c-0.105-0.355-0.33-0.523-0.541-0.523c-0.251,0-0.483,0.235-0.483,0.674V62.38c0,1.832-1.419,3.32-3.482,3.32
c-2.102,0-3.521-1.488-3.521-3.32V13.7c0-3.763,3.22-6.983,7.137-6.983c3.294,0,5.972,1.938,6.85,4.803l12.12,40.783
L379.654,11.34z"/>
<path fill="#082D68" d="M405.45,28.974c-2.127,0-3.39-1.344-3.39-3.081c0-1.624,1.219-3.076,3.268-3.076h14.513
c7.07,0,12.131,5.564,12.131,12.699v25.903c0,2.437-1.889,4.282-4.471,4.282h-14.954c-7.145,0-12.812-5.577-12.812-12.502
c0-6.836,5.645-12.625,12.812-12.625h12.692v-4.776c0-3.952-2.345-6.824-5.817-6.824H405.45z M425.239,59.423V46.816h-12.691
c-3.281,0-6.158,2.905-6.158,6.384c0,3.457,2.851,6.223,6.157,6.223H425.239z"/>
<path fill="#082D68" d="M439.554,9.921c0-1.775,1.345-3.198,3.348-3.198c1.981,0,3.386,1.404,3.386,3.198v29.47h4.306
c0.733,0,1.069-0.527,1.393-0.92l11.268-13.702c0.659-0.811,1.654-1.207,2.647-1.207c0.812,0,1.622,0.265,2.247,0.784
c0.77,0.641,1.151,1.442,1.151,2.278c0,0.731-0.293,1.489-0.873,2.188l-11.713,13.959l13.37,17.931
c0.339,0.567,0.519,1.191,0.519,1.81c0,0.843-0.334,1.672-1.054,2.327c-0.635,0.592-1.465,0.866-2.29,0.866
c-1.084,0-2.157-0.472-2.764-1.312l-11.577-15.94c-0.83-1.139-1.428-2.141-2.354-2.141h-4.275V62.39
c0,1.916-1.404,3.313-3.386,3.313c-2.003,0-3.349-1.416-3.349-3.191V9.921z"/>
<path fill="#082D68" d="M473.041,39.403c0-10.455,7.196-16.588,16.259-16.588c10.581,0,16.697,5.931,16.697,16.589v3.81
c0,2.384-1.954,4.202-4.508,4.202h-21.628c0.193,8.632,2.274,12.167,9.236,12.167h12.269c2.07,0,3.311,1.397,3.311,3.08
c0,1.695-1.264,3.038-3.188,3.038h-12.433c-12.642,0-16.015-6.8-16.015-20.003V39.403z M499.202,38.805
c-0.148-6.503-3.43-9.833-9.902-9.833c-5.793,0-9.321,3.82-9.526,9.807v3.08h19.429V38.805z"/>
<path fill="#082D68" d="M530.986,22.015c2.109,0,3.391,1.434,3.391,3.076c0,1.715-1.324,3.038-3.23,3.038h-2.645
c-6.929,0-10.165,3.988-10.165,10.676v23.778c0,1.812-1.427,3.118-3.385,3.118c-2.048,0-3.311-1.343-3.311-3.118V24.88
c0-1.862,0.983-2.865,2.812-2.865c1.828,0,2.398,1.05,2.813,2.866l0.391,1.711c2.302-3.021,5.594-4.576,10.845-4.576
L530.986,22.015z"/>
</svg>
