<?xml version="1.0" encoding="UTF-8"?><svg id="Layer_1" xmlns="http://www.w3.org/2000/svg" viewBox="0 0 382.53 71.59"><defs><style>.cls-1{fill:#fff;}.cls-2{fill:#0e1b4d;}.cls-3{font-family:RobotoMono-Bold, 'Roboto Mono';font-size:21px;font-weight:700;}</style></defs><text class="cls-3" transform="translate(166.41 28.47)"><tspan x="0" y="0">MeArm WiFi</tspan><tspan x="-50.41" y="25.2">Arduino Compatible</tspan></text><circle class="cls-2" cx="35.29" cy="36.29" r="35.29" transform="translate(-.81 .8) rotate(-1.29)"/><path class="cls-1" d="m33.14,25.15c-.04.11-.07.18-.1.26-1.87,5.13-3.73,10.25-5.6,15.38-.11.31-.23.63-.38.92-.57,1.09-1.5,1.71-2.69,1.92-2,.35-3.85-.99-4.27-2.83-.17-.76-.11-1.5.15-2.23.6-1.66,1.21-3.31,1.81-4.97,2.06-5.67,4.13-11.33,6.19-17,.23-.64.57-1.22,1.09-1.68.54-.48,1.18-.77,1.89-.9.2-.04.4-.08.61-.07.88.03,1.68.28,2.37.84.21.17.4.37.58.58,2.21,2.63,4.42,5.26,6.63,7.89,2.4,2.86,4.8,5.72,7.19,8.58.14.16.28.23.5.23,1.8,0,3.6,0,5.41,0,.38,0,.75.03,1.12.13,1.42.39,2.56,1.72,2.73,3.18.21,1.89-1.02,3.64-2.88,4.08-.31.08-.63.11-.96.11-2.31,0-4.62,0-6.93,0-.31,0-.62,0-.93-.03-1.03-.09-1.86-.56-2.52-1.34-.69-.81-1.37-1.63-2.05-2.45-2.92-3.48-5.84-6.96-8.76-10.44-.05-.06-.1-.11-.16-.19Z"/><path class="cls-1" d="m22.33,55.58c-1.14-1.4-2.27-2.77-3.39-4.14-.01,0-.03,0-.04.01.04,1.14.1,2.28.15,3.42.05,1.14.1,2.29.15,3.45-.18.04-.35.07-.53.1-.34.06-.68.14-1.02.18-.26.03-.52,0-.79,0,0-3.47,0-6.92,0-10.4.11-.02.22-.04.34-.06.34-.06.68-.12,1.02-.18.14-.03.24.01.32.12.69.89,1.39,1.78,2.08,2.66.31.39.61.78.92,1.17.05.06.1.12.17.2.04-.1.06-.17.09-.25.49-1.49.98-2.99,1.46-4.48.08-.24.2-.37.46-.4.37-.04.73-.12,1.1-.18.02,0,.05,0,.1,0,1.06,3.3,2.13,6.61,3.2,9.94-.65.13-1.29.23-1.95.35-.69-2.21-1.37-4.4-2.05-6.6-.01,0-.03,0-.04,0-.58,1.68-1.16,3.36-1.76,5.07Z"/><path class="cls-1" d="m48.48,45.67c.51-.09.99-.17,1.49-.26.07.17.14.34.21.52.07-.07.13-.13.19-.18.41-.38.88-.67,1.43-.78.9-.18,1.72-.03,2.43.58.03.02.06.04.09.07.02-.03.04-.06.06-.08.15-.32.38-.56.66-.76.85-.62,1.78-.83,2.81-.62.43.09.8.3,1.11.6.53.51.85,1.14,1,1.85.14.65.25,1.31.37,1.97.13.73.26,1.46.39,2.19.01.08.01.17.02.27-.6.1-1.18.2-1.78.3-.03-.11-.05-.21-.07-.31-.21-1.22-.43-2.44-.64-3.66-.08-.44-.19-.86-.44-1.23-.22-.34-.54-.52-.96-.49-.12,0-.25.02-.37.05-.15.03-.3.07-.44.13-.53.21-.79.66-.71,1.23.1.67.22,1.34.33,2.01.15.86.3,1.72.45,2.58.01.06,0,.12.01.2-.6.1-1.18.21-1.78.31-.04-.23-.08-.44-.12-.65-.2-1.14-.4-2.28-.61-3.42-.07-.36-.16-.71-.33-1.04-.21-.41-.55-.6-1.01-.59-.32,0-.63.06-.92.2-.25.12-.46.29-.63.51-.07.1-.1.2-.08.33.26,1.47.52,2.94.78,4.4.04.24.08.48.12.73-.3.09-.6.12-.9.18-.3.06-.59.1-.91.16-.43-2.43-.85-4.85-1.28-7.29Z"/><path class="cls-1" d="m34.65,53.63c.12.52.24,1.01.35,1.51-.36.28-.75.48-1.15.65-.77.31-1.58.47-2.41.41-1.34-.1-2.36-.71-2.98-1.93-.36-.7-.53-1.45-.48-2.24.03-.55.16-1.08.4-1.57.33-.69.85-1.2,1.55-1.51.84-.37,1.71-.5,2.6-.22.92.28,1.56.88,1.92,1.78.22.54.29,1.1.26,1.67,0,.02,0,.05-.02.09-1.31.23-2.62.46-3.94.69-.14-.2-.17-.42-.2-.64-.02-.15-.01-.3,0-.44,0-.15.01-.15.16-.18.61-.11,1.23-.22,1.84-.33.06-.01.12-.02.2-.04,0-.07,0-.14-.02-.2-.15-.68-.8-1.12-1.49-1-.76.14-1.24.63-1.36,1.4-.1.66,0,1.29.27,1.88.4.89,1.28,1.35,2.25,1.21.71-.1,1.33-.4,1.93-.78.1-.07.21-.13.33-.21Z"/><path class="cls-1" d="m39.05,44.35c-.08.53-.16,1.04-.24,1.55-.16,1.01-.31,2.03-.47,3.04-.16,1.01-.31,2.02-.47,3.03-.15,1-.31,2.01-.46,3.01-.03.17-.02.17-.19.2-.53.09-1.06.19-1.59.28-.05,0-.11.01-.19.02.04-.25.08-.48.11-.7.2-1.21.41-2.41.61-3.62.22-1.29.44-2.59.66-3.88.14-.83.28-1.66.42-2.49.02-.1.06-.15.16-.17.49-.08.97-.17,1.46-.25.05,0,.1,0,.17,0Z"/><path class="cls-1" d="m39.64,45.36c1.61,2.84,3.22,5.68,4.83,8.53-.07.02-.12.03-.17.04-.58.1-1.17.2-1.77.31-.43-.76-.87-1.52-1.31-2.3-.89.15-1.79.31-2.71.47.09-.65.19-1.28.29-1.91.48-.09.95-.17,1.44-.26-.05-.09-.08-.15-.11-.21-.28-.5-.56-1-.85-1.5-.1-.17-.13-.33-.1-.53.13-.81.25-1.61.38-2.42.01-.06.03-.13.04-.19h.04Z"/><path class="cls-1" d="m47.93,45.69c-.02.58-.03,1.15-.05,1.73-.23.04-.44.08-.65.12-.42.07-.75.28-1.02.6-.15.18-.2.37-.16.6.11.58.21,1.16.31,1.73.17.93.33,1.86.49,2.8.01.06.01.12.02.2-.6.11-1.19.21-1.77.31-.08-.12-1.29-7.1-1.29-7.29.54-.1,1.09-.19,1.65-.29.09.22.12.46.2.72.07-.08.12-.14.17-.19.52-.62,1.17-.98,1.98-1.05.02,0,.05,0,.07,0,0,0,.01,0,.04.01Z"/><circle class="cls-2" cx="35.29" cy="35.29" r="35.29" transform="translate(-.79 .8) rotate(-1.29)"/><path class="cls-1" d="m33.14,24.15c-.04.11-.07.18-.1.26-1.87,5.13-3.73,10.25-5.6,15.38-.11.31-.23.63-.38.92-.57,1.09-1.5,1.71-2.69,1.92-2,.35-3.85-.99-4.27-2.83-.17-.76-.11-1.5.15-2.23.6-1.66,1.21-3.31,1.81-4.97,2.06-5.67,4.13-11.33,6.19-17,.23-.64.57-1.22,1.09-1.68.54-.48,1.18-.77,1.89-.9.2-.04.4-.08.61-.07.88.03,1.68.28,2.37.84.21.17.4.37.58.58,2.21,2.63,4.42,5.26,6.63,7.89,2.4,2.86,4.8,5.72,7.19,8.58.14.16.28.23.5.23,1.8,0,3.6,0,5.41,0,.38,0,.75.03,1.12.13,1.42.39,2.56,1.72,2.73,3.18.21,1.89-1.02,3.64-2.88,4.08-.31.08-.63.11-.96.11-2.31,0-4.62,0-6.93,0-.31,0-.62,0-.93-.03-1.03-.09-1.86-.56-2.52-1.34-.69-.81-1.37-1.63-2.05-2.45-2.92-3.48-5.84-6.96-8.76-10.44-.05-.06-.1-.11-.16-.19Z"/><path class="cls-1" d="m22.33,54.58c-1.14-1.4-2.27-2.77-3.39-4.14-.01,0-.03,0-.04.01.04,1.14.1,2.28.15,3.42.05,1.14.1,2.29.15,3.45-.18.04-.35.07-.53.1-.34.06-.68.14-1.02.18-.26.03-.52,0-.79,0,0-3.47,0-6.92,0-10.4.11-.02.22-.04.34-.06.34-.06.68-.12,1.02-.18.14-.03.24.01.32.12.69.89,1.39,1.78,2.08,2.66.31.39.61.78.92,1.17.05.06.1.12.17.2.04-.1.06-.17.09-.25.49-1.49.98-2.99,1.46-4.48.08-.24.2-.37.46-.4.37-.04.73-.12,1.1-.18.02,0,.05,0,.1,0,1.06,3.3,2.13,6.61,3.2,9.94-.65.13-1.29.23-1.95.35-.69-2.21-1.37-4.4-2.05-6.6-.01,0-.03,0-.04,0-.58,1.68-1.16,3.36-1.76,5.07Z"/><path class="cls-1" d="m48.48,44.67c.51-.09.99-.17,1.49-.26.07.17.14.34.21.52.07-.07.13-.13.19-.18.41-.38.88-.67,1.43-.78.9-.18,1.72-.03,2.43.58.03.02.06.04.09.07.02-.03.04-.06.06-.08.15-.32.38-.56.66-.76.85-.62,1.78-.83,2.81-.62.43.09.8.3,1.11.6.53.51.85,1.14,1,1.85.14.65.25,1.31.37,1.97.13.73.26,1.46.39,2.19.01.08.01.17.02.27-.6.1-1.18.2-1.78.3-.03-.11-.05-.21-.07-.31-.21-1.22-.43-2.44-.64-3.66-.08-.44-.19-.86-.44-1.23-.22-.34-.54-.52-.96-.49-.12,0-.25.02-.37.05-.15.03-.3.07-.44.13-.53.21-.79.66-.71,1.23.1.67.22,1.34.33,2.01.15.86.3,1.72.45,2.58.01.06,0,.12.01.2-.6.1-1.18.21-1.78.31-.04-.23-.08-.44-.12-.65-.2-1.14-.4-2.28-.61-3.42-.07-.36-.16-.71-.33-1.04-.21-.41-.55-.6-1.01-.59-.32,0-.63.06-.92.2-.25.12-.46.29-.63.51-.07.1-.1.2-.08.33.26,1.47.52,2.94.78,4.4.04.24.08.48.12.73-.3.09-.6.12-.9.18-.3.06-.59.1-.91.16-.43-2.43-.85-4.85-1.28-7.29Z"/><path class="cls-1" d="m34.65,52.63c.12.52.24,1.01.35,1.51-.36.28-.75.48-1.15.65-.77.31-1.58.47-2.41.41-1.34-.1-2.36-.71-2.98-1.93-.36-.7-.53-1.45-.48-2.24.03-.55.16-1.08.4-1.57.33-.69.85-1.2,1.55-1.51.84-.37,1.71-.5,2.6-.22.92.28,1.56.88,1.92,1.78.22.54.29,1.1.26,1.67,0,.02,0,.05-.02.09-1.31.23-2.62.46-3.94.69-.14-.2-.17-.42-.2-.64-.02-.15-.01-.3,0-.44,0-.15.01-.15.16-.18.61-.11,1.23-.22,1.84-.33.06-.01.12-.02.2-.04,0-.07,0-.14-.02-.2-.15-.68-.8-1.12-1.49-1-.76.14-1.24.63-1.36,1.4-.1.66,0,1.29.27,1.88.4.89,1.28,1.35,2.25,1.21.71-.1,1.33-.4,1.93-.78.1-.07.21-.13.33-.21Z"/><path class="cls-1" d="m39.05,43.35c-.08.53-.16,1.04-.24,1.55-.16,1.01-.31,2.03-.47,3.04-.16,1.01-.31,2.02-.47,3.03-.15,1-.31,2.01-.46,3.01-.03.17-.02.17-.19.2-.53.09-1.06.19-1.59.28-.05,0-.11.01-.19.02.04-.25.08-.48.11-.7.2-1.21.41-2.41.61-3.62.22-1.29.44-2.59.66-3.88.14-.83.28-1.66.42-2.49.02-.1.06-.15.16-.17.49-.08.97-.17,1.46-.25.05,0,.1,0,.17,0Z"/><path class="cls-1" d="m39.64,44.36c1.61,2.84,3.22,5.68,4.83,8.53-.07.02-.12.03-.17.04-.58.1-1.17.2-1.77.31-.43-.76-.87-1.52-1.31-2.3-.89.15-1.79.31-2.71.47.09-.65.19-1.28.29-1.91.48-.09.95-.17,1.44-.26-.05-.09-.08-.15-.11-.21-.28-.5-.56-1-.85-1.5-.1-.17-.13-.33-.1-.53.13-.81.25-1.61.38-2.42.01-.06.03-.13.04-.19h.04Z"/><path class="cls-1" d="m47.93,44.69c-.02.58-.03,1.15-.05,1.73-.23.04-.44.08-.65.12-.42.07-.75.28-1.02.6-.15.18-.2.37-.16.6.11.58.21,1.16.31,1.73.17.93.33,1.86.49,2.8.01.06.01.12.02.2-.6.11-1.19.21-1.77.31-.08-.12-1.29-7.1-1.29-7.29.54-.1,1.09-.19,1.65-.29.09.22.12.46.2.72.07-.08.12-.14.17-.19.52-.62,1.17-.98,1.98-1.05.02,0,.05,0,.07,0,0,0,.01,0,.04.01Z"/></svg>